<mxfile host="65bd71144e">
    <diagram id="CCe3BOvn-FDp0MIwt89x" name="Page-1">
        <mxGraphModel dx="2855" dy="600" grid="1" gridSize="10" guides="1" tooltips="1" connect="1" arrows="1" fold="1" page="1" pageScale="1" pageWidth="850" pageHeight="1100" math="0" shadow="0">
            <root>
                <mxCell id="0"/>
                <mxCell id="1" parent="0"/>
                <mxCell id="47" value="" style="shape=image;verticalLabelPosition=bottom;labelBackgroundColor=default;verticalAlign=top;aspect=fixed;imageAspect=0;image=data:image/png,iVBORw0KGgoAAAANSUhEUgAAB38AAAQhCAYAAAAtTUUEAAAAAXNSR0IArs4c6QAAAARnQU1BAACxjwv8YQUAAAAJcEhZcwAADsMAAA7DAcdvqGQAAN6fSURBVHhe7P19fJxnfSf6f2f8LIc8YMdJCEoTCjhLY16Js4SHxBtoFRxq1w1xT4ubUAj4JA2mUs82AqrllIWzxyS19uyRqMtufimpXzgN3YMC65Mc4mJvm7UDC1s7KXHZOLRNsIghfiBxsGXLD5rfH3imM5dG0kiakeTb7/frdb/mvh5mNDOa0ei+P3NdV+6nR44WYsLl0ooGqfWhDXV/ar3+6KW3PNQ9GEp6/ZH8/PaH+imFQbc3fP9U8dq19q80+muP9v4O7v9zQ/evbqT+Q7UDjCz9yzPSX5S0PzXKjfDMFpJndqT+5cqvOsarlRvFTQx5G6nibdbav17Sx1KPn5/eZlE9bhuA+hnq73U1tf4Nr7jN4a40mh8+kuF+DmNS7ddTr6e52m0z8cp/DyP9bmv5nRXSfiOcjhmyf2qI6w/qP1S/M0z6sIrGe6ww0tNT79tNb2+oflGlb7mxXi+qXHek/rUazXtnrMb7+wZgassVCulZTkbjlVdeiVwuF7nTJ4eL++Vbsb7aZVFaBgAAAAAAABiNfFrB6BQKhdJWrU62DgAAAAAAAEwE4e84pUHvUGHvUPUAAAAAAAAA9SD8Hac0+B1qK+9ffpnWAwAAAAAAAIyF8Hec0pBXiAsAAAAAAABMBuHvOFULftNyeV8AAAAAAACARhD+jlMa9Kahb9oOAAAAAAAA0AjC33FKg95q+6nyoBgAAAAAAACgHoS/dZCO/C2vBwAAAAAAAJgIwt9xqhb8CoABAAAAAACAiSb8rZPhQl5hMAAAAAAAANBowt9xSsPcaqN/07ahjNQOAAAAAAAAMBThbx0MF/gWDdcGAAAAAAAAMF7C3waoJQwGAAAAAAAAqCfh7zgJeAEAAAAAAICpQPhbJ0JgAAAAAAAAYDIJfwEAAAAAAAAyQPgLAAAAAAAAkAHC3zoz/TMAAAAAAAAwGYS/AAAAAAAAABkg/AUAAAAAAADIAOFvHZjqGQAAAAAAAJhswl8AAAAAAACADBD+AgAAAAAAAGSA8BcAAAAAAAAgA4S/AAAAAAAAABkg/AUAAAAAAADIAOEvAAAAAAAAQAYIfwEAAAAAAAAyQPgLAAAAAAAAkAHCXwAAAAAAAIAMEP4CAAAAAAAAZIDwFwAAAAAAACADhL8AAAAAAAAAGSD8BQAAAAAAAMgA4S8AAAAAAABABgh/AQAAAAAAADJA+AsAAAAAAACQAcJfAAAAAAAAgAwQ/gIAAAAAAABkgPAXAAAAAAAAIAOEvwAAAAAAAAAZIPwFAAAAAAAAyADhLwAAAAAAAEAGCH8BAAAAAAAAMkD4CwAAAAAAAJABwl8AAAAAAACADBD+AgAAAAAAAGSA8BcAAAAAAAAgA4S/AAAAAAAAABkg/AUAAAAAAADIAOEvAAAAAAAAQAYIfwEAAAAAAAAyQPgLAAAAAAAAkAHCXwAAAAAAAIAMEP4CAAAAAAAAZIDwFwAAAAAAACADhL8AAAAAAAAAGSD8BQAAAAAAAMiAXKFQKKSV9fbij1+O5/7hJ3Hg4OF4/of7K9oWXHhuXDjvNbHwTRfHG99wUUXbmWDv3r2Ry+Uin89HPp+vup/L5apuEVG6LErLAAAAAAAAALVoWPj705ePxKZvPBX/7cnd8cqhvrR5SO942y/Grb927RkTBAt/AQAAAAAAgKmg7uFvMfTd9P89lTaNyi9deWl86Levn/IhsPAXAAAAAAAAmArqGv7+9bb/GV/4T1vS6pJ3vO0XS9M8R0T0HT0ez/9wfzz73I+HHB38K+9+S3zk9iUxZ/bMtGlKEP4CAAAAAAAAU0Fdwt+jx47HlzZui61/8/20KVb86jVx7dWXxxvfsGDYAPfFH78c3/rOP8Q3vvm9QUHwZa+fF+1t74tLL7mgon4qEP4CAAAAAAAAU0Fdwt8//4vtg6Z5fsfbfjFu+813jjqwPXrseDz6+N/Fw1/97xX155/XFF9a/9GKuqlA+AsAAAAAAABMBXUJf48eOx5rOx+Nv3/2xTj/vKb44AfeFe9Z8i/SbhGn+7649+WIiHjtBefEay+Ym3aJOD0SeF3XN2LPjw7G+ec1RccfLJ+S6/8KfwEAAAAAAICpoC7hb5RN/bz0l68aFNI+8/0fxY6nX4j/9uTuQVM6x+lRwjfecGW89ZdeXzE19HC3OVUIfwEAAAAAAICpoG7hbzUv/vjl+I9/9tfx98++mDYN6bMd749Fb3l9Wj1lCX8BAAAAAACAqaBh4e93dvxT3PcfHkura/Ir735LrFn9K2n1lCT8BQAAAAAAAKaChoS/5WsAF51/XlO876a3xjVvvSzmzJkZr71gbry49+XoffGn8V8eeyr2/OhgRd+pusZvSvgLAAAAAAAATAUNCX8jCYBX/cY74ldufEu89oK5abeSv972P+PLX/lWRMQZE/yG8BcAAAAAAACYIhoW/sbpAPh7f/+jePu1b0ibqnrxxy/H0aPHz5jgN4S/AAAAAAAAwBTR0PC3mu/s+Kc4cOBnsf/gz+IXmufFO972izFn9sy02xlD+AsAAAAAAABMBRMW/r7445djXdc3Ktb2Lfrk/7as5tHBU43wFwAAAAAAAJgK8mlFo7z2grnxmnNmp9Vx/nlNMW+YtYABAAAAAAAAGNmEhb9zZs+MjnuWxy9deWmp7vzzmqLjD5afUWv8AgAAAAAAAExFExb+RhIAC34BAAAAAAAA6mfC1vwtd/TY8fjpy0fi0ksuSJvOONb8BQAAAAAAAKaCCR35WzRn9sxMBL8AAAAAAAAAU8WkhL8AAAAAAAAA1JfwFwAAAAAAACADhL8AAAAAAAAAGSD8BQAAAAAAAMgA4S8AAAAAAABABgh/AQAAAAAAADJA+AsAAAAAAACQAcJfAAAAAAAAgAwQ/gIAAAAAAABkgPAXAAAAAAAAIAOEvwAAAAAAAAAZIPwFAAAAAAAAyADhLwAAAAAAAEAGCH8BAAAAAAAAMkD4CwAAAAAAAJABwl8AAAAAAACADBD+AgAAAAAAAGSA8BcAAAAAAAAgA4S/AAAAAAAAABkg/AUAAAAAAADIAOEvAAAAAAAAQAYIfwEAAAAAAAAyQPgLAAAAAAAAkAHCXwAAAAAAAIAMEP4CAAAAAAAAZIDwFwAAAAAAACADhL8AAAAAAAAAGSD8BQAAAAAAAMgA4S8AAAAAAABABgh/AQAAAAAAADJA+AsAAAAAAACQAcJfAAAAAAAAgAwQ/gIAAAAAAABkgPAXAAAAAAAAIAOEvwAAAAAAAAAZIPwFAAAAAAAAyADhLwAAAAAAAEAGCH8BAAAAAAAAMkD4CwAAAAAAAJABwl8AAAAAAACADBD+AgAAAAAAAGSA8BcAAAAAAAAgA4S/AAAAAAAAABkg/AUAAAAAAADIAOEvAAAAAAAAQAYIfwEAAAAAAAAyQPgLAAAAAAAAkAHCXwAAAAAAAIAMEP4CAAAAAAAAZIDwFwAAAAAAACADhL8AAAAAAAAAGSD8BQAAAAAAAMgA4S8AAAAAAABABgh/AQAAAAAAADJA+AsAAAAAAACQAcJfAAAAAAAAgAwQ/gIAAAAAAABkgPAXAAAAAAAAIAOEvwAAAAAAAAAZIPwFAAAAAAAAyADhLwAAAAAAAEAGCH8BAAAAAAAAMkD4CwAAAAAAAJABwl8AAAAAAACADBD+AgAAAAAAAGSA8BcAAAAAAAAgA4S/AAAAAAAAABkg/AUAAAAAAADIAOEvAAAAAAAAQAYIfwEAAAAAAAAyQPgLAAAAAAAAkAHCXwAAAAAAAIAMEP4CAAAAAAAAZIDwFwAAAAAAACADhL8AAAAAAAAAGSD8BQAAAAAAAMgA4S8AAAAAAABABgh/AQAAAAAAADJA+AsAAAAAAACQAcJfAAAAAAAAgAwQ/gIAAAAAAABkgPAXAAAAAAAAIAOEvwAAAAAAAAAZIPwFAAAAAAAAyADhLwAAAAAAAEAG5AqFQiGtzJL3vOc9FeW//uu/riiP1969eyOXy0U+n498Pl91P5fLVd0ionRZlJYBAAAAAAAAanFWjfytc+4LAAAAAAAAMGWcNeGv4BcAAAAAAADIsrMi/BX8AgAAAAAAAFmX+TV/I76clD+YlMfHmr8AAAAAAADAVJDZkb87Ojtj0/LlcXT/zdGV+53oyv1OPNH2t2k3AAAAAAAAgEzIbPh7uLc3Ln33u+P7GzZERMQN69bF093dcXT//rQrAAAAAAAAwBkvs+HvRdddF9vb22N7e3tc3doal998c9oFAAAAAAAAIDMyG/5eedttccO6dXHFsmVxY1dXvPD443HFsmUx58IL064AAAAAAAAAZ7xcoVAopJVZ1Lt1azzS0hJtdX64e/fujVwuF/l8PvL5fNX9XC5XdYuI0mVRWgYAAAAAAACoRWZH/gIAAAAAAACcTTI78ndHZ2dsb29Pq438BQAAAAAAADIps+HvRBH+AgAAAAAAAFNBZqd93tHZGU+0tcWzDz0Um5Yvj96tW6NLsAoAAAAAAABkVGbDXwAAAAAAAICzSWanfbbmLwAAAAAAAHA2yWz4e3T//phz4YUVdQd37Yp5V11VUTdewl8AAAAAAABgKsjstM/f37AhunK5OLhrV0REbFq+PDYuWpR2AwAAAAAAAMiEzIa/l998c0REbFy0KLpyuXj+scfi6tbWtBsAAAAAAABAJmQ2/J131VUVYe8Vy5bFjV1dFX0AAAAAAAAAsiKz4e+Ozs54urs7rli2LJZu3BjPP/ZYdFlPFwAAAAAAAMiozIa/ERFthUKsePTRuPK226KtUIgrli1LuwAAAAAAAABkQq5QKBTSSmq3d+/eyOVykc/nI5/PV93P5XJVt4goXRalZQAAAAAAAIBaZDb83dHZGdvb29PqaKvzwxX+AgAAAAAAAFNBZsPfiSL8BQAAAAAAAKaCzK75e3DXrujK5aIrl4sdnZ1pMwAAAAAAAECmZDb8feHxx0v729vb4+j+/RXtAAAAAAAAAFmS2fA3IuKGdetKa/z2vfRS2gwAAAAAAACQGZkOf7e3t0fX6TV0Ny5aVNoHAAAAAAAAyJpcoXB6aCxjsnfv3sjlcpHP5yOfz1fdz+VyVbeIKF0WpWUAAAAAAACAWmR65C8AAAAAAADA2SLz4e+zDz1kumcAAAAAAAAg8zIb/hZD38233x4REV25XDzR1pZ2AwAAAAAAAMiEzIa/L333u7F048ZoKxSirVCIO/fti6e7u+Po/v1pVwAAAAAAAIAzXq5QKBTSyix49qGHSqN+y7XV+eHu3bs3crlc5PP5yOfzVfdzuVzVLSJKl0VpGQAAAAAAAKAWmR35e+Vtt8WtW7aUylcsW1b34BcAAAAAAABgqsjsyN+JYuQvAAAAAAAAMBVkduRv6tmHHoquXM6avwAAAAAAAEAmnTXh7y+8971xdWtrzLnwwrQJAAAAAAAA4Ix3Vkz7fHT//rh/wYKGrPlr2mcAAAAAAABgKsjsyN8dnZ3RlctFVy4X9y9YEBERXYJVAAAAAAAAIKMyG/4W3bplS9y5b19ERENG/gIAAAAAAABMBZmf9nnT8uXx/GOPRTQo/DXtMwAAAAAAADAVZH7k74pHH42lGzem1QAAAAAAAACZkvmRv41m5C8AAAAAAAAwFWR25O+Ozs7YtHx5Wg0AAAAAAACQSZkNfyMinn/ssejK5YTAAAAAAAAAQOZlftrnrmQa5bY6P1zTPgMAAAAAAABTwYSGvwMDhThx4mScPDUQAwOFqPePnjVzesyaNSPi9LTP29vbIyLihnXr4tp77kl614fwFwAAAAAAAJgKJmTa54GBQhw9ejwOHzkW/cdPxqlTA3UPfqtZunFjtBUKDQt+AQAAAAAAAKaKho/8PX7iZBw7diKtbojykb8TxchfAAAAAAAAYCpo6Mjf/v4TExb8pnq3bo2uXC6eaGuLTcuXl/YBAAAAAAAAsqhh4e/xEyej//jJtHrC7HvqqYiIeLq7O55/7LFYunFjPN3dHRERp04NJL0BAAAAAAAAzmwNCX8HBgqTNuK33NKNG+PWLVvi6tbW+IX3vrdUf/LkqRgYaOhs1wAAAAAAAAATqiHhb3//5Ae/ERGbb789Hmlpiae7u+P+BQsq2qbKfQQAAAAAAACoh1yhUKjrENiBgUIcPnIsrZ4Qs2ZOj1mzZqTVg/T3n4j+4yfjnLmzI5/Ppc2jsnfv3sjlcpHP5yOfz1fdz+VyVbeIKF0WpWUAAAAAAACAWtR95O+JE5O3zu9onUn3FQAAAAAAAGA4dQ9/T54aSKsmTe/WrdGVy0VXLhc7OjvT5il1XwEAAAAAAADGo+7h78BAXWeRHrPerVvjkZaWUnl7e/ugAHiq3FcAAAAAAACA8ap7+FvnJYTHbN9TT0VERFuhEG2FQtywbl1sb2+v6DNV7isAAAAAAADAeOUKdU5AX/3Z0bRqWM//cH/833/6V3Ho1dFdr5p/97+vjLcsfF1EROzo7IzDvb1xY1dXRNlI4LZCIfr7T0T/8Z+v93vua+ZU3MZo7d27N3K5XOTz+cjn81X3c7lc1S0iSpdFaRkAAAAAAACgFnUf+Tta9Qp+IyKe+fveivLT3d2lNX/Lp4AGAAAAAAAAyJpJH/n74bsfiIiIT/7+r8a/OD1qdyw+fPcD8Vu3Xhe/devb06ZBjPwFAAAAAAAAsmbSR/4CAAAAAAAAMH6ZDX93dHbGE21t8exDD8Wm5cujd+vW6DKqFgAAAAAAAMiozIa/AAAAAAAAAGeTTIe/T3d3x+bbb4/nH3ssHmlpSZsBAAAAAAAAMiPT4W/R1a2t0VYoRFuhkDYBAAAAAAAAZEJmw99r77knbt2yJeL0COCuXM6avwAAAAAAAEBmZTb8jYj4p02b0ioAAAAAAACATMps+LujszOe7u6OiIhbt2wx7TMAAAAAAACQaZkNf8s90tISXblcHNy1K20CAAAAAAAAyITMhr/X3nNPabRvW6EQV7e2xsZFi9JuAAAAAAAAAJmQ2fB3R2dndOVypa04BTQAAAAAAABAFuUKhfouhPvqz46mVcP68N0PRETEJ3//V+PvdvXG41ueSbvU7LduvS5+69a3R5wOf7e3t8ed+/bFnAsvrOjX338i+o+fjIiIc18zp6JttPbu3Ru5XC7y+Xzk8/mq+7lcruoWEaXLorQMAAAAAAAAUIspM/L3of/87XEFvxERi36pubR/7T33xK1btsT9CxZEVy4XT7S1VfQFAAAAAAAAyJIpM/I3IuLKN10Sd33kPXHB+U0VfWo1a+b0mDVrRkRE9G7dGo+0tFS0X93aGjd2dRn5CwAAAAAAAGTOlBn5O97gN7XvqafiimXLoq1QiLZCIZZu3GjdXwAAAAAAACCzpkT4W+/gFwAAAAAAAOBsM+nhb6OC38tvvjmef+yx6MrloiuXi8233x43rFuXdgMAAAAAAADIhElf87eeytf8Leo6vYbu0o0b48rbbouIsOYvAAAAAAAAkDl1H/k71cLL4pq/cy++uBQEF021+woAAAAAAAAwVnUPf/P5MydQPZPuKwAAAAAAAMBw6h7+Tp9W95sckx2dnaX1frtyuXikpSXtMmXuKwAAAAAAAMB41X3N34GBQhw+ciytnhDV1vytprjm7zlzZ4979K81fwEAAAAAAICpoO5DX/P5XMyYPi2tnnA7Ojvjiba2OLhr16C1fiMiZkyfNu7gFwAAAAAAAGCqqHv4GxE1jb6dbGfCfQQAAAAAAACoVUPC33w+F7NnT364+nR3d2xctCgiorT2b0TEdKN+AQAAAAAAgIyp+5q/5Ypr606UWtf8rSdr/gIAAAAAAABTQUNG/hbNmjVj0kYAF9f67crl4uj+/RUjfwEAAAAAAACypqHhb0TEzBnT45y5s2PG9GlpU0O98Pjjpf37FyyoaAMAAAAAAADImoaHv3F6DeA5c2bGOXNnx6yZ02PatJ9PhdxoN6xbF3fu2xcREXfu2xdtjZvhGgAAAAAAAGBSNXTN38m0o7Mztre3p9V1D4Ct+QsAAAAAAABMBZkNfyeK8BcAAAAAAACYCiZk2mcAAAAAAAAAGiuz4e+Ozs54oq0tnn3oodi0fHn0bt0aXUbVAgAAAAAAABmV2fAXAAAAAAAA4GyS2TV/d3R2xvb29rQ62ur8cK35CwAAAAAAAEwFmQ1/D+7aFfOuuiqtrjvhLwAAAAAAADAVZHba5xcefzy6crnoyuXiiba2tBkAAAAAAAAgUzI78jdOj/7duGhRRZ1pnwEAAAAAAIAsyuzI34iIeVddVfewFwAAAAAAAGAqymz4u6OzszTtc0TEFcuWCYIBAAAAAACAzMps+BsRcXVra7QVCtFWKMSKRx9NmwEAAAAAAAAyI7Ph77X33BNvWLGiNPr3iba2tAsAAAAAAABAZmQ2/O3dujUeaWkplZ/u7hYAAwAAAAAAAJmV2fB331NPldb5bSsUYunGjfF0d3faDQAAAAAAACATMhv+AgAAAAAAAJxNcoVCoZBWZsHBXbti46JFFXU3rFsX195zT0XdeO3duzdyuVzk8/nI5/NV93O5XNUtIkqXRWkZAAAAAAAAoBaZDX+Luk6HqUs3bowrb7stbR434S8AAAAAAAAwFWQ+/G004S8AAAAAAAAwFWR2zd8dnZ3xRFtbWg0AAAAAAACQSZkNfwEAAAAAAADOJpkOf5/u7o6uXK5iAwAAAAAAAMiiTIe/V7e2RluhULEBAAAAAAAAZFGmw18AAAAAAACAs0Wmw1/TPgMAAAAAAABni0yHvwAAAAAAAABni1yhkO2FcJ996KF47uGHY8Wjj6ZNdbF3797I5XKRz+cjn89X3c/lclW3iChdFqVlAAAAAAAAgFoY+QsAAAAAAACQAZkd+bujszO2t7en1dFW54dr5C8AAAAAAAAwFWQ2/J0owl8AAAAAAABgKjDtMwAAAAAAAEAGZDb83dHZGZuWL4/erVujK5crbQAAAAAAAABZlNnw93Bvb1z67ndHRMQVy5bF7c88ExERR/fvT3oCAAAAAAAAnPkyG/6e09wc29vbo/lXfiVWPPpo7P+7v4uIiDkXXph2BQAAAAAAADjj5QqFQiGtzIKj+/fH/QsWVNRd3doaN3Z1VdSN1969eyOXy0U+n498Pl91P5fLVd0ionRZlJYBAAAAAAAAapHZkb9zLrww2spy7RvWrat78AsAAAAAAAAwVWR25O9EMfIXAAAAAAAAmAoyG/7u6OyM7e3taXXFaOB6EP4CAAAAAAAAU0Fmw9+JIvwFAAAAAAAApoLMrvl7cNeu6MrloiuXi6P795f2AQAAAAAAALIos+HvC48/Xtq/f8GCijYAAAAAAACArMls+BsRccO6dXHnvn0REXHnvn11X+8XAAAAAAAAYKrIdPi7vb29NOr3/gULTPsMAAAAAAAAZFauUMj2cNgvf/nLFeUPfvCDFeXx2rt3b+Ryucjn85HP56vu53K5qltElC6L0jIAAAAAAABALTIf/r7nPe+pKP/1X/91RXm8hL8AAAAAAADAVJDpaZ8BAAAAAAAAzhbCXwAAAAAAAIAMEP4CAAAAAAAAZEDm1/xtNGv+AgAAAAAAAFOBkb8AAAAAAAAAGSD8BQAAAAAAAMgA4S8AAAAAAABABgh/AQAAAAAAADJA+AsAAAAAAACQAcJfAAAAAAAAgAwQ/gIAAAAAAABkgPAXAAAAAAAAIAOEvwAAAAAAAAAZIPwFAAAAAAAAyADhLwAAAAAAAEAGCH8BAAAAAAAAMkD4CwAAAAAAAJABwl8AAAAAAACADBD+AgAAAAAAAGSA8BcAAAAAAAAgA4S/AAAAAAAAABkg/AUAAAAAAADIAOEvAAAAAAAAQAYIfwEAAAAAAAAyQPgLAAAAAAAAkAHCXwAAAAAAAIAMEP4CAAAAAAAAZIDwFwAAAAAAACADhL8AAAAAAAAAGSD8BQAAAAAAAMgA4S8AAAAAAABABgh/AQAAAAAAADJA+AsAAAAAAACQAcJfAAAAAAAAgAzIbPi7o7MzNi1fHkf374+uXC66crl4oq0t7QYAAAAAAACQCZkNfw/39sal7353fH/DhoiIuGHduni6uzuO7t+fdgUAAAAAAAA442U2/L3ouutie3t7bG9vj6tbW+Pym29OuwAAAAAAAABkRmbD3ytvuy1uWLcurli2LG7s6ooXHn88rli2LOZceGHaFQAAAAAAAOCMlysUCoW0Mot6t26NR1paoq3OD3fv3r2Ry+Uin89HPp+vup/L5apuEVG6LErLAAAAAAAAALXI7MhfAAAAAAAAgLNJZkf+7ujsjO3t7Wm1kb8AAAAAAABAJmU2/J0owl8AAAAAAABgKsjstM87Ojvjiba2ePahh2LT8uXRu3VrdAlWAQAAAAAAgIzKbPgLAAAAAAAAcDbJ7LTP1vwFAAAAAAAAziaZDX+P7t8fcy68sKLu4K5dMe+qqyrqxkv4CwAAAAAAAEwFmZ32+fsbNkRXLhcHd+2KiIhNy5fHxkWL0m4AAAAAAAAAmZDZ8Pfym2+OiIiNixZFVy4Xzz/2WFzd2pp2AwAAAAAAAMiEzIa/8666qiLsvWLZsrixq6uiDwAAAAAAAEBWZDb83dHZGU93d8cVy5bF0o0b4/nHHosu6+kCAAAAAAAAGZXZ8Dcioq1QiBWPPhpX3nZbtBUKccWyZWkXAAAAAAAAgEzIFQqFQlpJ7fbu3Ru5XC7y+Xzk8/mq+7lcruoWEaXLorQMAAAAAAAAUIvMhr87Ojtje3t7Wh1tdX64wl8AAAAAAABgKshs+DtRhL8AAAAAAADAVJDZNX8P7toVXblcdOVysaOzM20GAAAAAAAAyJTMhr8vPP54aX97e3sc3b+/oh0AAAAAAAAgSzIb/kZE3LBuXWmN376XXkqbAQAAAAAAADIj0+Hv9vb26Dq9hu7GRYtK+wAAAAAAAABZkysUTg+NZUz27t0buVwu8vl85PP5qvu5XK7qFhGly6K0DAAAAAAAAFCLTI/8BQAAAAAAADhbZD78ffahh0z3DAAAAAAAAGReZsPfYui7+fbbIyKiK5eLJ9ra0m4AAAAAAAAAmZDZ8Pel7343lm7cGG2FQrQVCnHnvn3xdHd3HN2/P+0KAAAAAAAAcMbLFQqFQlqZBc8+9FBp1G+5tjo/3L1790Yul4t8Ph/5fL7qfi6Xq7pFROmyKC0DAAAAAAAA1CKzI3+vvO22uHXLllL5imXL6h78AgAAAAAAAEwVmR35O1GM/AUAAAAAAACmgsyO/E09+9BD0ZXLWfMXAAAAAAAAyKSzJvz9hfe+N65ubY05F16YNgEAAAAAAACc8c6K8Pfo/v1x/4IFcWNXV9oEAMBZrqenJxYuXFjaenp60i4RERV9Fi5cmDYDZEZfX1/09PTE+vXrY+fOnWkzw6j1M4WJU+vn9+bNm2P9+vWxefPmtAkAAM4omQ1/d3R2RlcuF125XNy/YEFERHRZTxcAoKHSk94dHR1pl2Ht3r275pO0DJY+d0NtHR0dsWHDhtizZ096E0xBfX19sXnz5ujo6IiWlpZRv6+oj4ULF0ZLS0vce++9sW3btrQ5Uz760Y9GR0dHdHd3x6pVqwTAZN769eujtbU1uru7o7W1NTZs2JB2GbO+vr7Ytm1b3HvvvbFq1apBn8ebN2+Ovr6+9GoAADBmmQ1/i27dsiXu3LcvIiLaCoW0GQAAzjo9PT2xdu3auOmmm2LDhg1OOk9he/bsiY9+9KPR2toaPT090dvbm3ZhAvX29saDDz4Yq1evjo6Ojky+d3bv3j0o7P2rv/qrijJkTXd3d0X5y1/+ckV5rDZv3hwrVqyI1atXx4MPPjjovdXT0xOtra2xYsWKzH+pBACAiZPZ8Pfae+6JtkIhnvoP/6E08hcAAKi0du3aaG9vT6uZIu67776KsKC5udmI+EmycuXKinJPT088+OCDFXVZMG/evLQq3vSmN6VVkCmLFy+uKF933XUV5bF64oknavrSTm9vb6xevXpQOAwAAGOR2fC3aMWjj8bSjRvTagAAyLzu7u7YtGlTaVu7dm20tram3WLLli3WpWywAwcOxLZt22L9+vVx7733ps1V7dmzJ7Zs2VIqt7S0xKZNm+JDH/pQRT8mxtq1a+PJJ5+sCIm6u7szN/p3/vz58cADD0Rzc3NERLS2tsb73ve+tBuTYM+ePbF58+a49957/c2us/vuu6/03l65cmX87u/+btplXJqbm6O1tTXWrl1b2tLAOSJi3bp1aRUAAIxa5sPfiIgrb7vNlM8AAJx1Lr/88oq1BVeuXBlr1qyJb37zm6Vgp+irX/1qRZn62b17d1x//fWxevXq6O7ujldffTXtUtX/+B//o6L8yU9+MpqamirqmFjz58+Pj33sYxV1tYzqO9MsWbIktmzZErt37441a9Z43U0BPT09cdNNN0Vra2smR5xPtssuuywefvjh2L17d6xduzYuu+yytMuYrV27NjZt2hRr1qyJlStXlraHH3540Beydu7cGbt3766oAwCA0cps+LujszM2LV+eVgMAwFnvsssuiw9+8IMVdaaanPrqGUYwdguSZYWOHDlSUQYo+vSnPx0rV64c8gsUa9asqToCGAAAxiOz4W9ExPOPPRZduZwQGAAAEu94xzvSKmAMnn/++bQKICJiyNC33BVXXJFWAQDAuGQ2/L32nntKUz0XQ+CuXC7tBgAAZ6V0tGI6DTQA0Hjf/e53K8o+jwEAGK8JDX8HBgrR338ijvT1x88OH4tXf3a0rlt//4nSz9rR2VkKe29Yty7aCgXr/gIAZExfX19s27Yt7r333lizZk3F+rarVq2Ke++9d1LXzhvqvq1ZsybWr18/qVMtf/vb364ov//9768oD6X4mFpaWkqPp6WlJe69997Ytm1b2r1CT09PxfPQ09NTatu2bVt0dHQMus2Rfn+NuM3UWB7z7t27S31XrFhR0Zbe54ULF476PpUr/1kLFy6Mjo6Oirb0vnd0dAx5v1P1eI+lj7f4O+rr64vNmzdX3O6qVauip6cn+vr60pupy++z+DPLb6f4c9evXz+q25oIe/bsqbifCxcuTLtUSH9Hw/2NWbVqVcVzWS59fmp5Xnbv3h3r16+vuN2Fp19vmzdvrvo7HY+hfpfp67u8beEIz18Mc7v1eI0M9Roe6vdU/t4pf19Hld9RLY9tJPV67AcOHIgNGzYMup2Wlpbo6OgY8j0+WkPd3/Q1UIuh/k6lhnrOd+7cWXr/tbS0xJ49eyquN5Senp6KdcM7OjpqGi0MAADDmZDwd2CgEEePHo/DR45F//GTcerUQBQmIIhdunFjtBUKce0996RNAACc4Xp6emLFihWxevXqePDBB2PLli0V7Tt37owHH3wwVqxYEffee29dTjTXaufOnbFq1aoh79uWLVuiu7s7Vq1aFWvWrKn5JHG97NmzJ7q7u0vl5ubm+K3f+q2KPqk9e/bEmjVrSo+p/GR1b29vPPjgg7F69epYs2bNqJ7rvr6+0u2Wn2wv3uaKFSti/fr1FdcZSb1us1GPeaKsX78+VqxYMei+9/T01HS/G/ke27NnT7S3t0dra2vF7e7cuTM6Ojriox/9aOl9Ucvvc6igptzOnTtjxYoV0draOqj/zp07o7u7u+bXxkS57LLLBo0CHCqA6+vrG/Q7euaZZyrKRQcOHKgIHNPwdzT6+vri3nvvjRUrVkR3d/egILOnpydaW1tjxYoVdftbN9zvsvj6vvfeeyvqazHc7Y7nNTLSa7gYrk6mejz2vr6+WL9+fVx//fWxdu3aQbfT29sbPT090dHRUfE3aSz27Nkz5P0tvgY6OjpG9XdprLZt2xarVq0qvf96e3vj6NGjabdBil8GKFq8eHH8L//L/1LRBwAAxqLh4e/xEyfj8JFjceLkqbSpoa6955648rbb0moAADJiNCePH3zwwfh//p//J61uiOJJ4DQAGcqWLVviIx/5SN1CkeEcOHAgenp64iMf+UhF/Wc+85mYP39+RV25PXv2xEc+8pFBwVI1W7Zsifb29ppPuLe3t494u9UCpeHU4zYb+ZgnwoYNGyoC/mq2bNky7PuiUe+xw4cPx3333Tfsc7tz58647777Imr8fXZ0dAwZikbZ+7KWx9Pd3T1swDXR0lH5u3btqigX7dixI60aNJ1s0f/8n/+zonz99ddXlGvV19cX7e3t8eCDD6ZNg/T29tblb13xyzUj/S4ffPDB2LBhQ1o9pEa+Rmp5DXd3d496tGq91Ouxt7e3j/h3px727NkTN91004j3t6enp+a/S2N14MCBWL16dVo9om3btlVcr7m5Oe677z6jfgEAqIuGhr/9/Sfi2LF/nop5IvVu3RpduVw80dYWm5YvL+0DADBxeqpMbzvctiKZHrcWK1eujAceeCC++c1vxu7du+Opp56Khx9+eNBItrVr18aBAwcq6upt586dg04CL168ODo6OmLTpk2xadOmeOCBB6K1tbWiT29vb3zyk5+se3i4YsWKiuf3+uuvrwj0Vq5cGd/85jdjyZIl6VVLDhw4EB/5yEcqTrK3traWnu/du3cPer63bNlSUxj0xS9+MbZs2RKLFy+O7u7u0nOUPj8REevWrUurqqrHbdbjMTc3N5d+dhqGtLS0lNqKWzq6czy++93vxtq1a6O5ubnitVesK1fL+6Le77Evf/nLsWXLlli5cmU8/PDDpecovW9btmyJjo6O2LJlSzQ3N8fatWtj06ZN8fDDD8cdd9xR0Tci4mtf+1paFVHlfVm8rSeffLL0eB544IGKnz9cEDdv3ry0qqHe+ta3VpSrhbwREd/73vfSqtiyZUvVvytp33/xL/5FRblWaahZ/J0W3yff/OY3K35Xxb91Y9XX1xef+MQn0upobW0tvZYefvjh0vt97dq1adeq6v0aKVf8m9Tc3Fz6mzTUa/hP//RPK8o33njjkH/DWltbB/0dGYt6PfZt27ZVvBbS2ym+Hh544IFYuXJlxXVHo6+vb9AXmKIOr4Gx+su//Mu0akRp8NvS0hJf+tKX4rLLLqvoBwAAY9Ww8Pf4iZPRf/xkWj1h9j31VEREPN3dHc8/9lgs3bgxnj590uXUqYGkNwAAZ5rFixeXAq0lS5aUTpo2NTXF4sWLY926dYPCpKFCk3qoFkq0tLTEn/3Zn8WHPvShUgC7ZMmSWLNmzaAT9Tt37oxvfOMbFXWN1NzcHNdee21aPcj/9X/9XxUhaHd3d6xZs6biJHW157u7u3vEILC3t7f0HC1durT0HK1Zs2bQCfudO3eOeHtRp9usx2Nuamoq/ezLL7+81Cci4rzzzhv0xYdqo73KX6+LFy+uaBtOb29vNDc3x5e+9KWK197KlSurjthLR4EWNeo91tvbGytXroy1a9fG4sWLY+HChbF06dL4yle+Muj2itO5rl+/PlauXBkLFy6MxYsXx6c+9alB4Vm1LxxUe19+6UtfipUrV5ZGuzc1NcWSJUsGPTdpEFc03Cj5Rkjfp+kUt0Xbt2+POP3eLvfss89WlKOsb5z+OzWWx9TT01MR9t1xxx2l32nRZZddFp/61Kcqwr6dO3cOCg5r9Y1vfKPivdl8+ksWa9asKb2WFi9eHGvWrIkHHnig4rpDacRrpFzxb9KmTZtKf5OKr+E00E3/Js2fP7/0/r344osr+l588cWD/o6MVj0f+5NPPllR/uAHP1hxO3H69bBkyZJYu3btmO5vNOg1MB5f+9rXSsH+U089Vfpy0Jw5c9KuEVXC9paWlli3bp3gFwCAumpI+DswUJi0Eb/llm7cGLdu2RJXt7bGL7z3vaX6kydPxcBA49ccBgCgcf7sz/5s2JPHTU1N8cEPfrCi7vDhwxXletqxY0fFCeliOFYt1IuIWLhw4aAw8qtf/WpFuZF6e3ujo6MjbrrppiHXay1OE120cuXKWLp0aUWfomrPdy1B4Gc/+9mqz9H73ve+tCoOHjyYVlU1ntuciMdci76+voope2+44YaK9pF85jOfqRomLFy4cNCI3X379lWUixr5HvvX//pfp1Uxf/78QbcXp0f0Vbsf6Sj7OD0dbLn0fbl27dqqz0tUeW527tw56PaKyvs1+n3b1NQ0aKRkOsX1nj17StOYt7S0VPRP1/1N1/v95V/+5Yr2WpU/7ubm5kFBZrnf+I3fqCinQWGtvvjFL1aU29vbq742IqIUMo6kUa+Rcq2trVX/JlVbaz39m9RI9Xzsr776amk/IuKcc86pKNdLI14D49Hb2xvr16+PpUuXln7Hixcvrvo8pmH7SP8nAADAWDUk/O3vn/zgNyJi8+23xyMtLfF0d3fcv2BBRdtUuY8AAFnW3NwcK1eurHlLQ6nh1HKyND35/JOf/KSiXE9pmPHhD394xPuYhpHpqK/xKp/2uDiCs6OjY9Ao0gcffLDqmrVpkHnjjTdWlFOLFi2qKP/DP/xDRTl1xx13DDnisFrgNdRap+XGe5uNfsy1OHDgQLS3t5dCmebm5vi1X/u1tNuQmpubh53KOw370sdcNNLrN8b4HluZjAYslz6fMURAFkOMwD169GhFOX1fvu1tb6sop6677rqK8g9/+MOKctFHP/rR0v7OnTtj/fr1dX3vptLXYfq6LR+9fc0111SEYem6v+lI75Gek2rKw+Y4HTgP93q58sorK8p/93d/V1GuxZ49ewaN+BzqixlF6fNWTaNeI0UtLS1DhpPz588f1edevdXzsacj1L/4xS+OeYT3UBr1GhiPob6cUk0atre3tw/7vgEAgLGqe/g7MFCIEydPpdUT7tp77om2QmHQVnTC6F8AgIa77rrrYu3atTVvw40cG04xiOjp6YkNGzZER0dHrFq1Kjo6Oir6vfjiixXlekrDjHSq32qqhZH1HPV1+eWXx8KyKUFXrlwZH/rQh+Lhhx8etA7tli1bBk07/dTppVSKiie5h9pWrVpV0X+k5/tNb3pTWjVu473NRj/mkezevTuuv/760nS6ixcvHvVakGlAUw/1fI+lIVG5uXPnplVVQ96i9P2TKp+WOCLipptuGvQ7LN/SUYJDjYpevHhxPPzww6UvUnR3d8f1118/aERuvaRr8qaB/RNPPFHav/baa+Md73hHqZyu+1u+3u9QIxRHkgbIDz744KDnsny75pprKvqXB8e1SkPWWl7nw712ihr1Gika6X6ed955FeUXXnihotxI9XzsN954Y8WU4729vbF69epYtWpVbNiwoaYR0iNp1GtgPN75znemVUNKXyvpF7EAAKBe6h7+njgxeev8jtaZdF8BAKh04MCBWL9+fbS0tMRNN91UCqLWrl0bPT09YwoXxiP9eQtrHAk0WZYuXTpozdR0+tp0Gs+zwVR6zIsXL46PfexjYwrn6mGqvcfGonyUXb1deeWV8eEPfzitbojLLrusIigqn5q8r6+vVF68eHFpndhy5ev+lq/3O9rpxItqnd67ntLgbLgvEYxGI18jUWV0/Egm8rmt52OfP39+fOlLXxq05vTOnTtj7dq1cdNNN0VHR8e4viDRqNfAeKSj2kejkbMFAABwdqt7+Hvy1EBaNWl6t26NrlwuunK52NHZmTZPqfsKAEDtdu7cGR/4wAeiu7t7yJPXK1euNKpmBO9973sryvWedprRmzdvXimU37lzZ6xevXrQ6NqJ4D02vL6+vmhvb6+YreCOO+6IefPmVfSrp5tvvrmiXAzRyoPd8j7lo6KL6/729fVVhPajGbUII7nssstKSwykIXCc/tLCihUrYsOGDWnTGWs00zZfddVVFeV0BD8AANRL3cPfqTKVcu/WrfFI2do529vbBwXAU+W+AgBQu76+vvjEJz5REUi1trbGAw88EJs2bYrdu3fH7t27Y+3atfEbv/EbFdedSPWY4rLRqk2xO9y00w8//HDp+a1lS6cIPRNN9GOeP39+fOpTn4oHHnigVNfT01Mx0rPRzpT32Fg89dRTg35nw21DTSvd3d1dmjK3ubk5vvnNb8anPvWphk4xm66HXFz399vf/naprrxP+VqnxXV/y4PiGOeoxXLFEZ2j2cbrBz/4QVpVF/V6jZyJ6vHYi8sZbNq0KR544IFBM0xERKxduzY2b96cVo9ao14DjbJw4cKK52+k9YoBAGCs6h7+FsrW1Z1M+06v1VVc6/eGdetie3t7RZ+pcl8BAKjdtm3bKkKptWvXxpo1a2LJkiWDpjqdSOlJ8HRNzGrKp2stqjZaqlHSKTTj9MjTonRKzeLowSybKo95yZIl0VL2Zdb/+l//a0V7I03V99hYpO/LNPwcqwcffLC0//73v39CpuZOR1kXRw0Wp3Fubm6u6FO+TnBx3d/y1/Mdd9wxqlGL5dIRjMVwuZEWLFhQUU7XWa+mlqnJG/UaORM08rE3NTXFkiVL4lOf+lQ8+eSTFX/PIiL+/M//vKJciyuuuKKiXK/XAAAAZE3dw9+p5OqyKbgWXHNNRRsAAGemp05/ya8oDSHKTeSUiuWj7OL0ie2+vr6KutQ3vvGNinJLS8uYw5ixSH9+c3NzxcjF9ET7l7/85REf05luIh7zoUOH0qqqrrvuutJ+cZTpRJiq77GxSMPqdF3rsUhfDxdffHFFuZHKR1H29PTEgQMHSuFWGq5ddtllFV8mefbZZytC2mvGcYycfklly5YtsbsOo3mHUx5mx+lQb6SfWcvvuxGvkYlQj7WBJ+qxz58/P9atW1dRN5ZQNv2SRS2vgb/6q79KqwAAIPOmXPj7/A/3x1d6vhNtn3woPnz3A/Hhux+IL9y/JXb83Q/TriN6uru7tOZv+RTQAACcuV599dWK8gsvvFBRLtq2bdugUbWNdO2111YEIjt37ozu7u5BQVHR7t2744tf/GJF3Qc+8IGKciNt2LBh0PPz/ve/v6K8ePHiipGEvb290d7ePuRjKtq8eXNdpvScDBPxmIujMEdyzjnnpFUTYqq+x8Zi2bJlFeWenp5Yv359RV2qr68vNmzYMGSoNNQayBPh+uuvryiXTw+etkXynn7mmWcqvkSQjnIfjaampor1jiMi1qxZM+J097t37x7x+R/K/PnzB41+Hu5nrl+/vqbXZyNeIxOhHqOt6/nYN2zYMOTvol7mz58/6EsOw70Genp6KkbpTwUbNmyIlpaWaGlpqfkzAwAARmtKhb9f6flOfPbe/xKPb3kmDr16tFS/46kX4gv/8Zvx6f+jJ471H6+4zlCuveee0pTP5RsAAGe2NLBYt25d9PT0xJ49e6Kvr68ULqxevbqiX6PNnz8/7r777oq6Bx98MD760Y9GT09PaY2/nTt3xvr162PFihUVIdLKlStjyZIlFdcfrxdeeKFifcFiWLdq1apBa9M2NzdXXZvxYx/7WEV5y5YtsWLFitJjOnDgQBw4cCB2795duu3W1ta6jEqbLPV+zOVTaRe1t7eXRq0Vb3eqmKrvsbGYP3/+oJCyu7s7Vq1aFdu2bYvdu3dHX19f7NmzJ3bu3BkbNmyIFStWDHp/jFVHR0csXLiwtB04cCDtMirp6NfyaW/TtoiIt771raX9L3/5y6X9xYsXj3t94t/6rd+qKPf29sZNN90U69evj927d1e8XjZv3hwdHR2xYsWKePHFFyuuNxrtyVJOvb298ZGPfKQURhb/znV0dER3d/egsLiayX6N1Cqd9nrLli1x7733lh73vffeW9Fei3o+9t27d5d+/zt37ix9waWvry927tw56HeXTjldq49+9KMV5eFeAx0dHTW9BibKtm3bYu3atdHb2xu9vb3R2to6pf72AwCQHVMm/P1Kz3fi8S0/X3/oX12/MD7zqV+PP//i6vgPn//tuO033xnnnTsnfrT35fh3f/z/1hwAAwCQPen0yr29vdHR0RE33XRTXHPNNbFixYro7u6O5ubm6OjoqOjbaCtXrhx0In3nzp2l0GPFihWxatWq6O7urujT0tISn/70pyvq6qG1tbX0c1esWBGrV6+Ojo6OQdNtNjc3x5e+9KWqU04vWbJk0GMqPucrVqyI66+/Pq6//vpYsWJF1ds+E9X7MVcbsbhly5ZYtWpV6Tamkqn8HhuLO+64Y9BowZ07d8bq1atjxYoVcc0118RNN91U+lJEPUf2lo/ObGlpGXfgmo58LL72hrrt8kC4/HHdfPPNpf2xmj9/fsXI46Lu7u5YsWJFxeultbW1plG4I1m8eHHV9+batWsr/s4Vf9Z9991X0Xcok/kaqVW1cP/BBx8sPe6xjnCt92MvhsfXXHNNLFy4MK655ppYtWpVxajz5ubm+N3f/d2K69WqUa+BibBv3760Knbt2pVWAQDAuE2J8Pf5H+4vBb+3/eY74yO3L4krfuHCiIi44PymuOk9vxSf+tfLSgHwX239++QWBtvR2RlPtLXFsw89FJuWL4/erVujK5dLuwEAcIYZKnAoVwwzJ2Pa3DVr1pSCsVp0dHTEunXrqgavE2HlypXxla98ZdBaiuXWrFlTdaTXUBYvXjzsOrFngno/5vvuu6/m18Rkm+rvsdFqamqKdevWVR3ZPpSVK1dWHbE9Gnv27KkIyn75l3+5on2syteCHq4uhvjiQUTEO97xjrRqTJYsWRIPP/xwza/t5ubmQV8uGK01a9YMCv9Szc3N8fDDDw/7d63cZL1GRqOW9+VYTPRjX7x4cXzpS1+q+XdTTSNeAxMhHb0dI6ypDgAAYzUlwt/v/O0/RUTEtddcHkve9aa0OSIiLrno/Fh+89UREbH1ie+nzQAAnEWWLFkSTz75ZLS2tlYEGy0tLbF27drYtGnTpJ7wXbp0aWzatCm6u7tj5cqVg4KRlStXxtq1a+PJJ5+MD33oQxMe/K5cuTI6Ojrim9/8Zqxdu7bqiMHUypUr48knnyw9plRx1PPDDz8cDz/8cCxcuDDtcsap52O+7LLL4itf+cqg12xxFNtYg5RGmervsdFqamqKT33qU/HNb34zOjo6Bo10bG5uHtP7Yjg//OEPK8pve9vbKspj9Z73vCetGjbMTUf5Njc3D/taHa3FixfHpk2b4oEHHog77rhj0N+7lpaWuOOOO+KBBx6ITZs2xdKlSyvax2LNmjWxadOmQT+vpaUlOjo6YtOmTbF48eKa1tYumozXyGgtWbJk2Mc9VvV47J/+9Keju7s77rjjjkFfOGhpaYnW1tZ44IEH6hbIjvQa+MpXvjLofky2JUuWREdHRzQ3N0dzc3OsXbu2ru9FAAAoyhUK9V0I99Wf/fNavbVq++RDcejVo7H6Q/8qbnjHm9Pmkpdf6Yv/7Q//IiIiPv9vfyMuuej8ivZZM6fHrFkzIk6P/N2erCkTEdFWKER//4noP34yIiLOfc2ctMuo7N27N3K5XOTz+cjn81X3c7lc1S0iSpdFaRkAADg79fT0VAQ61oacGnbv3h0rVqwolR944IGq63Vv2LChNHp88eLF8fDDD6ddaLD0d9XS0hLr16+v6AMAAJA1U2Lk76FXfx4Yz7tg+CnDLjj/n0dEvPJK7d/gvbq1NdoKhWirb84NAAAwYQ4cOJBWMQmOHDlSUa42lWsk6/2mo2+ZGP/9v//3inI6KhkAACCLpkT4e965Px99e/Dlw2lThZfLAt/Zs38+wnco195zT9y6ZUtERDzd3R1duZw1fwEAgDPGFVdcUVH+y7/8y4oyE6+vry/+7M/+rKJuqCm7t5w+Ho2IWLRoUUUbjXfgwIH48pe/XFF3/fXXV5QBAACyaEqEv++87o0REbH9Wz9Imyr87VPPR5wOiy+5+Ly0eZB/2rQprQIAADgjLF68uGLNyu7u7li1alVs2LChoh8To6OjI1asWFER6q5cuXLQ2qeRTNHd3Nw85dYePZPde++9I46C37NnT3zmM5+J3t7eUl1zc3Nce+21Ff0AAACyaEqEv2//l2+IiIhnf/Dj2P7fn0ubIyLixy+9Eo8+/nRERPzKjW+J2bNmpl0q7OjsjKe7uyMi4tYtW0z7DAAAnHHuu+++iqlqd+7cae3fSdLT01MRJra0tMSnP/3pij5FL7zwQmm/paWloo3xefDBB+P666+PNWvWRE9PT+zevbu0bdu2LdavXx833XRTRUgfEdHe3h5NTf+8lBQAAEBW5QqF+iair/7s5+v3jtZXer4Tj295JiIi/tX1C+N9Ny2KSy46P15+pS/+9qnn49HHn45Drx6N17/ugviD33tfxfq/RbNmTo9Zs34+HfSOzs7Y3t5e0X77M8/EvKuuiv7+E9F//GRERJz7mp9POT1We/fujVwuF/l8PvL5fNX9XC5XdYuI0mVRWgYAAM5ufX19sW3btnjiiSeip6cnVq5cGWvXrk270WALFy6M5ubmaGlpieuvvz6WLFmSdmECLFy4MK0aUWtra6xZsyatBgAAyKQpE/5GEgBXc+WbLolnf/DjiIhY/aF/FTe8480V7eXhb+qJtrZ4urs72goF4S8AAACcgUYT/jY3N8cf//Efm3YbAAA4q0yp8Dci4vkf7o/v/O0/xa7v/yh+tPfliIi49prL411vf1P80pWXxP+9/ptDBsAjjfyNCOEvAAAAnKH6+vpix44d8b3vfS9efPHF6OnpqWhvaWmJt7zlLfHWt77V6GwAAOCsNOXC35Ec6z8+ZABcLfy9c9++mHPhhRW3IfwFAAAAAAAAsiafVkx1s2fNjN9fc1Nc+aZLIiLigQ3/Lbb/9+fSbnHtPffErVu2xP0LFkRXLhdPtLWlXQAAAAAAAAAy44wLf6PGALh369Z4pKWlVH66u1sADAAAAAAAAGTWGRn+RhIAn3funLj0kgsq2vc99VRcsWxZtBUK0VYoxNKNG+Pp7u6KPgAAAAAAAABZccaGv3E6AL7rI++J3//Ye+OKX6hc1xcAAAAAAADgbJIrFAqFtHI8Xv3Z0bRqwsyaOT1mzZoREREHd+2KjYsWVbTfsG5dXHvPPdHffyL6j5+MiIhzXzOnos9o7d27N3K5XOTz+cjn81X3c7lc1S0iSpdFaRkAAAAAAACgFmf0yN/hzLvqqmgry7WXbtwY195zT0UfAAAAAAAAgKyoe/g71UauFtf8nXvxxdFllC0AAAAAAACQUXUPf/P5MydQPZPuKwAAAAAAAMBw6h7+Tp9W95sckx2dndGVy5W2R1pa0i5T5r4CAAAAAAAAjFeuUChbGLcOBgYKcfjIsbR6QsyaOT1mzZqRVg/S338i+o+fjHPmzh736N+9e/dGLpeLfD4f+Xy+6n4ul6u6RZWpp9MyAAAAAAAAQC3qPvQ1n8/FjOnT0uoJt6OzM55oa4uDu3YNWus3ImLG9GnjDn4BAAAAAAAApoq6h78RUdPo28l2JtxHAAAAAAAAgFo1JPzN53Mxe/bkh6tPd3fHxkWLIiJKa/9GREw36hcAAAAAAADImLqv+VuuuLbuRKl1zd96suYvAAAAAAAAMBU0ZORv0axZMyZtBHBxrd+uXC6O7t9fMfIXAAAAAAAAIGsaGv5GRMycMT3OmTs7ZkyfljY11AuPP17av3/Bgoo2AAAAAAAAgKxpePgbp9cAnjNnZpwzd3bMmjk9pk37+VTIjXbDunVx5759ERFx57590da4Ga4BAAAAAAAAJlVD1/ydTDs6O2N7e3taXfcA2Jq/AAAAAAAAwFSQ2fB3ogh/AQAAAAAAgKlgQqZ9BgAAAAAAAKCxMhv+7ujsjCfa2uLZhx6KTcuXR+/WrdFlVC0AAAAAAACQUZkNfwEAAAAAAADOJpld83dHZ2dsb29Pq6Otzg/Xmr8AAAAAAADAVJDZ8Pfgrl0x76qr0uq6E/4CkDUZ/dcAAAAgs5xTBACKMjvt8wuPPx5duVx05XLxRFtb2gwAZ61CoTDsBgAAwJklPa5LNwDg7JHZkb9xevTvxkWLKupM+wzA2STDH/MAAACMkXOQAJBdmR35GxEx76qr6h72AsBU59vdAAAADMfIYADIrsyO/N3R2Rnb29tL5SuWLYsVjz5a0acejPwFYCpo9Md5o28fAACAkTX63GGjbx8AaLxMh7+He3vjxq6utKmuhL8ATKbxfIyP57oAAABMfeM51zie6wIAkyez0z5fe8898YYVK6Irl4uuXC6eaGtLuwDAGWssU3OZ1gsAAODsMp7jwNH2BwCmhsyO/O3dujUeaWmpqLu6tbXuI4GN/AVgotX60V1rvxhlXwAAAKau0ZxfbFRfAGDyZHbk776nnoorli2LtkIh2gqFWLpxYzzd3Z12A4AzRi3f1K7lG93pN7+H6wsAAMCZJT3eG+6Yr5Y+RbX0AQAmX2ZH/u7o7IwX/+ZvYsWjj0ZExLMPPRSbb7892ur8cI38BWAijPRxPVz7cG3lau0HAADA1FXL+cXh+gzXFjW0AwCTK7Ph78Fdu2LjokUVdTesWxfX3nNPRd14CX8BaKSRPqaHah+qPkZoK1drPwAAACZHrecSh+s3VNtQ9UUjtQMAkyOz4W9R1+l/QpZu3BhX3nZb2jxuwl8AGmW4j+ih2upVP5TR9gcAAKB+RnvusFr/anUxhvqikdoBgImV+fC30YS/ADTCcB/P1dpqqUvLRUPV12q81wcAAOCf1eP84FC3kdan5dHUlRupHQCYOJkNf3d0dsbh3t64sasrbaor4S8A9TbUR3O1+rRutOWioeprMZ7rAgAAUGm85weHun5aP9ryUHVFw7UBABNH+DtOwl8A6mmoj+Vq9eV1aXstbQMDA3Hy5MkoFAoxMDAwqB8AAABnlvLzkdOnT498Pl+qT/uNtD9UXVouN1wbADAxMh3+bm9vT6ujrc4PV/gLQL0M9ZGc1g9XHm7/5MmTceLEiThx4kScOnUqcrlczJgxI6ZNmxbTpk2r+HwCAADgzFIoFKJQKMSpU6fi1KlTceLEiSgUCjFt2rSYMWNGzJgxI6ZPn15x3FfLfi3lcsO1AQCNl+nw18hfAM4UQ30cp/VpoJvup3WFQiH6+/vj2LFjERExZ86cmDNnTsyePbv0DXAAAACyaWBgII4dOxZHjx6No0ePRkTE7NmzY9asWUOeo6xlv1q53HBtAEBjOesLAJMsDXiLddWC3PJyWl9+OTAwEH19ffHyyy9HoVCICy+8MF7/+tfHvHnzoqmpSfALAABwFsjn89HU1BTz5s2L17/+9XHhhRdGoVCIl19+Ofr6+kpLAKXHlulxZlqftqWGawMAGivTI39N+wzAVFftYzitG+rgOj0YL14Wv9E9d+7cOO+882L69Oml6wAAAMDJkyfj0KFDceTIkdIMUVF2bjK9rHU/NVwbANAYhv0AwCRJQ95qdUOFvWngWygU4sSJE3Ho0KE4depUXHLJJTFv3jzBLwAAAINMnz495s2bF5dcckmcOnUqDh06FCdPnqx6rJnWDbcPAEy+zI78LXr2oYfiuYcfjhWPPpo21YWRvwCMxVAfv0MdQKcH2+nlsWPH4siRI3HBBRfEueeeW7oeAAAAjOTVV1+Nl19+OebOnRuzZ8+OqDL6N70cbr/cUPUAQGMY+QsAU0S1sLd8f6jLvr6+6O/vj4svvljwCwAAwKide+65cfHFF0d/f3/09fVFVDn2TC+H2wcAJk9mR/5a8xeAqaraR+9QB8zpwXX5ZaFQiCNHjkShUIiLLroo8nnf6QIAAGDsBgYG4qWXXopcLhdz586teh4zvRxuf7g6AKAxMhv+ThThLwCjUe1jt1rYW75f7bJQKERfX18p+PX5AQAAQD0UCoVSANzU1FT1XGZ6Odz+cHUAQP0ZIgQAE6Ra8DuUoQLf4nbs2LE4depULFiwwAE0AAAAdZPL5WLBggVx6tSpOHbs2KDj0ahyzAoATB2ZDX93dHbGpuXLo3fr1ujK5UobAEwl5QfK6cFzelncP378eBw7diwWLFhgqmcAAADqLp/Px4IFC+LYsWNx/PjxQcelw12m+8PVAQD1l9kzxod7e+PSd787IiKuWLYsbn/mmYiIOLp/f9ITABqv2kHucAfG6cFz4fQ3rAcGBuLo0aMxb968mD59esV1AAAAoF6mT58e8+bNi6NHj8bAwEDpuDSqHMMWDXecO1QdAFBfmV3zd0dnZ2xvb4+20w/v2Yceis23314q14s1fwGoRbWP22oHxWnYm+4fOXIkZsyYEfPmzStddyIUTo84PnnyZAwMDMTAwEDE6W+D5/P5mD59esycOdPnGAAA0DBZPy7p7z8RL+w5GC/tPxSvHOqLY8dORETE7Nkz4vzzmuKiC8+Lyy+bF7NmzUiv2lAHDx6MEydOxNy5cyNOn7+sdn4zvUz3h6sDAOons+Hv0f374/4FCyrqrm5tjRu7uirqxkv4C8BIqn3UjhT8Fi/Lg9/jx4/H0aNH4/Wvf33puo10/Pjx6Ovri76+vjh58mTMmDGj9BlXrnjS5cSJEzF9+vRoamqKpqammDlzZkU/AACA0cr6cck/Pr8vvvO3/xhPP9Mb//BPL6XNVb3xDRfF1Yua4+3/8hfjF6+oPP/ZKD/60Y9izpw5pedzqHOc6WW6X60MANRXZsPfouI6vzesWxfX3nNP2jxuwl8ARlLtozYNetO68tC3uP+zn/0szjvvvDjnnHNK12mEI0eOxKuvvhoDAwMxa9as0rfna1H8Fn5/f3/k8/k499xzS98OBwAAqFXWj0v+27d2x+Nbnolnn/tx2jQqV775kri5ZVH8q3ctTJvq6vDhw3Ho0KF4zWteM+jc5lD7RdXOd1arAwDqI/Phb6MJfwEYTrWP2aEC3+Jlul84PbXZ8ePH43Wve13puvV29OjReOWVVyIiYvbs2TFr1qy0y6gURypHRJx//vkxZ86ctAsAAECFrB+X7Hz6hfjKI9+teZRvrd74hoviA7deF4uvvjxtqpu9e/fGzJkzS1Nrp+c40/Od5ec503OeaRkAqJ/Mhr/FNX9T1vwFYCJV+5hNA9/ifrXQt1j+2c9+Fueff37Dvq3+05/+NI4ePRpNTU3jPrmS6u/vj76+vpgzZ0689rWvTZsBAAAizoLjkvv//G/i8S3PpNV1dXPLorjzw+9Oq+viyJEj8corr5RG/0ZZ6JuWi4Y6BzpUHQAwfpkNfyeK8BeAoVT7iE0D3/QyDX0LhUKcPHkyjhw5Es3NzaXr1suJEyfiwIEDMW3atJg7d25DP4cOHz4cp06divnz58eMGTPSZgAA4CyV9eOSF/e+HF3/8Zt1H+07lDe+4aJo+92b4tLXXZA2jVtvb2/MnTs3pk+fXvU8Z3rOs/x3mf5e0zIAUB/5tCIrDu7aFV25XHTlcnF0//7SPgBMBWkwXK1c3I4fP96QEb/9/f3x0ksvxYwZM+Kcc85p+IH3OeecEzNmzIiXXnop+vv702YAAOAslPXjkt0/+En872sfmbDgNyLiH/7ppfjf1z4Su3/wk7Rp3ObOnRsnTpwolcu/wFws12o0fQGA2mU2/H3h8cdL+/cvWFDRBgCTodqBbS0HySdPnqx7+Hv8+PHYt29fzJ07N5qamtLmhmlqaoqmpqbYt29fHD9+PG0GAADOIlk/LvnH5/fF//nv/9945ZW+tKnhXnmlL/7Pf///xj8+vy9tGpdi+JuGvjHE8W3aBwBovMyGvxERN6xbF3fu+/k/OHfu21f39X4BoB7SA+TybWBgIAqFQl3Xuzp16lTpBEs9b7dWs2fPjrlz58a+ffvi1KlTaTMAAHAWyPpxySuH+uLff+HxOHz4WNo0YQ4fPhb//guPxyuH6hc+z5o1a1Dwm5aHUksfAGD8Mh3+bm9vL436vX/BAtM+AzBhhjuordZWrS5Oj/qdOXNmWj0uBw8ejFmzZsXs2bPTpgkze/bsmDVrVhw8eDBtAgAAzgJZPy754p/91/jJvkNp9YT7yb5D8cU/+69p9bjMnDlz2NG/ad1wRtMXAKhNruATdlz27t0buVwu8vl85PP5qvu5XK7qFhGD1jFJywCcmap9vBbrql2Wb+V1fX190dTUFOedd17ZLY3dz372szhy5Eice+65adOkePXVV2Pu3Lnxmte8Jm0CAAAyKuvHJf/l/3sqNvzF9rR6Un3ot2+IX//Va9LqMTl06FAcPXo05syZU/VcZ1qudlmuWh0AMHaZHvkLAFNFtTA4hqhPw+AZM2akXcbk1KlT8fLLL9d9/eDxmDt3brz88ssNmWYNAACYerJ+XHLwp4fjof/87bR60j30n78dB396OK0ekxkzZpSWKEq/yDySWvsBAGMn/AWACVTtQLdaXdHAwEDdwt9Dhw5FU1NTTJs2LW2aNNOmTYumpqY4dGjyp0MDAAAaL+vHJT2b/jZOnhx/iFxvJ0+eip5Nf5tWj0kx/B3OcMe5qdH0BQBGJvwFgDqr5cA17ZN+U7r829P1OCly6tSpOHz48KSupzWU2bNnx+HDh+vyLXsAAGDqqudxyde+9rX4xCc+ER//+Meju7s7jh07lnYZlXoclxz86eF4fMszafWU8fiWZ+oy+nfatGlVR/wOVVd+CQA0nvAXABpsNAe51Q6U67H+UfEESz4/9T768/l86UQLAACQXfU6Lvna174WW7dujYiIefPmxXPPPRef//zn026jUo/jkq1PfD+tGtIHP3B9/OG/Xh5Xv/WytKmhRnMfh5LL5QYdt47muBcAaKzx/acFAIxZLQfH9Qp/jxw5ErNmzUqrp4xZs2bFkSNH0moAACBD6nVc8u1v/3xN3ba2tvjsZz8b8+bNi4MHD8Y//MM/pF1HZbzHJdu//VxaNaT3L18cb1t8RfzRJ349vrDu9rj1165NuzTEaO7jUNLwdyhD9RmqHgCoD+EvAEyQage41eqizt+cPn78eBQKhbqtHRwR8fGPfzw+/vGPxzPP1GdKsxkzZkShUIjjx4+nTQAAQAbU87ikr68v4vSo3/LLo0ePVvQbrfEcl7yw50D8aO/LaXVNLr3kgrj9t94VD/7p6vjfPrY0ba6rH+19OV7YcyCtHpPhjlmHawMAGkv4CwB1VMsBbtqnPOitZ+hbdOzYsbqcYGm0GTNmRH9/f1oNAABkQNaPS/7+2RfTqlE779w5seRdb46/fPBj8W//8JaGTQldj/taVO0YNi0DABNL+AsAU0SjDpCPHz8e06dPT6unnLGeZJkoS5feEt/61ndK5a9//dG4667Wij6NdtddrRX3oRHuv//BCX9cRd/61ndi6dJb4uDBn6ZNAACc4bJ+XPKP/7QvrRqzGTOmxVt/qblhU0LX874WFUPgase15V92BgAaT/gLABl3/PjxmDZtWlo95eTz+TFNr1bNc8/9IJYuvSWtjoiIgwd/KmDMuM997r5YuvSWITe/ewCAiZf145KxTvk8kkZMCd2o+woATA3CXwCYBLV847mWPrUYGBg4I06yTJs2LQYGBtJqJtidd94R/+k/dafVQ/r61x+Nz33uvrR6TN71rrfH5s1fj3nzXps2jcof/dEnY/Pmr8fmzV+Pu+9eHZdfflmpXI/bj9MB89e//mhaDQDAELJ+XHLgpz9Lq4Z16NXRrU9czymhR3tfh1KvY9ao820BwNlO+AsAU1A9D3wHBgYil8ul1VNOLpcb00kWAABg6sv6ccnhw6ObKrrrP/5VfO3RnfFX/3VXfO/ve+PZH/w49h/4WfT1DT/quB5TQo/2vg5npGPXkdoBgPrLFXwCj8vevXsjl8tFPp+PfD5fdT+Xy1Xd4vQ/lOXSMgBnlvRjtbxcvs5Rul++DQwMlPYPHz4cv/ALv1C6jbH44Q9/GBdeeGFaXZOPf/zjaVVN7rrrrli0aFFaPaL9+/eP+/HG6Wmff+/32mPz5q+nTXHw4E/jt3/7I/EXf/Gl0gjQYl259LpLl94Sn/nMH8a73vX2iNMjXr/xjb8aNEr2rrta44UX9pTK5dcZjeJjKPrMZ/4wNmx4KD70odsqbi/9eV/4wrp485vfVCp/61vfic9+9vOl8t13r45bblleKqc+97n74uKLF8Sdd95Rqkt/RvG5Sesvv/yyQc9Hqvw6af9qz2nxed+y5W/iySe/HRERK1f+esX9G0612ywa7r6k7XH6cVd7rYzm/gAAnK3qcVzS2dkZs2fPjk984hPR19cXf/iHfxiXXnppqfz7v//78cY3vjG6u7vjueeem9Djkltv/0JaNS4t735LXHLxBfH6110Qs2ZNj3mvPSdmzpgeF85/Tdo1nv/h/viDf/OVtHpYj2z8vbRqVH74wx/GOeecU/P5z2rnQtPzoGkZABgbI38BIONyudygUHoqKhQKk3awv23bt+ILX1hXmhZ45cpfH9NUxkuX3hLXXntN6Xb+4i++FJ/97OdHPT1wMfgtv0+7dn2/Iogs9nvf+95b6vOZz/xhRWD83HM/iM9+9vPxF3/xpVKf0frc5+6reEx337261Paf/lN33H336rj++nfG5s1fHxSeppYuvSU+9KHbSrd17bXX1PQ8f/azn48PfODW0nPa0/Nf4lvf+k7abVRGui9DPe55814bmzd/Pa6//p1x992rY/Pmrwt+AQBqMJ7jkubm5oiI+NGPfhQREe985zsjIuLzn/98fOYzn4m+vr5obm6O17/+9RX93vSmf/5SZK3GelwyffrUn9K6qN73day/VwCgMYS/ADBJqh0gV6sbr3w+P+bb/ZM/+ZOqW9Fdd901qO1P/uRPxvTt+kKhEPl8ff81Wbr0lkFbOmozIuKWW5ZXjJZ997tvKI0yrdXXv/5oXH75ZRVB4Lx5r43PfOYP4xvf+KuKviP5ylceiZUrf73iPlULGN/85jdVjOItjgh+7rkfRETEgQM/jcsvv6xijdvhRv1W8+KLL8ZVV72lVB7t9Yu+/vVHY+XKX68Ytbxy5a/Hk09+Ow4e/GlF39Tdd68uPRfz5r02Vq789di16/tpt5rVcl/q9bgBAPi58RyXvP3tP/+/7W/+5m8iIuL9739//Mqv/Eo0NTXFwYMH4+qrr47/9X/9X2P27Nnx3e9+N/r6+uLNb35zzJ49O7mlkY31uOScc2alVcO6+q2XxQc/cH387kfeE//2D2+JtZ/5jfhP//eHY+P9d8UjG38vPrb6V+L9yxfH2xZfEW/9pea49JILBo36ff6H++Nrj+4c9ajf0d5XAODMMvr/ZACAuilO71zcb4R8Ph+nTp1Kq6ecU6dOjekky3CKozbLt7/4iy+l3SJOB4LFgLh89Gytvve9v4/3ve+9aXXMn//aeOGFPSMGnOWefPLbFcFj0eWXX5ZWxXPP/aAi3C73rne9PV54YU8sXXrLqEcfF73vfe+Nz37284Nue7S+972/j56e/1I1iD948GDavcKCBYOnB/zJT/alVTWr5b7U63EDAPBz4zkuecc73hHz5s2Lp59+uiIA/uM//uP4kz/5k1i9enW89rWvjRdffDG++tWvRkTEr/7qrya3UpuxHpfMf+3g6ZiH0/a77433L18c7/3lq+Ktv9QcV77pkrhw/muiqWlm2rVCX9/x+N7f98afPrA1/uDffCW+/JUn0y4jGu19rUW149lqdQBA443+P5kzxI7Ozti0fHkc3b8/unK56Mrl4om2trQbAGTezJkzY2BgIK2eck6dOhUzZw5/oqNRli69Jb73vb8vBcRf+MK6tMuEmz//n0frDuVzn7uvtLZxcUsVA+8vfvGBWLr0llFPl3zLLctj8+mpsJcuvSXuuqs17VKzlSt/fVAYv3nz1ytGOE+Uke5LPR83AADjOy6ZPXt23HnnndHU1BRf/epXo7u7O1588cVS+09/+tP4xje+EZ///Oejr68vfuM3fiPe+MY3VtxGrcZ6XPL6112QVg3rvHPnpFXD2n/gZ7HtW89F5598I/7t578eW/5m7DPhjPa+AgBnlsyGv4d7e+PSd787vr9hQ0RE3LBuXTzd3R1H9+9PuwJAps2aNStOnDiRVk85J0+eHNNJlvEqTpH8R3/0yVLdgQO1j9Iteutbfym+972/T6urTr08kssvvyy+//3dFXUHD/500Jq/Tz757YqgeqjRxcV1au++e3Vs2PBQ2lyTO++8IzZv/nq88MKeUQfIEREXX7xgXKN162k092W8jxsAgJ8b73HJpZdeGm1tbdHc3BzPPfdcfP7zn4+Pf/zj8fGPfzz+6I/+KB577LFoamqK3/md34l3v/vd6dVrNtbjkl98w4K0qi6KUzvf9ft/Hv/hTzfH09+rPCYYi0bdVwBgashs+HvRddfF9vb22N7eHle3tsblN9+cdgGAs8J4T7JMlBMnToxpTa56KYbAERGf/eznK9pqccsty+PJJ78d99//YKnu4MGfxmc/+/n40IduK9V961vfGXEU6fve99744hcfqLhPHR3/tqJPUXlIvH79/6+i7etff7TiNvbt2x+XXnppRZ+RfO5z95X2i+Fy+ajkBQsurGl95OKauun00+W3P1FquS8jPe6LL15QNexPFaflLv4evvWt78TSpbeUbrM43TgAQNbV47jk0ksvjU9+8pNx1113xTvf+c5S/Zvf/Ob4nd/5nfjUpz4V1113XcV1RmusxyW/dOXo/s8eTj2mdh5OPe9rufIljYaa8nmoegCgfjIb/l55221xw7p1ccWyZXFjV1e88PjjccWyZTHnwsFrxgFAls2cOTNyudy4T7Q00okTJyKXy43pG/bj9eY3vynuvnt1/N7vtZfWfx3rtM+bN3+9Yi3Z3/7tj8QXvrAu3vWut5f67Nr1/aprA5e75Zblg+7T2rX/dtCav1/4wrrSdM5Ll94SH/jArRXtCxZcWHEbO3Y8VTHCuRYvvvhixeP5zGf+sGKa5ne96+1x+eWXjTg18rx5r62Yfnqo+zwRarkvIz3uYoC8dOktFYE/AADV1fO4ZNGiRXHbbf/8Bcv3vOc9cd1118VrX1v7bDvVjOe45PLL5o97OuV6Tu08lNe/7oK4/LL5aXVd5HK5qvvlhqoHAOonVzhLvm7Vu3VrPNLSEm11frh79+6NXC4X+Xw+8vl81f1cLld1iyr/8KRlAM4s6cdqeTn9FnT5FhExMDAwqP7IkSPR3Nw87s+HQ4cORX9/f5xzzjlp05Rw+PDhmDVrVpx33nlpU+bcdVdr/MEf/N6krHMLAACTqd7HJR//+McjIuKuu+6KRYsWpc2jNt7jkv/8te/GV3pqWyrkkY2/V9p//of74+lneus+wreaD6x8e/zm+8c3OrpQKERvb2/MnTu34lxneh40Tp/rTMtF6XFuWgYAxiazI38B4ExT7UA3l8sNCpTH4pxzzoljx47FwMBA2jTpBgYG4tixY3U7ATSVFaf6FfwCAHA2yvpxya/c+Ja0akhfe3Rn/I+dzzdsauehjOY+DqVQKFQ9fgUApobMjvzd0dkZ29vb02ojfwFoqPRjdaSRv2k5Hf179OjRuOiii2LGjBml2xmrn/70pzEwMBBNTU1p06Tq6+uLfD4/7inaAACAqS/rxyX3//nfxONbnkmrp4SbWxbFnR9+d1o9aidOnIiXXnop5syZUzrPWe0caBj5CwCTIrMjf6+9555oKxQGbQAwlaUHu7k6rYkVEXHeeedFX19fnDp1Km2aNKdOnYq+vr4xT6sGAACcWbJ+XLJyxb+M6dOnpdWTbvr0abFyxb9Mq8ekuDbySGrpAwDUX2bD3x2dnfFEW1s8+9BDsWn58ujdujW6/MMBwBRSy4FwPcPfadOmxQUXXBBHjhxJmybNkSNH4oILLohp06beyREAAKD+sn5cMu+158Rtv/nOtHrS3fab74x5rx37lNbl0vC3lmNbAGDiZDb8BYAzVfmBcz6fj2PHjlW0j8drXvOayOfzU+JEy5EjRyKfz8drXvOatAkAAMiwrB+X/PqvXhNvW3xFWj1p3rb4ivj1X70mrR6zY8eORT4/vtPKAmMAaJzxfUpPcU93d8fm22+P5x97LB5paUmbAaDhxnpAW7zetGnT4vjx42nzuMybNy/6+/vrGiqP1rFjx6K/vz/mzZuXNgEAAGeBrB+X3P3RX46LF4x/GunxunjBeXH3R385rR6X48ePl0ZJj3TMO1I7AFB/mQ1/3/KhDw1a7/f2Z55JuwHApKjlADiXy5X69ff3p81jNm3atFiwYEEcOXJkUk609Pf3x5EjR2LBggV1mVYNAAA482T9uOT885riD37v5jjnnNlp04Q555zZ8Qe/d3Ocf15T2jRmxWPT8uNVAGBqyWz4+/0NG6Irl4uDu3ZFRMSm5ctj46JFaTcAmNJyuVxMmzYtDh8+nDaNy8yZM2PBggXR19cXfX19aXPD9PX1lU6wzJw5M20GAADOIlk/LvnFKxbEv/mDX4vzz69f+Fqr889vin/zB78Wv3jFgrRpXA4fPhzTpk2re/Bb79sDgLNZZsPfy2++OSIiNi5aFF25XDz/2GNxdWtr2g0AJtxQB7VDfXN6+vTpDTkRMmvWrLjooovixIkTdQ+XU4VCIQ4fPhwnTpyIiy66KGbNmpV2AQAAzkLpcUmhUEi71M1kHJcsfNPF8X903BpvfMNFaVPDvPENF8X/0XFrLHzTxWnTuPX19cX06dPT6tLxbLVjWgBgYmU2/J131VUVYe8Vy5bFjV1dFX0AoN6GO9Adqi09QE775fP5yOVyceTIkYr6epgxY0ZccsklMX369Hj55ZfrOr10UX9/f7zyyisxffr0uOSSS2LGjBlpFwAA4CxWflzyyiuvZO645NLXXRB//LnfjJtbGj8r4c0ti+KPP/ebcenrLkibxu3IkSORy+Uin//nU8rp8Wy1uuJ+2g8AaIxcoZFfp5tEOzo7Y3t7e1yxbFm8edWq2Hz77RER0Vbnh7t3797SPz3Fk/PpfvEfnnSLKv/0pGUAzjzpR2t5ubhfKBQG7VfbBgYGolAoxMmTJ2NgYCBe97rXlW6r3o4ePRqvvPJKRETMmTNn3NOf9ff3l9buOv/882POnDlpFwAAgAr1Pi45fvx4HD16NGKKHJfsfPqF+Moj341/+KeX0qZxeeMbLooP3HpdLL768rSpbvbu3Rv5fD6mT58+7DnP9NxntfOg6TnQtAwAjF2mw99r77mnom7T8uWx4tFHK+rGS/gLQCr9aB0q/C1e1rINDAzEsWPH4oILLohzzjmndHuNcOTIkXj11VdjYGAgZs2aFdOnT6/5hMvx48fj5MmT0d/fH/l8Ps4999yYO3du2g0AAGBYWT8u+W/f2h2Pb3kmnn3ux2nTqFz55kvi5pZF8a/etTBtqqvDhw/Hyy+/HHPmzBl0jnO4LaqM/K12/rNaHQAwNpkNfyeK8BeAVLWP1mqhb/GyfIuI0mjfdDt58mScOHEimpuby265cY4fPx59fX3R19cXJ0+ejBkzZpQ+48oNDAzEwMBAnDhxIqZPnx5NTU3R1NRU84kZAACAoWT9uOQfn98X3/nbf4ynn+mteTTwG99wUVy9qDne/i9/MX7xigVpc0P09vbGjBkzYvr06YPOcZaf/4yy0b7p+c/0sigtAwDjk9nwtzjtc8q0zwBMhPTjtVroW7xM99OtPAw+fvx4zJ49O+bNm1d2641X/NnF6acHBgYiTq9HnD897dfMmTN9jgEAAA2T9eOS/v4T8cKeg/HS/kPxyqG+OHbsREREzJ49I84/rykuuvC8uPyyeTFr1sStVxwRcfDgwTh27FjpuR3ufGd63rPaOdD095OWAYDxyWz4O1GEvwBUk368lpfTsLd8f6RtYGAg+vv7Y968edHU1FS6TQAAAKi3vr6+OHjwYMyaNWvY85zVthhitG96/jMtAwDjUzk/SoYc3LUrunK56MrlYkdnZ9oMAFNCtYPc9GA5bZsxY0YcPHgwTp48mTYDAABAXZw8eTIOHjwYM2bMGPL4dKhjVwBg8mQ2/H3h8cdL+9vb2+Po/v0V7QAwkUY6GB7qoLm8vrhNmzYtpk2bFi+99FJpmjMAAACol4GBgdi3b1/p+DM9Lh3u2LW8rvwy3QcAGiOz4W9ExA3r1pXW+O176aW0GQAmRXoAPJaD3+nTp0dExEsvvTRoimkAAAAYq0KhUDrWLB57DqXa8Wy1OgBg4mQ6/N3e3h5dp//Z2LhoUWkfABptrAe76Teph9tmzJgRp06dih//+MdGAAMAADBuAwMD8eMf/zhOnTpVmu55uC3KjmNHUq1PtToAYHxyBcOFxmXv3r2Ry+Uin89HPp+vup/+U5T+c1QuLQNw5qr2EVusK28rFAoV9bVuxf4nTpyIQqEQF154YcyaNat0uwAAAFCr/v7+2L9/f+ROf9k4PZeZbjHEF5iL9eWX6f5wdQDA+GR65C8ATFXpAW618khb0fTp0yOfz8dPfvKTOHToUMXtAAAAwEgOHToUP/nJTyKfz4841XNRteNTAGDyZT78ffahh0z3DMCkqHYAPFJdeuCcBr5DbdOmTYuZM2fGq6++Gj/+8Y/jxIkTpdsAAACAak6cOBE//vGP49VXX42ZM2fGtGnTBh1vDrWVKy+nbaOpAwDGL7PhbzH03Xz77RER0ZXLxRNtbWk3AJg06YFuerCctpfXV9vy+XzMnDkzBgYGYu/evbF///44efJkehMAAACc5U6ePBn79++PvXv3xsDAQMycOXPY5euGOz4tL6ftAMDEy+yav0+0tcVF110XV952W0REHN2/P+5fsCDu3Lcv5lx4Ydp9zKz5C8BIqn3Ulq/ZW15XXp/up1u1tvK6kydPxsDAQMyePTvOO+886wEDAACc5fr7++PQoUNx7Nix0hTP6bnKaucvq21pW7FcfpnuD1cHANRHZsPfZx96qDTqt1xbnR+u8BeAWqQft+Xl8tA2vawW6o5UX14Xp7/RPTAwELlcLubMmRNNTU0xe/bsyOczOwEIAAAAETEwMBDHjh2Lvr6+OHr0aBQKhYp1fdPzlNXOXaZbWl8sV7tM96uVAYD6ymz4GxHRu3VrPNLSEhERVyxbFisefTTtMm7CXwBqUe3jtryuPLQtXg63X76l9dWuE6cP+gcGBkptuVwuZsyYEdOmTYtp06aVPrMAAAA48xQKhRgYGIhTp07FqVOn4sSJE6Vjv/JzlpGEtOl+tXK1+mr75Zfp/nB1AED9ZDr8nQjCXwBqUe3jtryu2n4a4I6lnN5eejkwMBDlim0AAACcWdLziuVf8B3uMt2vVk7rqu0XDbVfrQwA1N9ZE/4Wp4G25i8Ak6XaR255XbVwNr1MQ91q5Wr71S7T/WrlWo31egAAAPyz8ZwbTK9bLYStdjnc/nDl9Drl9en+cHUAQH2dNeHv0f3747v/7t/FjV1dadO4CH8BqNVQH7nVwthql+PZL78cqi5tG6vxXh8AAOBsNJ7zgtWuW+38Y1qXnqdM90fqX+0y3R+uDgCov7Mi/D26f3/cv2BBtDXgoQp/ARiNah+71ULZ8v2RAt2h9oeqG25/uDoAAACmnmrnE4cKYqudlyy/rGW/2uVw+8PVAQD1l9nwd0dnZ2xvb0+r6x4AC38BGK1qH71DhbFpcDtUqFutvZbLorRcbrg2AAAAJsdQ5xHT+vQ85HCXtdaVXw63P1wdANAYmQ9/b92yJea/9a1G/gIwZQz10VteX22/2mW1ulou0/1q5dRI7QAAADROLecN0z7VQtnRXFarK78cbr/cUPUAQP1lNvwt2rR8eTz/2GMRDRj1G8JfAMZoqI/focLZNLwd72XRSOWRjLY/AAAAIxvLOcL0OkOV63U53H65oeoBgMbIfPgbEfHsQw/F5ttvF/4CMGUM9/FbLfQt3x/pslpdtbZ0v9xQ9QAAAEw91c4pDhXMpucla2lLL4fbLzdUPQDQOGdF+NtIwl8Axmqoj+C0fqiwNg1208uR6oYqFw1VDwAAwNQw1LnEtL5aUDtcXXpZ6365oeoBgMbKbPi7o7MzXvybv4kVjz6aNtWV8BeA8RjqYzitH6qcXo5Ul+4PV1c0XBsAAAATb7hziNXahgpr03OU1dpq3S83VD0A0HiZDn+3t7dHRMQVy5Y1LAQW/gIwXkN9FKf1w5VHG/iOVB7JaPsDAAAwemM5V5heZ7hytf1qdel+tXLRUPUAwMTIbPhb1JX8s1HvdX+FvwDUw3Afx2nbcOXR7pcbqh4AAIAzw1DnFocKcWvZr6VcNFQ9ADBxJjT8HRgoxIkTJ+PkqYEYGCjU/STzrJnTY9asGRHJyN8b1q2La++5J+ldH8JfAOpluM/FtG005eHahqsDAADgzFPt/GJaV14erq2Wcrnh2gCAiTEh4e/AQCH6+0/EiZOn0qa6SsPfuZdcElfedlvara6EvwDU00gfy2n7eMtFQ9UDAABwZql2frGWupHKQ9UVDdcGAEychoe/x0+cjGPHTqTVDVEe/k4U4S8A9TbSR3O19rQuLQ9VF8PUj1W9bw8AAOBsUM/zgkPdVlqflkdTVzRcGwAw8Roa/vb3n4j+4yfT6oYpD397t26NR1pa4urW1jj0j/8Yzz/2WFzd2ho3dnWlVxsX4S8AjTLcR/RQbdXqq9UVDdc2nLFeDwAAgLEZ7XnD4fpXa6tWF8PUxwhtAMDkaFj4O5EjfovSaZ+La/5GRCzduDE23357tBUKcerUQEybli+75tgJfwFopJE+podqH6o+RmgrV2s/AAAAJt5oziMO13eotqHqi0ZqBwAmR0PC34GBQhw+ciytbrg0/J17ySUx9+KL4582bYrrPv3puH/Bgmgr/Hz94Rkzpkc+P/5/UIS/ADRaLR/Vw/UZrq2olj4AAABMbbWeWxyu33BtRbX0AQAmR0PC36NHj8eJk6fS6oZLw9/ykb9FxfB3YKAQc+bMTJtHTfgLwESp5SO7Xn0AAADIjpHOOY7UXlRrPwBg8tQ9/J2sUb+RhL/DKa5FfM7c2eMe/Sv8BWCi1frRXWu/GGVfAAAApqbRnlustX+t/QCAyVf38LcYrE6G0Ya/tfYfjvAXgMkymo/w0fQFAAAgm8Zy7nEs1wEAJk8+rRivk6cG0qpJ07t1a3TlctGVy8WOzs60eUrdVwAYrfIvE42k2heQAAAAyLbxHAuO5ToAwOSre/g7MDA1Rhb1bt0aj7S0lMrb29sHBcBT5b4CwHiM5YA8PQEw1AYAAMDUkx67DbWN1niuCwBMDXWf9vnVnx1NqyZM+TTOOzo7Y3t7e7Sdfnjl5fKpqc99zZyK2xgt0z4DMNXU+aMdAACADHM+EgCype4jf6eSq1tbS/sLrvn/t/f/0XGc52Ho/yxEWSJty5EBOklN16nTgoIjKbKtpjFINLWlKLl2TUGq2iq2emXClGP7HFpSK1KIouqeq+rIFMFTydb9OrLFgM69tKN7qkoQFLe2Y1o3JYm4p3LkyGohoGkdHzl0agKWJcvUD5LA9w9hJrMvdhcLYAGCg8/nnD07887s7Oxi32dfvM++77yjahsAlFX6QyMAAAAo8n8jAJRXqZO/3/7MZ/Jr/hangAaA1SKddcI/9wAAAKtH+r+g/wkBoPxO+bTP3/3e0bjns1+L556f3+M2/K1z49adH4izz3pNXlac9rkR0z4DwGwtbhIAAACwjPQrAgCxEpK/t/6bfx/fP/JsWtyUNAEs+QsAAAAAAACsVqc8+fvhj++NiIibb3hfdG38W+nmmrLHRJIALiZ/v7VnT7zwzDPxs7/yKzH+h38Y77jxxnjo0kvj+ulpyV8AAAAAAACgdE77a/5+/8izccfuR+Oll19JNwEAAAAAAACsGqd98jcKCeATJ09WlX/7M5+Jr15zTXz3y1+Ohy69tGobAAAAAAAAQJmUIvkbMwng/3R4PC2OiIiLPvnJuH56Oq5v7QzXAAAAAAAAACtGaZK/kVxv+F033RRXfv3rETMjgD9dqcSnXU8XAAAAAAAAKKnTMvn7hd/bNutWy/8cHk6LAAAAAAAAAErptEz+NuNbe/bEtz/zmYiIuPLrXzftMwAAAAAAAFBqpU3+Fj106aXx6UolJp96Kt0EAAAAAAAAUAqlTf6+66ab8tG+109Px0Wf/GTsv+CCdDcAAAAAAACAUiht8vdbe/bEpyuV/JZNAQ0AAAAAAABQRqVN/mY++sMfVo0ABgAAAAAAACij0iZ/33XTTXHl178en3/Tm+LTlUr8yfXXp7sAAAAAAAAAlEZlerq1w2Gf/8mLaVFD19/8xXju+fk9pp5/fuWvxD+/8h9ERMQzBw7EQ5deWrX9ok9+Mn7t05+Ol18+Hi+/ciIiIs55/dqqfebryJEjUalUoq2tLdra2mouVyqVmreIyO8z6ToAMH8tbt4Ai1CW9q24AiuHuAK0WlniCgBArISRvzd84rJ4wzmLS8BmLvilt+TLP3ziifg7739/Pt3zb+zf77q/AFBi09PT+Q1YOU7nunk6nzuU2elcN0/nc4cyUzcBgDI55SN/W+ms16yJs846MyIivrVnT/zV//f/xZY/+qOIiHj6i1+Mr15zTVw/PW3kLwCc5lrcfAFOoZXS/hVXoDzEFaDVVkpcAQBoRmmTv5NPPRX7L7igavvmgYF41003Sf4CwGlosU2WxT4emNti27KLffx8LTYuLPbxwNwWGxcW+/j5WmxcWOzjgbktNi4s9vEAAEuttMnfzKdnGmS/sX9/nPehD0VESP4CwGmk2aZKs/sBp06zbd1m91uoZuNFs/sBp06z8aLZ/Raq2XjR7H7AqdNsvGh2PwCA5dby5O9PXnjplP0zUyv5m3nmwIF46NJLq6Z9rlQq8frXnZ3uOi+SvwCwdOZqU8y1PZrcB2itZtq0c+0z1/aFmismzLU9mtwHaK1mYsJc+8y1faHmiglzbY8m9wFaq5mYMNc+c20HADgV2tKCxWprO30aPafTuQLAalOvE3R6ejq/1Suvtw+wPNJ6WKs+1ivP1CtfjHrHrHcu6fnX2gdYHmk9rFUf65Vn6pUvRr1j1juX9Pxr7QMsj7Qe1qqP9coz9coBAE6llo/8LU6pvNyKI3+/tWdPHNqxI92lauRvo5HCzTLyFwBaq1HTJN2WrmfqlQPLr177Ni1P14sabWtGo5iQbkvXM/XKgeVXLyak5el6UaNtzWgUE9Jt6XqmXjmw/OrFhLQ8XS9qtA0AYDm1PPk7NTUdL/z0pbR4WTSbzM2Sv6977dmLHv0r+QsArVGvSVKrPC2rtX7y5Ml82fcrLJ9inTvjjDNm1b+51uuVRYPyetLYkKlVnpbVWhdX4NQQV4BWW0lxBQCg1Vqe/I2IePHFV+L4iVf/gVlO6cjfF555Js6/7rrYf8EFcX3hZb788vGYmpqOtWtfU3j0wkj+AsDi1WuOpOXF9eLy1NRUTE1N5R2olUolzjjjjPw7GVhexTqZ1dVadbLY9k3bwel6pl55Ko0fmbRcXIHTg7gCtNpKiCsAAEthSZK/p2r073ySv2eeuWbRo35D8hcAFq1eU6Rex2naiXry5Mk4efJknHnmmXHWWWfFmjVrfJ/CCjI9PR0nTpyIl19+OY4fPx5nnHFG3rGaqdepWq8u1yvPiCtQbuIK0GqnIq4AACyVJUn+RkS8cvxEvPTS8bR4SaXJ33rX/D15cirOOKM1v6qV/AWAhavXDKnVeZqWnThxIqampuKss86Ks846y4gZOA1MTU3Fyy+/HC+//HK0tbXNSn7UaiPXax/XKxdXYHURV4BWW464AgCwlJYs+RuFa+sul2av+dtKkr8AsDC1miBph2m6PD09HdPT03H8+PFYs2ZNvPa1r/XdCaeh6enp+OlPfxonTpyIM888s277uN5yvTJxBVYvcQVotaWKKwAAS21Jf3J61llnxtlnL28yNjP51FPx6UolPl2pxItHj+bLAMDK1KjzNLudPHkyjh8/HmeffXa87nWv05ECp6lKpRKve93r4uyzz47jx4/n19or3qJOXJiPWo9Pn0dcgXIQV4BWW664AgDQakua/I2IeM2Za+J1rz07zlxzRrppSf3lV76SL3/+TW+q2gYAnFqNOkXSTpTsPrtWXtYBA5z+ssRIVr+jRt1vJl6ky6n0WOIKlJe4ArRaK+MKAMByWPLkb0REW1sl1q59TbzutWfHWa9ZE2ec8epUyEtt88BAfPSHP4yIiI/+8IdxvcYWAKxIaadJ8X56ZgTNyZMn47WvfW2sWbOm6rHA6S2bEjWr51m9jzoxoVnpY8QVWD3EFaDVliquAAAshSW95u+p9K09e+LQjh1pccsTwK75CwDzkzY90k6StCN1eno6Tpw4Ea997WvjzDNPzeUkgKV3/Pjx+OlPfxpr1qyp22ZO7+upFU+ye3EFVg9xBWi1xcSVdB0AYKmUNvm7XCR/AaB5abOjuJ51nKbLx48fj7POOivWrl2b7wuU04svvhgvv/xynjhJ283FtnK2nMWKdD1bFldgdRNXgFZbSFyptw4AsBSWZdpnAIBU2pFaXM7WT548GW1tbTpSYZVYu3ZttLW1VV1PL40PtZZrlaXL4gqsTuIK0GqLjSsAAEuttMnfb+3ZE39y/fXx9Be/GMP/+B/HMwcOxKf9ug4ATpl6HR9Zea1Ok6mpKR2psMqsXbs2pqamZsWDYqwoljdaFleAEFeAJTCfuFJUrxwAoJVKm/wFAE4ftTpNslE0rpsHq8uZZ56Zj6aplWRpVvo4cQVWL3EFaLVWxRUAgKVQ6uTvtz/zmfjqNdfEd7/85Xjo0kvTzQDAMkk7QLL1tJOkeJuamoqzzz678ChgtTj77LPz0TTFW2YhZeIKrG7iCtBqzcSV4n1aDgCwVCrTJW1xTD71VLSff35a3HJHjhyJSqUSbW1t0dbWVnO5UqnUvEVEfp9J1wGgDGp1gmTLxU6RYkfq1NRU/MzP/Ey+L7C6/PjHP65qVzdqQ6fEFaAWcQVotbniSjG21FsGAGi10o78/cuvfCU+XanEpyuV+JPrr083AwDLpN7vzGolgYu3NWvWVO0PrC5r1qyZFRfS5Euq1j7iCpARV4BWaxRXosn/hQAAWq20I39jZvTv/gsuqCq7vsUv18hfAGgsbWqkHajF5enCKJq1a9fGWWedVfVYYPV4+eWX48UXX6w5mmZ6erqqTZ3J4ki2j7gCFIkrQKs1iiuRjP5N40u6DgDQKqUd+RsR0X7++S1P9gIAC1dM9hbLirdMW1upmynAHIoxoF6cmG+5uAKrm7gCtFqzcaV4DwCw1Er7X8q39uzJp32OiPg773+/RDAAnAayThHTKMLqlsWAVnSUiitAiCvAEmhlXAEAaJXSJn8jIi765Cfj+unpuH56Orb80R+lmwGAU6j4i/hav5AHyKQxol68qLVPrf0A0hhRL17U2qfWfgBpjBAvAIBTpbTJ33fddFO8bcuWfPTvn1x/fboLALDEip0dxU6Qolrr0zPX1gNWr+L1NYumpqby5WIna3G/4j7F/cQVWN3EFaDV6sWVeuvF8nQfAIBWKW3y95kDB+KhSy/N17/9mc9IAAPACqcDBKhlMbFhMY8FymsxsWExjwXKS2wAAFaK0iZ/f/jEE/l1fq+fno7f2L8/vv2Zz6S7AQArQPHX8jpNgKJibJhPfBBXgHrEFaDVFhpXAACWQmmTvwDAqdWo0yPrFEk7Rxo9Bli90g7VevEjvRUfC1AkrgCt1ih+1NNoGwDAQpU2+fsLv/mb8d0vfzm/5u9Xr7kmNg8MpLsBACuMDhCgqBUxoRXHAMqjFTGhFccAykNMAABWktImf9vPPz+uLzS8fmP//njXTTdV7QMArBw6TIBGFhIjFvIYYPVYSIxYyGOA1UOMAABWgtImfzPZNX/P+9CH0k0AwDLTGQK02lzTKQLMl7gCLAVxBQBYLqVN/n5rz574k+uvT4sBgBUo6wjRIQLUspAYsZDHAKvHQmLEQh4DrB5iBACwUpQ2+QsArBw6QIBWqxVXapUBNKtWDKlVBrAY4goAsNRKnfz99mc+E5+uVKpuAMDKovMDmI9mYkYz+8ByGBsbjw0b3hYPP/xIRERMTv4o3ve+LXHDDTelu3IKNRMzmtnndHfbbbfHhg1vi7Gx8XRTQ9njOPXEmJVjNcQMAGDlKnXy96JPfjK/5m92AwBWtqXsKMk6JzdseFs88cS3080RhY76Ymd9mR06NBLXXvuR2LDhbXHttR+Jr33t6+kuNRXfp0OHRtLN8fDDj6ya95Cl1YqY0IpjzGVsbDz27Lk73ve+LXnduOGGm2Jy8kfprhAbNrw5LWIZtSImtOIY9Wiv1PbMM9+PG264KTZseFu8731bYv/+L8WxY8fS3WrK3qvVQoxZfksZEwAA5qvUyV8AgHoOHHgsLYqIiMce+5O0qLSeeOLbcfXV18QFF5wfBw58Jd761rdGX99H45lnvp/u2tCdd+5quvO1GQ8//Ehce+1H0mJYse677/645JLfjHvuuTcuvvji6Ov7cPT1fTgiIiYmJtLdW2LPnrtjz5670+JFm5z8Udx22+2rJpm03Nrb3xj/4T8Mx0033Zhugpq0V141Ofmj+O3f/kRERDz66EPxwQ9eHf39t9b8AVorreSY+MQT344bbripaqS2GAMAQJQ9+WvaZwBY2Yq/kF/OX8tfcsl74p577p01Im9y8kdxxx2fihtu2F5VXlZ/+Zffi4iIT3zit2Pjxs740IeujoiI0dGnkz3ru/DC8+PJJ5+Kz372c+mmBXviiT+v29nN6tVsvGh2v1b52te+Hnfc8am46qor48///PG4/fbb8ts99+yJjRs704e0xD333BvPP/+TtHjRJiYmYnDwC2kxlFKz8aLZ/VpNe+VvTExMxJNPPhXXXntNvOMdF8U113wwIiKefPI76a4ttZJj4l/+5ffiwQcfSos5xU5VvAAAKCp18hcAoJbe3i0REfGf/tPBqvJs/cILL6gqz3zta1/Pp0h+3/u2zBoFsmHD2+K2226vmkp5z56749ixY3Ho0Eg+Hextt90+a6TsoUMj+VSG2ePSa+5lj92//0v5NI/ZtI/pCMBDh0Ziw4a3NZzGef369REz+x47diweffTLceGF58e73vXOdNe6Lr744ti164645557605NmTl27Fg+qjd7D++77/68Uzt7LVknazpF49jYeNV7dN9991e9j+l217tjOdxzz2fiwgvPjzvvvD3a29+Ybq6STQ1d/Iymo9ayev7EE9/O68ptt92ej8jPplSPiBgc/EK+PZPWg2I9yZ67+JxZ2djYeNx22+1xySW/GRER27ffGBuamE42G3lWfE3ZuX7ta1+PDUkcys6/WHbffffHhg1vy8+zGCc2FOJoJpsSN4urxdc/V5xOLeZYG2r8ra699iNzxsLscUVzPVdx+4YNb4v9+79UtZ1yWmh7pZk2xbFjx6riUa3PVK1LOGTf1elnONUoFtXaPtd3dkdHR0RhJHR2Tpdc8p6q/ZqVvY6HH34kHn74kbyNVjzPRjHx2LFjsX//l/LH1ar76TTVWdtsQ6FtU4yJWR2PmePfd9/9+fGzaa4zGza8LbZvf3V07yWX/GZsKFyreUONv08rvn9i5ocHxeNce+1H5j1jDAAAS6+0yd933XRTXD89Hb+xf3/8nfe/3zV/AYDc29/eFZdc8p4YGhquKh8aGo4bbtgeP/3pT6vKY6Zzrq/vo/Hud/9qHDjwlXjve98T27ffOKuD/vHHH48HH3woenu3xFVXXRn33HNv7Nq1Jx588KG47rqPRF/fh2Nw8Avxf//fX8wfs3//l+Lqq6+JiIh77707du26I77xjcfikkt+c1aH2uDgF+KFF34a3//+/4wrrrg8Nm7szEcGFTtVv/nN/xwREZs3dxceXW3z5u646qoro6/vo/Hxj2+P73znqfjc5z47ZwIrdeWVvXHJJe+J3/3d22YltYtuueW22L79xrjggvPj3nvvji1bPhB33PGp+Jf/ckccO3YsOjo64t577847cu+99+64995Xk9pjY+NxySW/Geecc048+uhDce+9d8cdd3wqdu3aEzHTGZl10D7wwP544IH9hWeGpTE2Nh5PPvlUbNnygVi3bl26ucoTT3w7LrnkN+Mb33gs/2w/++yzcfXV18z6kcbjjz8ef/AH+6O3d0vccMP2GBz8Qtx//2DETPzK6sUll7wn7r337rjssksjmqgnn/jEb8eFF54f99//+/n+r8aoO2Ljxs647LJL49ZbfyciIvr6Phz33nt3vP3tXTNnVduBA4/FxRe/M3++Bx98KJ+aNfshSXFk3p/8yatJq2LZn/7pN6Ov78P5ezg0NBy9vVviwIGvxA03bI977rm35uwCDz74UDz44ANx++23RcwjTtey0GN973vfi3vuuTd6e7fErl13xNGjR+MDH7hy1kjNRuZ6rkOHRqKv76NxwQXnx6OPPhSDg5+Pv/7r/5UehhJaSHul2TbFLbfcFvfcc2/ceuvvxL333h3j43/RshGuc8WihXxnt7e/Mf+x2bXXfiTuv//344EH9sc73nFRuuu83H//78f/+B//M6677iNx1VVXxh13fCq++tU/johoGBN37doTX/rSA3HddR+JRx99KM4999z4wAeuzBOw2TTV4+PjsWvXHXHdda+ecz333POZuOOO/zO+//3/GTGTOD5y5Adxww2fjEcffSg6Ozujv//W/Pvi3nvvzi8vkP0NswR5qlXfPxER//Jf7ohvfOOxGBz8fDz66ENxwQXnN2z7AQBwapQ2+QsA0MiHPvRbceDAY/kojSee+HYcOPBYzREkx44di+3bb4xbb/2d+NjHrouNGzvjppturNkhGxFx5523xxVXXB7/+l/fEjGTsP3X//qWuOKKy6O//9WRLUeO/CBi5tj9/bfGJZe8J3/cNdd8MO6++9UO0v/3//13hSO/Os3yxz52XVXZhz70WxER8Wd/9uprOXbsWN6h2ygh9cQT345nn302Lrzw/Dhw4LG47rqPxFvesiFiZrRLOmqknnXr1sUtt9zccPrnJ574djz44ENxww3b46abbowrrrg8Pvax6+Lee++OAwcei0OHRqK9/Y1xxRWXx1vf+taIiLjiisvjiisuj4iI3/u9z8cll7wnbr/9tnjHOy6KK664PG699XdicPALMTn5o/y6quedtzE2b+6OzZu74847mzt/WKyf/dk3pUWz/MEfvJrc+NznPpt/tn/v9+6NCy88P+655zPp7nk8yGJNlpTZuLEzrxdvfetb44orLs9/5DFXPVm3bl3ccMMn48CBx+Lhhx+JL37xgbjkkvfElVf2Rsz8IOQ97/m1iIh4xzt+Of+BSSOf+MRvxzXXfDB/vhtu2B5PPvlUPPPM96O9/Y1x1VVXxje+8epIvWPHjsWDDz4UfX0fzssmJ38UBw48VvVDld/7vXvz577pphvjwgvPz/cv+lf/6oY8xs03TqcWeqyjR4/m53vNNR+MW27pj6gxUrOeZp7r6NGjERHxq7/6D+Id77goLrvs0vjEJ347ORJlNd/2SjNtiuw7OfvcXXHF5XH77bfFVVddmRxxYeaKRQv5zn7mme/H+Phf5G2WLVs+kMeNbPTsQlx88cV5uyRrtz3xxJ9HNIiJTzzx7Rgc/ELcckt/XHHF5fGOd1yUPza7FvN//I9fiSeffCpuuaU/rrnmg3nMr+eGGz6Zt8EiIt7ylg1x++23xWWXXRrveMdF8a/+1Q0RhR/OvPq8vxwREe95z6/FFVdcXvfHe636/omZH/x0dnbG5s3d8Y53XBQ33XRj1XkDALAylDb5+609e+LTlUp89Zpr4rtf/rJr/gIAVbIOw2z6wKwjtdYIkmykzB13fCqf5m7DhrfFgQOPzbo27cUXX5wnELJOuKuuujJfzrY9/vjjEYVj9/ZuqUrUZgmX9JqeF198cdV6FF5LNto3SwJnHZa1PPHEt+MDH7gyenu3xIMPPhBXXXVlXH31NfkUgIODX4hzznl9+rC6Nm7sbDj9c3Z94Q984P1V5dkImlqjl4oefPChOHDgsar3/447PhUxcz2+t7xlQz5i59prPzJrdB4spbk+vzHzGe7r+3BVJ/m6devi4osvjieffKpq32IciZkkbzPmqicxM5Ktr+/DsX37jTPJi5sb/kgkClMjZ7fiD0Oeeeb7sX//l+K2226Pa6/9SNxzz6vJjWwk2MUXvzNPBo+NjceFF54fH/rQ1XlZdo3x4nTzf/Zn34777rs/brvt9njf+7bEk08+Nes9ipnkSGY+cbqWhR4r/VutX//qyLsseTSXZp7r4ovfFRdeeH5cffU1+VStc/3NKI+FtFfmalNk38lpO+HXfq2nan2h5opF8/3OzkbRnnPO6+PBBx+IW2/9nbjjjk/FfffdHzFT3y688Pz0YU3JEqhRaLfNJXv/rr76mvz1/fIvv9o+y37cNz7+FxHJDCzr1q3LR+um3vrWv50Wxde+9vXYs+fuuO222+Pd7/6HETXahc1o5ffPrbf+Tjz44ENx1VVX55fuEI8AAFae0iZ/s2mf0xsAQMx0et166+/EPffcm099ml1br55bb/2dOHDgK7NucznnnHPSolmdbYtRfC3Hjh2Lb37zP8cll7yn4Yi9LEFzxRWXx7p16+LOO2/PE8DZ9YPTRO1citM//8IvNJesmo+rrrpy1nt/4MBX4i1v2RDr1q2Le+7ZEw88sD/OPffc2L79xrjqqqvnNfUqzFfWkf7Hf3xgxUx72aieZObzw46IiOuu66s61nXX9UUUpnZ9/PE/i82bu+OWW27Op0jN/P2//2pCZHT06fjP//m/xJYtH8hj0+jo0/HUU/81LrnkPXnS5eGHH4mrr74mXnjhhbjsskvj7rv3zGs04kLjdC2LOdZ83+NGz/WWt2yIBx98oGqq1rmuj0p5LKS9slDN/JClWY1i0Xy/s//dv/v38eSTT8UHPvD+WLduXXzsY9flCeA9e+6OwcEvxHXXfSR92JIbHPz8rNeXxcd6vve9VxPHc9m1a0/09X00fu7nfjauuOLVafBXgo997Lo4MDM9/R13fCp++ZcvrvmjPwAATq3SJn8BAOaSjXi58867IiLiH/7D2iNesmuoPf30WGzc2DnrthjZsdOpRLNrxv2tv/XzVeX1ZK/lq1/946Y6hrNpRLOEVZYAvmTm+sF9fR+e92tbV5j+OUsuZ9avXx9RmA4x89/+22jV9nouueQ98eCDD8Vb3rJh1vu/bt26/HVs3twd99yzJ3btuiOefPKp+Na3/iw9FLRMlpQ5cOCx+OxnP9cwAZxNnVlMbhw7diwef/zxmtO3LsRc9SRmRpLdc8+9MTj4+bjwwvPjzjvvanjeMZN8LB4rSyRn9ffjH/9oXHbZpbFxY2c8/fRY1WM3buyMCy88P5588jvxp3/6zTj//F+KmLl+Zlb2679+Sb5/NmL2pptujM2bu2cSnw/l2+tpZZyez7G+973vVb1/2Xty4YUXFPaqr5nnOnbsWKxbty6uuOLy+IM/+P246qor48EHH5p1TXjKa77tlbnaFK997WsjIuK//JdXZyGJmc/ZH//xgXw9Ct/NxaTw0aOvziLQyFyxaL7f2S+88EJEoc0SM0nI7JrgF154fvzGb/x64RFLK3tffvjDH856fVl8zH4AUkyMPvPM92fNHlDP4OAXoq/vw/m0+nPF6UZa+f1z7Nix2DgzPf2jj74am5t9TQAALJ/SJn+/tWdPDP/jfxzPHDiQT/ls2mcAoGjjxs6ZkSmPxa23/k7d6f7a298YN9ywPR588KG47bbb4+GHH4mHH34k7rvv/vja176e7j4v7e1vjF277ogDBx6LG264KR5++JHYv/9LceONN8WFF54f//Sf/pP0ITVt3NgZlxSuEVmvYzjzwQ9eHRERt9xyW/56PvvZz8WBA4/FhReeH4ODX1jQSI6NM9M/px2Bmzd351M87tlzd/7+vTra58qqaREze/bcnY9Czq5r/PGPb8/Pd//+L+VTPj7zzPfjtttuj0OHRuLQoZF4/PFXO5BrTaMIrfS//+8fiquuujLuuefeuOqqq/PrZd922+1xww035UmXG27YHhER/+JffDj/DH/8469eHzfbNl+Dg1+I/fu/FPv3fymiiXoyOfmjuOeez8RVV10Zl112adxyS38cOPBYPPTQUNVxIyLuv//34+GHH2kY47IE0qOPfjkefviR2LPn7pqJ2i1bPhDf+c5TceDAY/HOd746Ve3mzd152S/90tvzfbOEyf79X4qHH34kbrnltnxbI62M0/M51tGjR/M4un//l2L79levUVwrptXSzHN99at/HPfdd3888cS342tf+3qMj786fXa97yzKZz7tlWbaFJs3d8eFF54f/f23xn333Z/XteyHYZmurvMiIuJLX3ogjzV33rmrap9a5opF8/3OzhKUv/u7f9Nmue++++Mb33i1zfLkk0/VjGOtVIyJ73znRXHJJe+pev8enomBWczPZk/53d+9LY9nt976fyRHre/CC8+Pxx9/PD/27/5u/Vj4e7/3+di//0v5c6da+f3z8Y9vj6997ev5tacjIn7xFxd2vWUAAJZOaZO/LzzzTLz5H/2jiIj4O+9/f1zzne9ERMSLyT8zAMDqlk0nml73LvWJT/x27Np1Rzz++OOxffuNsX37jfHCCy/kHaOLcc01H8yn89y+/cbo77813vve98TnPvfZuh28tXzoQ7810+G7fc7Hpc+5ffuN8fzzP4kHHtgfn/vcZ+PCC8+P3/3d2xY0siyb/jl15523x623/k584xuPxfbtN8bw8KNx662/E3fe+TfXD42ZKWazEcjf+c6r02NfdtmlMTj4+YiI/Hwff/zP4h/8g78fMTPa6fnnn4+rr74mrr76moiIePTRh/KRc7BUslHz9957d3R2dsbg4BdicPAL8fjjj8eGDW/OR+K94x0XxaOPPhSdnZ35Z/jcc8+NRx99qOa1O+fywAP78+TNCy+8Oipvrnry6U//X/Hkk0/Fxz/+0YjCjzL6+2/NkwbZDziefPKp2L79xobXcty8uTsfeXf//b8fv/iLb6t5Pcvzz/+lOHDgsbjqqivz43V1nZf/2KT4+v/5P/+n+TkNDQ3Htde+Wp+b0co43eyxLr744rjqqivj/vt/P/r7b42+vg/H5z732YbvW2qu5/qFX3hr/OmffjM+8IEro6/vo/n3w3yeg9Nfs+2V9Pu9Vpti3bp18bnPfTb/UdbQ0HBcddWVcfHFr07Tnmlvf2M88MD+WL9+ffT33xrj438RN9zwyap9apkrFs33O7tW/Hz66bG47rqPxP/z/3whjxmHDo2kD120WjFx3bp18W//7UDccMP2uOOOT8X27TfG/ff/frzuda/LR/5u3NhZ9d79yZ8cjDvu+D/Tw9d1yy39sX79+ti+/cZ44ok/r/m+/8Zv/Hr09X04HnzwofjSlx6oGxNqvX8L/f654ILzo6/vo/GBD1wZ3/nOU3HvvXfHFVdcnu4GAMApVpmeLueFcL+1Z08c2rEjv87v01/8Ynz1mmtaft3fI0eORKVSiba2tmhra6u5XKlUat4iIr/PpOsAcLoqNjGy5eL99PR0TE1NzVqempqKtra2OPfcc/PH05yvfe3r0df30QV15sFK9Oyzz+YxIW1LF9vUmSyepDdxhaWwYcOrye7bb68/Io+VR1zhVNqw4W1xySXviT/4g99PN3EaS+NKMb4Ul6PQ71eMNWncAQBYrNKO/H37tddGROTTPX/1mmviok/O/qUkAEBZfPGLfxiXXPIeiV8AgBUmm8r93e/+1XQTAAC0VGmTv2vXr68a5bt5YCB+7dOfrtoHAKAM9u//UuzZc3c+5TMAAKfO2Nj4rOt49/V9NC688Px4//v/t3R3AABoqdImfzPXT0/H9dPT8a6bbko3AQCUQn//rfGNbzwWg4OfN+oXAOAUy673nl1j9447PhU33LA9Pve5z+bXBQYAgKVS+mv+plzzFwCWR7GJkS0X77Pr5aXLrqEHZNJr6NW6FaXX5HRtTiAlrgCtlsYV1/wFAE610iZ/l4vkLwDUVmxiZMvF+6zjNF3WmQpk0s7UWreiNDkjSQOkxBWg1dK4IvkLAJxqpZ32efKpp+LTlUp8ulKJF48ezZcBAAAAAAAAyqi0yd+//MpX8uXPv+lNVdsAAAAAAAAAyqa0yd+IiM0DA/HRH/4wIiI++sMftvx6vwAAAAAAAAArRamTv4d27MhH/X7+TW8y7TMAAAAAAABQWpXpacNhF+PIkSNRqVSira0t2traai5XKpWat4jI7zPpOgCcropNjGy5eD89PR1TU1OzlqempqKtrS3OPffc/PHA6vTss8/mMSFtSxfb1JksnqQ3cQXIiCtAq6VxpRhfistR6Pcrxpo07gAALFapR/4CAAAAAAAArBaSvwAAAAAAAAAlIPkLAAAAAAAAUAKSvwAAAAAAAAAlIPkLAAAAAAAAUAKSvwAAAAAAAAAlIPkLAAAAAAAAUAKSvwAAAAAAAAAlIPkLAAAAAAAAUAKSvwAAAAAAAAAlIPkLAAAAAAAAUAKSvwAAAAAAAAAlIPkLAKw6IyMj0dfXl9927tyZ7sKMgYGB6Ovri3379qWbWCUGBgZiZGQkLSYiJicnq2LJcsSVffv2xfDwcFqcy85pKfX19cXk5GRavOLN9d5k3w2n42srauZ1zPU54tQaHh6eFVPGx8fz7Uv999u3b9+SxbBGRkZGYmBgIC1uqbnqxuki/Rst9WcCAIDTi+QvALCqDAwMxNDQUAwODua33t7eqk7VxRgeHi5NonRkZCSOHj0ag4ODsXXr1nQzLTQ+Pn5KOtpZnPb29qpYMjg4mCcubr755nR3Vrju7u4YHByM9vb2dNMsK/lHEenrEF9OT11dXXlc6e/vj127drWsrTKXrVu3xu7du9NiVhB/IwAAGpH8BQBWjWxERNpZ1t3dHZ2dnVVlRExMTMT69evTYqCB7AclzSQQAZrR2dkZPT098fTTT6ebAAAAZqlMT09Pp4U078iRI1GpVKKtrS3a2tpqLlcqlZq3iMjvM+k6AJyuik2MbLl4Pz09HVNTU7OWp6amoq2tLc4999z88a2yc+fO2LZtW8NE78jISOzduzdf37ZtW3R3d+fbDh8+HJs2bcr36ejoyJPJAwMDMTo6OuuxfX19MTAwkCeDRkZGYmhoKH/czp07o7e3N/bu3Vt1vH379sXBgwdnPU9qcnIyduzYEQMDA7Fjx468vPic+/bti/b29jh06FBMTEzk29LXm5UXnzsKryV7rrQ8GjxHo9eR/U127dqVlxXPO5L3IWaSa1F43ZniuYyPj1cds7htLjt37oyJiYmIiOjp6YmtW7fmx8ueOwrPkZXVey9jjtc5PDwcQ0NDeXn6nJlmX0P6fjV7Hpni43t6emJiYiI2bdrU1HO32rPPPpvHhLQtXWxTZ7J4kt6WMq4UDQ8Px6FDh2bV1cXWgaKsnk1OTlb9nbLR+Vm9KH5WF/v8xTqxbdu22Lt3b9U+xamUi+dS1NfXF/39/VXxN4t92WereJz0PAcGBqo+h8W4l8Wyw4cPR0dHRxw8eLBmfckek42ijOR5ar13tV5bOnV0vfcifQ1pjLzsssvimWeeqYpj6fdDZnh4OMbGxvJ9s/iQPvfAzMjz7HXUiy/ZuYyNjeXfW7XeszI6HeJK+veOwudny5YtVcvj4+Oxd+/eWZ+1mBkdmpmrHhdl9Sl7/oV8XtLv6N7e3tiyZcus8mLMSJ83GsSvuepzZq7XXdxe6/jZY+rFtlS9840a8barqyt27NhRdQ7Fc5vPe1X8TLD80rhSjC/F5Sj0+xVjTRp3AAAWy8hfAGBVmJycjImJiYaJ34iIsbGxqmkWi8m8iIjR0dGqfdavX1/V2d7b2xs9PT0xODjYsFM0lU1FnXUSDg8Px+joaP48XV1deWduPXfddVe+f29vb1WHYcw8x8033xyDM9OBZh3GAwMDMTg4GNu2bYu77rorYqbDuLe3N592MnstWUfo4Mz0tnv37q26dl76HM28jiyBOjg4mL93mYGBgZiYmKh6XZlG57Jr167o7+/PtzVrYGCgaqrN0dHRGBkZic7Ozujq6qqa5vXw4cP5+TR6LzP1XueWLVuiv78/Ojo6YrAwxfZCX0PMJMiz96v4fkaD84gan7uNGzdW/aCB+iYnJ/PPf1H6ns63DtQyNDQUGzduzB9z8ODButd6XOzzp3VibGys6rEDAwP552ywwZTJvb29cfjw4Xw9m762mPjN6nN2nvP93I+OjubvS6P4+8gjj+TPE4VZIVL1Xlt2ftn5FpOvc72GYoy8+uqrY3R0tCqGFuNK0aZNm6rqYjYCNPt7jIyMRFdX16z3v158iZlzufzyy2NwJmal33esHCMjI3Hw4MHYtGlTuqkpc9XjZszn8zI+Pp4nZot1LWY+49l35eBM/Ko3nXUz8atRfZ7rdY+Pj1fV8fXr18+KB1mbr5nEbzPnW4y3o6Oj0dfXl8eENP7O570CAIAiyV8AgIJi516WKC52zHd0dFTt09fX15LkWNrZPzQ0FNu2bcvXt2zZMufzFJNOW7ZsiY6OjqpOwp6enqrEwCOPPFI1PW1xRF0tw8PD0dXVle/X3t4ePT09VZ2p6XM08zqK2zdt2hRHjx6NmDmP0dHRqiR2NqJlrnPp6OjIR9G0t7c3TARlxsfHY3R0tOrv29vbmx9z06ZNVcmrYkd8M+9lvddZz0JeQySf4fPOO2/W8zQ6j/Tv1d3dHV1dXfk69Q3Wme45fU/nUwfq6enpqfo8bNu2bVZSI7OY569VJ9IESEdHR9XnvN6os02bNlWNSD98+HBs3rw5okZ9jpnnSROjc+no6GiqnhRH527evLnuczT72mIeryGNkT09PXlcyWJerdfQ3t4eXV1deUw/dOhQ1d99bGwsNm7cmDyqsZ6envx7rlbM4tTKEoN9fX2xd+/eGGzw44pGss9Vo3rcjPl8XrIfMRR/cJfVny1btlS9jq6urvy7LtVM/KpXn5uJX52dnVX1bePGjbNeU6N6n2rmfPv7+/Plnp6eqpiQxv/5vFcAAFAk+QsArApZ51naqZeanJzMO1uzDsXiY5bqGrgdHR1pUezatSs/jx07dszZ4TdXp3Ct7UNDQ1Wvd2JiouF7VOyM7uvri4MHD1adV63nmOt1pK892z45OTlrW1Gjc9m9e3fs3bs3+vr6Zo26mUvxmHv37s2P2d3dnSdyao2ym+u9TF9L+j6kFvoaRkZG8nPYtWvXrOeZ6zxq/Q1pbGRkJI4ePVo3SbDQOlDPfP9Gi3n+dFtq69atMTExEX19fbFz5850cy5LXmaj59NRjLWeJ02+zqXZ+Jy+f+n7kWn2tWWaeQ3pc2/atCkOHToUMZMw6+npqdpetHHjxjh8+HBMTk7G+vXrq0bmj46OzntUaHou0cR3JMunOGK1OBp0vub6Lm3WfD4vExMTDZ9z586deUwaHR2tWwejifiVntd84lfMTJecHX9oaGjO489lrvOdr/m8VwAAkJH8BQBWjZ6enlnT+RVl0xQWp9ibS6s6VWspnkez51M0MTExZ6fltsIUpdmt0dTY2ZSExVu9hFdmMa+jUSfnXOeSlU1MTDT8uxd1zEyNWryl19sbGxuLsbGxWYmW+b6XzZjvaxieub5n9rjiCKOFmmsU6mo3OTkZe/furRrtlVpMHWjGXImWVj5/rWTPjpnry27evHnWNMdF2ej5Wj+eqFXXm4lhS63Z1xYLfA1ZjBgfH49Dhw7NiitF5513XoyOjsbhw4dj48aN0d7eHuvXr89HAzd6HiiqVY9brVZ9iJkfWBWnWp5rdomljF9Znc6Om87CshCtPN/5vlcAAJCR/AUAVo2tW7fGwYMHZ3Xgj4yMxPj4eJ5AyTrQi9d3zYzOXAM2s3fv3nzq0kza4dnV1VWVuBsaGqraXkuW2JyP4ujQffv2zUqupDZt2tTwmn2pbNrW+VxvbiGvI9PZ2RkdHR1Vryt7H+c6l+L7XRx5t2/fvrpJ1CwJU297FJJXBw8erJoqcr7vZS3p52Yhr2FycrKqc7g4TXUz0r/X8PDwrPOiWpYwqJfoT9/TVhgaGso/D5Mz1xqulzRczPPXqhPpsdLPaaMfC2Sj59MfT2yauZ5tMbamMWzjxo1VsbNeHWiluV5bsW408xrq2bx5c15X632OorCtmCTeuHFjze+hlHpcXp2dnTExMZF/9iYnJ6umWG+mHrfapk2bquJUzDx/tp5NUT45MyV1PUsdv44ePVo1XXo2Cr+eyZnZYepZzPmm5vteFY2MjMxq6wIAsLpI/gIAq0rWKZdNodfX1xdjY2P5dd/Wr19fVZ7q6uqKsbGxfJ+urq6q0abZ9d36+vryjti+mSmJs8fM1UkfhevSFc9zrmTHxo0b831Hk2vl1tLd3R29vb1Vz9Gos7C9vT36+/urpjTsa9AJGgt8HUW7d++umt45+5vMdS7FKZhHC9f8m2tq1N27d8+avrmYYO7s7IyjR4/OGh003/cy1dnZGV1dXdFXmOJ5Ia8h+4FD+n40a+vWrXH06NGqxxtpVN/IyEiMjo7O+sz0FaYJXmwdqKW3tzfuuuuu6JuZVnTbtm11k4aLff6bb7656vVdfvnlVduL8XDv3r1V1x6vpaenJ0aT69q2t7fHwMBAPs1538y06bWu951tnyuh2gqNXtvll1+evy+Tk5NNvYZ6sh+zpHGllqw+Zq//vPPOi4mJiTjvvPOSPf9GrfhCuWzbti3/7N11112zpg+fqx63Wnd3d2zbti127NiRP+d5550X7e3t0dvbm5ffddddDb9jljp+Fd+3vpk2XSNjY2Oz3tuixZ5v0Xzfq6L0BzYAAKw+lenp6em0kOYdOXIkKpVKtLW1RVtbW83lSqVS8xYR+X0mXQeA01WxiZEtF++np6djampq1vLU1FS0tbXFueeemz9+pRgZGYnDhw831Zm/nCYnJ/OpSalvcnIyBpNpnE83ZXgN8/Hss8/mMSFtSxfb1JksnqS3lRxXVpt9+/ZFe3v7nNPFryZi+PISV3zmFmrfvn2xadOmuj+2WSl27twZu3fvTotZQmlcKcaX4nIU+v2KsSaNOwAAi2XkLwAAq0J7e/tpnzQtw2tg9cqmozUirdrw8HDD0YTQarVGBzO3rVu3rvjEb8zMYgIAwOom+QsAAMCS2rlzZ+zYsSP6+/uXZcrm08HIyEj0zUwPnU0XC0th586dVVMRd3V1+cwBAECJmfZ5kUz7DAC1FZsY2XLxPpsyMV0+nadRBFornUax1q0onZa1DNOzAq0lrgCtlsYV0z4DAKeakb8AAAAAAAAAJSD5CwAAAAAAAFACkr8AAAAAAAAAJSD5CwAAAAAAAFACkr8AAAAAAAAAJSD5CwAAAAAAAFACkr8AAC0yOTkZfX19MTIykm6al76+vpicnEyLl8XIyEgMDAykxS0zMjISfX19NW/79u1Ld6eOffv2xfDwcEThc8epVeuznf2NWi17rmbjxFz779u3L3bu3JkWt0z6GS3GmVbFzVNleHg4+vr6lvT9O93t3LkzxsfH02JKbOfOnaf1d/rw8PBpff4AACD5CwDQIu3t7TE4OBjd3d3pphWrUUJoIebqMO3u7o7BwcGq27Zt26KjoyO2bt2a7g6nhYGBgRgaGpr12R4bG0t3bYmsHrW3t6ebappr/61bt8bu3bvT4rrGx8dbluw8HeNmZnJyMoaGhmJgYGBe7x+U3e7du32nAwDAKST5CwDAKbV3797Ytm1bWgynhWx0b63k344dO9IiSiT74Uy9pDoAAACcCpXp6enptJDmHTlyJCqVSrS1tUVbW1vN5UqlUvMWEfl9Jl0HgNNVsYmRLRfvp6enY2pqatby1NRUtLW1xbnnnps/vlX27dsX7e3tcejQoZiYmIiBgYFob2+Pffv2xcGDByMioqOjI0/iTE5Oxo4dO6K/vz927doVERG9vb2xadOmPKlT3D9mpjrctm1bdHZ21nx8un/2mImJiYiI2LZtW+zduzc/t5iZInXv3r35/sVtO3fujN7e3ti7d29+7OHh4RgaGqq5f2Z8fDw/pyic18jISBw+fDg2btyYH6Onp6dqBE/xfIuvZ2BgIEZHR/P9tm3bNudovoGBgZqjfufzN6n1nqaKx4uIGBwcrFlefK+yz8vY2Fj+uhq9puy96+joiIMHD+b7Nvr7RY1zmM+5bdmyJX9PsseVybPPPpvHhLQtXWxTZ7J4kt6WMq4U6/xcinWnWK9q1bv+/v6YmJjIPzvF/dO/ea3HN9o/lT0+i2vZayrGiOzzl8aX4vPMVW/T802fL3sPs/0z27Zti6Ghoap6PtdzzRUj0vqVnVut565V59N6XXwf0liYxvNacaIo22fTpk35c9R6DfU+T9lryL5Psm3F80qP18w51/t8RYPvhWxbs3VkOZwOcaXW98/g4GDV5zb97KSfyeLfMK232ba0LVA8ZqO/aa16Uqyjxe+omCOmZOZqCzWSvvbi66j1XjZ67zo6OmLz5s0xOTk5q22SSV9PV1dX7Nixo+o1pOee/g2K51CvzkaDes7KksaVYnwpLkeh368Ya9K4AwCwWEb+AgCrytDQUNx88835FKjDw8MxOjqaT9Pa1dUV+5Jpix955JEYHByM/v7+GBoairvuuivfPwoj/+rJHl9r/4GBgejq6sq3p9PEjo+P5x2ggzNTJN91111V+2TTze7evTvGx8erpp/dVmdEbWdnZ34+A8mUpcWO5oGBgTh48GB+vcbx8fHo7e3Nj79+/fr89ezYsSN6e3ujp6cnBpuYxnVkZCSOHj06qyNzPn+TWu9pamBgICYmJvL9e3t7q7YXy7PjZYaGhuLyyy/P38ti53Ito6OjsXHjxvz1z/X3W8y5cepNTk7GxMREU0mttK6Pjo7GSOE6t8V619vbG7t27YqxsbEYrFEPa2lUbxdi165d+blmdToiYsuWLdHf3x8dHR0xODiY199m6m2zsiRIdqxiwiSafK5GMaJRvSs+98DAQOzduzcf4VvU3d0d/f39ETPveTHxm703gzN1vpgkixpxopbR0dH87z84E2sHCtdjn+vzFBH547du3Zq//mz/zZs35/s1e85R5/PV6HuBhSt+/3R1dUVfX1/+uUm/jxp91zRqF+zatSv6+/vzv2vxeI3+pnPV0VrqxZSo8XlO20JzKdaV/v7+Wd/Vjb7L0/fu5ptvnvfrGR0djb6+vrx9mb6+4eHhOHToUL5/FlvSGF2ss1HjfalVzwEAoBbJXwBgVenp6akaiTE0NFTVEbply5a8kzuTdYJ3dnZGR0dHVaIgGx3SSF9fX75c3H98fDxGR0erkp9pIvSRRx6J3t7e/JyLo0QyxfPJ9su2d3d3NzVqpqijoyMfrdPe3h5dXV35qJPOzs6qZMXGjRvnfP317K0z3XMzf5N672lqcnIyRkdHqxIZ2WuL5P0+77zz4ujRo/l6zHxessRerfc+1dHRUfX+NPr7LfbcWJmGh4ejr68v+vr6YufMdXFr1fXe3t6qBEdXV1f+99+0aVNE4fOQ1sNaGtXbhSjWwU2bNs35+Wum3jZjZGQkurq6qupRGieaea56MaJRvRseHq567vb29ujp6Wk6EVXr79zd3R1dXV1VCZs0TtTSkcyI0NfXl7/GWs+Tfp4iiScdHR1Vf8NsW61j1Tvnep+vVn4v8Dd6e3vz759NmzZVfW7S76NG3zWN2gUdHR3537G9vT1/XKO/aTN1tJZ6MSWrk43aQnMp7l+cQSDT6Ls8fe/a29tn/RCrluzHHzFz/GL7Mo2ZaczKnuPw4cN5WSR1tlbdrFXPAQCgFslfAGBVqZUI3bVrV56s2bFjx6ISJrWkz1k8fkdHR9W2WoaGhvLz6+vri4mJiapOzeIx2tvbo7+/P3bs2BF9fX0LGiGyfv36tKjqnPft25efy9DQ0ILer3379lV1xqbm+ps0ek+LJicnG77HIyMj+fPs2rVr1nHS54k5kr+13rt6f7/FnhunXvb5KI7e2rJlSz76LFX8HOzdu7elf9Nan73FHD/9bDZzrLnqbTMmJiZmPXctcz1XWnez7XPVu9GZEXzZ7eDBg7OO3UitYxcTbFHnb5VqZp+5Pk/F96C7uzs2b96c71/vO6RYNtc5F7e34nuBxan3XdOoXbB79+7Yu3dv9PX1zRo9X+9v2mwdTaWPabZONmNycrLqtWdlmTQeRLJ9sc/fjPQc0joWNfaJOvW8+COj+dyMyAcAWD0kfwGAVS+b6q94O1VqJRaLUytmt3pJ0yhM6Tw4OFhzWsHFyKaFzI7fzOiY1MjISBw8eLDhyJ5W/k3SztXM8Mz197Lj10rWtUKjv9+pPjcWr6enZ9borVo6CtPqZrd0at3TXSvrbVGterKY56p1vEw2XWvxVhyNN5dax15osqwoTZAt5PNU/GFCcd/FnnMrvhdYvEbfNY3aBVl5llSMBfxNa32GFqNWW6ie8fHx2LFjR1VMWKz5PH+z0mM2U8fq1fOsLs/3Np9YBgDA6U3yFwBY1dLrsi2nrFO2OBIjPZdNmzbNunZdI+Pj41WdurVGlqTSDslGjh49Ghs3bszXDx06VLU9mugE3rt3b8NkZiv/JtlU3cURTdn7PTk5GV1dXXl5Mwm8+Wr09zvV50ZrbN26NQ4ePFh1vcxUrbp+ukvreavq7aZNm2ZdrzitQ4t5rkb1rtZzz0etY4+MjMTo6Oic0zynRpNre+7duze/Tu9CPk/FfbPRhZOTky0552a+F1hajb5rGrULip+Ljo6OvD3Q6G9aq57Ue+5m1Po8p/V73759dT/vWRI1+1zPd8aT9L0bHx+PgwcPVu2zWD09PVXPMTk5GUNDQ/kU/7XUel8AAKBZkr8AwKqWjT49VdPi3XzzzVVTNV5++eVV27u7u6O3t7fq/BolmSKZDjW9Ll+qt7c3du3alV+bdC7btm3Lp4jMjl+UXXuzr86U01mCoXiO2S3b1uq/ye7du6umcs2ul5cl7bLypTDX3+9UnhutkyUqin/nXbt2VV3jcffu3bOmZV1okvFU6+zsjK6uruhbgnrb3t4e27Ztq4oR6Y9FFvtc9epdNj1uGp/mIz323r17ZyWymtHV1RVjY2P5cYrXhI4Ffp6y/Xbs2BHbtm3Lk2WLPee5vhdYenN919RrFxQ/Q8Xryzb6mzZTR+drrrbQ6Oho3URpd3d3rF+/Pn/sfK+J293dHT09Pfnjs2sAt9LWrVvzmNk3Uwf7+/sbzuISC6znAAAQEVGZnp6eTgtp3pEjR6JSqURbW1u0tbXVXK5UKjVvEZHfZ9J1ADhdFZsY2XLxfnp6OqampmYtT01NRVtbW5x77rn544HV6dlnn81jQtqWLrapM1k8SW/iyultZGQkDh8+POe0xmWx2l7vchNXWq/Vn9nJycnYsWNHDA4OxuTkZAw2Ma05nEppXCnGl+JyFPr9irEmjTsAAItl5C8AAAAr0uTkZOzdu7fuqD/g1FqKOnrXXXdFT09PxMxIY4lfAACYHyN/F8nIXwCordjEyJaL99momXTZSBogk46kqXUrSkfmGaF3+slG/BVt27at4fT1ZdPqUZRUE1cWZynq6M6dO6uuI97T05NPQQ2ngzSuGPkLAJxqkr+LJPkLALUVmxjZcvE+6zhNl1drZyowW9qZWutWlCZnVnuSBphNXAFaLY0rkr8AwKlm2mcAAAAAAACAEpD8BQAAAAAAACgByV8AAAAAAACAEpD8BQAAAAAAACgByV8AAAAAAACAEpD8BQAAAAAAACgByV8AYNXYuXNn7Nu3Ly1ekSYnJ6Ovry8tBgA4Zfbt2xfDw8NpcW7fvn2xc+fOtLi0RkZGoq+vLyYnJ9NNAABwykj+AgCrxu7du2Pr1q1p8byNj4+3vGNzYGAgRkZG0mIAgFNiIe2drVu3xu7du9PiZTE8PLzsP/Lr7u6OwcHBaG9vTzcBAMApI/kLAAAAAAAAUAKV6enp6bSQ5h05ciQqlUq0tbVFW1tbzeVKpVLzFhH5fSZdB4DTVbGJkS0X76enp2NqamrW8tTUVLS1tcW5556bP75V9u3bF+3t7bFly5aYnJyMHTt2RH9/f+zatSsiIjo6OqpGqwwPD8fQ0FC+PjAwEIcPH64q6+npia1bt8bIyEjs3bs3L9+2bVt0d3dHzEwJePjw4di4cWP+2OxxETFreueBgYGIiNixY0cMDg7G8PBwjI2NxY4dO/J9RkZGYmho6JSNroHl8Oyzz+YxIW1LF9vUmSyepLfliCuHDh2KiYmJGBgYiPb29ti3b18cPHgwokZsGRgYiNHR0Vnbdu7cGdu2bYu9e/fGxMRERBJLYmYkXhazIoklUThGcZ/snKJOXMu2LeSc4XRzOsSVaFAf+/r6or+/Pzo7O/N9i2VZ+yZTjCFpvLrsssvimWeeqdm+2Lx5c832TnaMsbGxPCbUavNkx5xr/2yf7LX29PTExMREbNq0qWqfolpxbHBwMD9+FJ6jXvssi6WDg4P5tuy9y+JisX2WxtpM9pjsOHO1+WqpFV9r/Z137twZvb290d3dPWesj+R9jYiq10prpXGlGF+Ky1Ho9yvGmjTuAAAslpG/AMCq9sgjj8Tg4GDeIZZdx258fDyGhobybdu2bYuIiC1btkR/f390dHTE4OBg3pk3NjaW79vf31/V0RgReafe4OBgDAwMxMGDB2N8fDwv6+rqim3bttWcOnDLli0xOjpadT25w4cPR29vb9V+wKkxNDQUN998c15/h4eHY3R0NI8JXV1d+VSkWYzJtm3evLnqWLt27cqPlcWSLFZkyYos0TE4k+xIr7+ZJTQGBwejp6cnBmfiW724FjPntdBzBlqrUX3s7e2Nw4cP5/uOjIxEV1dXniTcsWNH3p4YGBiIvXv3VrUfivHq6quvrtu+qNfeyY5x+eWX53EkbfOkGu2fvtaNGzdWJXFT9eLYjh07ore3N495WeK4Xvuss7Mzurq6qi65cfjw4ejp6Yn29vYYGBiI3t7e/LFp26yRRm2+VL34mv6ds8cXE+L1Yn3MJIInJiby7dqMAACri+QvALCqFUd1bN68Oe8AzTr5svXu7u6GHX/FTtGsA7bYmdrR0RFbtmyJmDl2V1dXPrKvGT09PXkn4OTkZIyOjtYdEQMsryxZkBkaGqpKrGY/4IiZWHD06NGqbUXbtm3Lj9XZ2Rk9PT3x9NNPR8z8WKW3t7fqubZt2xaHDh3K17OyzKZNm/LnaxTXFnPOQGs1qo+bNm2qGs15+PDh2LRpU8RMIrGrqytvH7S3t0dPT0+MjY3l+6fxaiHti56enrytk+1bbPOkGu1/6NChqtfa3d0dXV1d+XqqURyrpVH7bNOmTVUJ1kOHDuXvZUdHR9Vrmk/cm0+br158rfV3Tn94Uy/WZ3/H4oju+Zw/AACnP8lfAGBVSzsMs8659vb26O/vjx07dkRfX1/VyJBaJicno6+vL79lZZn169cX9n5VvY7AWjZt2pQneLKRKcDKkMaRmBmRlcWDHTt25PW9u7s7Nm/enG9LEyYdHR1V66l0e3t7+6xYku7TbFxb6DkDrVevPmbJxJGRkZrJ2tHR0ar2yMGDB6tiRBqvFtK+SI8RcyR/G+0/MTFRc3s9c8WxVKP2WXd3dz7yORtZmyWIt27dGhMTE9HX1xc7d+4sHHFu82nz1Yuvxb9zRMTBgwfzxHSmXqyfnJyctQ0AgNVF8hcAoI7Ozs58urzi1Kup8fHx/Bpx2f6tlnVGjo+PV41MAVamYjxI48KWLVticGYK0uLIrFomJiaqOvHTBMJ8O/kbxbVWnTOweI3q46ZNm2JsbCzGxsZmJWuz6X+Lt0ajPldi+6I4EraWRnGsqJn2WTbyudbI2uxavps3b46BgYGqba1UL75mI5Ozqb3nkyRPvysAAFhdJH8BAGoYHx+v6kzs6Oio6khLlzs6OvJOublGodQzV0fd5s2b8+kJs87aiIidO3cu+DmB1kuvvVhUvD5vFjOKI+aK18IcGRmpGtW3adOmGBoamrV/mrCop1FcW8g5ZyPqGo34A+avUX2MmdGiBw8erJryOQpTBddLhtZTr30RTbRNFit9rcPDww2fs1EciwW0z7JE+ujoaNV7WYx76dTMrVQvvkZhZPLY2Ni8kvKdnZ3R0dGRXyc6Cs8zMjIy75HMAACcfiR/AQDqKE65WLyGXmdnZ3R1dUVfX1/s27cvuru7Y/369fm+xWvrNevyyy+PoaGhhomUrFO3t7c33QSsINk1JotTjRY7+LOyHTt2VF3jNyKit7c33753796q0Wbd3d2xbdu2fLrTvr6+2Lx5c8NRfal6cW0x5wy01lz1MWaSppEka7MpkYv1vG9mquNG6rUv0vbOUti6dWscPXq06lwbXfM3GsSx7NrIfTPTQTfTPuvs7IyjR4/OGlk7NjaWP27v3r1x8803Vz2ulbLnqRVfe3p6Zk3t3Yzdu3dXTQFe67UDAFBelenp6em0kOYdOXIkKpVKtLW1RVtbW83lSqVS8xYR+X0mXQeA01WxiZEtF++np6djampq1vLU1FS0tbXFueeemz+eV01OTuZTEMJq8Oyzz+YxIW1LF9vUmSyepLfTJa7s3Lkztm3bNmvkHdA6qy2uNGOltS+WOxYu9/PNx759+6K9vX1eP/Jh+aVxpRhfistR6Pcrxpo07gAALJaRvwAAp4nh4eFZ1/YDAFiMldS+yEYYL1ciNpsKermebz4mJyfj4MGD85ryGQAAQvIXAGDlGxkZib6+vpiYmMinggQAWIyV0L7Yt29fPjVxX19fjI6Oxu7du9PdWi67ZvnevXuX5fnma+fOnbFjx47o7+83zT4AAPNm2udFMu0zANRWbGJky8X7bMrEdLlM0ygCi5NOo1jrVpROy1rG6VmBxRFXgFZL44ppnwGAU83IXwAAAAAAAIASkPwFAFacSqUS0yYngVVtenq6pSNhxBVAXAFardVxBQCgFSR/AYBTxnRnQLOajRfN7gfQbLxodj8A8QIAWAkkfwGAFWd6ejpOnDiRFgOryIkTJ1o6ok5cAcQVoNVaHVcAAFpB8hcAWFGyKRRPnjyZbgJWkZMnT7ZsKkVxBQhxBVgCrYwrAACtIvkLAJxStTpKpqen4/jx42kxsIocP3685kiaWjEjVWsfcQUQV4BWW0xcAQBYKpK/AMCSm2/nh2kUgbmmUawVV2qVZcQVQFwBWm2uuFJLo7gCANAKkr8AwCmXdYAUO0Kmp6fjlVdeKewFrBavvPJKVUdqrRgxl1qPEVdg9RJXgFZrRVwBAFgKkr8AwLJptiOkUqnE1NRUvPTSS+kmYBV46aWXYmpqqqmYUalUmt5PXIHVS1wBWm0+cSXm8b8QAMBiSf4CACtC2hkyPT0dJ0+edC09WGWOHz8eJ0+enDWFYhojmpE+RlyB1UlcAVqtlXEFAKDVJH8BgBUl6zCpVCpx8uTJOHbsWLoLUGLHjh2LkydPVsWCxRJXYHUTV4BWW4q4AgDQKpK/AMCSaNQBUpmZTjG7FcuL99PT03H8+HEdqrBKHDt2LI4fP56PokljQho70viR3tLHhrgCq464ArTaXHElW05jRy2NtgEALJTkLwBwyjXqUJ2amoqXX345XnnllarHAOXyyiuvxMsvvxxTU1MRNWLBXJ2nKXEFEFeAVmt1XAEAWAqSvwDAilGr8yRmrqmV/cIeKJ+0jqcxYDGdqOkxxBVYHdI6nsYAcQWYr7SOpzFgMXEFAKCVJH8BgCVT7ACp1ylSbz29f+WVV+KFF16IEydOVO0PnN5OnDgRL7zwQj5aLq37aYxoa/ubf2EqdaZULO6T7VfrXlyBchJXgFabb1ypt14sT/cBAGgVyV8A4JQodqqmnaxpecxcT+/EiRPxk5/8JF588cXCkYDT1Ysvvhg/+clP4sSJE1XXzasXC9L1VK196h0rxBUoJXEFaLVWxxUAgKUm+QsArCi1Okuy5ZMnT8Yrr7wSx44di+effz7vfAFOL9PT0/H888/HsWPH4pVXXomTJ0/WrPPZ8mLVO664AuUhrgCtttxxBQCgVSrT/gtZlCNHjkSlUom2trZoa2uruZw1BtNb1GgcpusAcLpLmxrZ+vT09Kzl6enpmJqaqrmcrp9xxhnxmte8Jl7zmtfE2WefPWs6RmDlmZqaipdeeileeeWVWZ2oabu5uJ5um56ermpTZ7L4kO1TK3aIK1Au4grQaq2KKzFHgjhdBwBoFcnfRZL8BYDG0qZGtl68r3dr1Jk6PdMRe8YZZ8SaNWvijDPOiLVr18aaNWt8n8IKMj0zBeqLL74YJ0+ejBMnTsTJkyfzOpzd0nZzup62o6NG2zmLK9lyrVsaR9J1cQVWPnEFaLWliCtZHU/vM+k6AECrSP4ukuQvAMwtbW5k68X7Zm9ph2r2+DPOOCPa2tpizZo1ERH5+hlnnFF4ZmA5nDx5MqampuLkyZMREXHixIl8vdgOzm6N2sy1bkXZehYPMmnsaHQTV2DlE1eAVluOuJLeZ9J1AIBWkvxdJMlfAJhb2twodoJm983e6nWmFteL37/TM7/WB5ZHVueKdTaSztN0vVGbudatKFvP6n8mjR2NbuIKrGxZnSvW2RBXgEXI6lyxzsYSxJX0PpOuAwC0kuTvIkn+AkBz0iZH2hFaXF7oLT1uUboOtF7alk3bvGl7eL634jEaSWPCYm7ZMYr3xecBllZa34uxILtfzK14jEbSmLCYW3aM4n3xeYClldb3YizI7hdzKx6jeNxMug4A0GqSv4sk+QsAzSs2O2ot1+oYnetW3C89Vnp8YOkV27NpmzdtB891S/erdfysfheXQ1yBUknrfXqfLje6pfvVOn5Wv4vLIa5AqaT1Pr1Plxvd0v3qHT9dBgBYKm1pAQAAAAAAAACnHyN/F8nIXwBoXtrsSEe71BsZU+9Wa99ax03VKgMWplb7tdYIl+J9ulzrVm/f9LhZfU7Xs+V6saLerda+tY6bqlUGLEyxrtcqK8aF7D5drnWrt2963Kw+p+vZcr1YUe9Wa99ax03VKgMWpljXa5UV40J2ny7XutXbNz1uvXUAgKUg+btIkr8AMD9p0yPtAK3XSVq8pWXp44r3mXQdaL20LZu2eYv3aZu4Xln6uOJ9PWkcSONGcbleWfq44n0mXQdaL63vaRxIY0at9bQsfVzxvp40DqRxo7hcryx9XPE+k64DrZfW9zQOpDGj1npalj6ueJ9J1wEAlork7yJJ/gLA/KXNj7QDNO0wrbdca//ifbqcarQNaKxRu7W4LW33Fu/TdnG95Vr3mWw9rc9pPEjjR73lWvsX79PlVKNtQGNp/S4SV4CFSOt30amIKwAAy0Hyd5EkfwFg/mo1P9KO0Fr39ZYb3afqlQMLV68Nm7Z5a93XW250X5SV1arbaTyodV9vudF9ql45sHC16nvUiAe17ustN7ovElegnGrV96gRD2rd11tudF9UqwwAYKlI/i6S5C8ALEzaBCmupx2iC73PpOvA0knbs2m7d6H36XKt9bSuiytQDmldT+PDQu/T5VrraV0XV6Ac0rqexoeF3qfLtdYBAJaa5O8iSf4CwMLUaoLU6lAtLs9132g51Wgb0JxGbdd6naBpO7jefaPlemW16nW9mJDGj3r3jZZTjbYBzUnrdVG9mJDGj3r3jZbrldWq1/ViQho/6t03Wk412gY0J63XRfViQho/6t03Wm5UBgCwlCR/F0nyFwAWrl4zpFaHaKOyWtuKapUBS6NWe7ZWp2h6P1dZql55vfpeK040Kqu1rahWGbA0atX3WnEivZ+rLFWvvF59rxUnGpXV2lZUqwxYGrXqe604kd7PVZaqVw4AsJQkfxdJ8hcAFqdeU6ReB+l8l4vqlQOLV68dW69jdL7LRfXKM/Xqer04Md/lonrlwOLVq+v14sR8l4vqlWfq1fV6cWK+y0X1yoHFq1fX68WJ+S4X1SsHAFhqkr+LJPkLAItXrzmSltfrME33q1dWNNd2YG5ztV1rba/XWZrum65n6pWn6tXxtLxeLEn3q1dWNNd2YG5z1fFa2+vFknTfdD1TrzxVr46n5fViSbpfvbKiubYDc5urjtfaXi+WpPum65l65QAAy0Hyd5EkfwGgNeo1SWqVp2Xper0yYHnVatumZel6vbJoUF5PvThQqzwtS9frlQHLq1YcSMvS9Xpl0aC8nnpxoFZ5Wpau1ysDlletOJCWpev1yqJBOQDAcpH8XSTJXwBorUZNk3Rbup6pVw4sv3rt27Q8XS9qtK0ZjWJCui1dz9QrB5ZfvZiQlqfrRY22NaNRTEi3peuZeuXA8qsXE9LydL2o0TYAgOUk+btIkr8AsDTqNVHmWw6sHPXauvMtX6h6cWK+5cDKUS9OzLd8oerFifmWAytHvTgx33IAgFOlLS0AAFgJ6nWipD+kqlVebx9geaT1sFZ9rFeeqVe+GPWOWe9c0vOvtQ+wPNJ6WKs+1ivP1CtfjHrHrHcu6fnX2gdYHmk9rFUf65Vn6pUDAJxKRv4ukpG/ALC0mm2qNLsfcOo029Ztdr+FajZeNLsfcOo0Gy+a3W+hmo0Xze4HnDrNxotm9wMAWG5G/gIAK1rxR1ONpD+ySm/A0kvrXXqbS7P7LVazz5Oef3oDll5a79LbXJrdb7GafZ70/NMbsPTSepfe5tLsfgAAp4qRv4tk5C8ALD/NFyiPldL+FVegPMQVoNVWSlwBAGiGkb8AwGkn/UGVzhg4PaT1diXV3fS8VtK5AfWl9XYl1d30vFbSuQH1pfVW3QUATjeSvwBAKeicgZXpdK6bp/O5Q5mdznXzdD53KDN1EwAoE9M+L5JpnwEAAAAAAICVwMhfAAAAAAAAgBKQ/AUAAAAAAAAoAclfAAAAAAAAgBKQ/AUAAAAAAAAoAclfAAAAAAAAgBKQ/AUAAAAAAAAoAclfAAAAAAAAgBKQ/AUAAAAAAAAoAclfAAAAAAAAgBKQ/AUAAAAAAAAoAclfAAAAAAAAgBKQ/AUAAAAAAAAoAclfAAAAAAAAgBKQ/AUAAAAAAAAoAclfAAAAAAAAgBKQ/AUAAAAAAAAoAclfAAAAAAAAgBKQ/AUAAAAAAAAoAclfAAAAAAAAgBKQ/AUAAAAAAAAoAclfAAAAAAAAgBKQ/AUAAAAAAAAoAclfAAAAAAAAgBKQ/AUAAAAAAAAoAclfAAAAAAAAgBKQ/AUAAAAAAAAoAclfAAAAAAAAgBKQ/AUAAAAAAAAoAclfAAAAAAAAgBKQ/AUAAAAAAAAoAclfAAAAAAAAgBKQ/AUAAAAAAAAoAclfAAAAAAAAgBKQ/AUAAAAAAAAoAclfAAAAAAAAgBKQ/AUAAAAAAAAoAclfAAAAAAAAgBKQ/AUAAAAAAAAoAclfAAAAAAAAgBKQ/AUAAAAAAAAoAclfAAAAAAAAgBKQ/AUAAAAAAAAoAclfAAAAAAAAgBKQ/AUAAAAAAAAoAclfAAAAAAAAgBKQ/AUAAAAAAAAoAclfAAAAAAAAgBKQ/AUAAAAAAAAoAclfAAAAAAAAgBKQ/AUAAAAAAAAoAclfAAAAAAAAgBKQ/AUAAAAAAAAoAclfAAAAAAAAgBKQ/AUAAAAAAAAoAclfAAAAAAAAgBKQ/AUAAAAAAAAoAclfAAAAAAAAgBKQ/AUAAAAAAAAoAclfAAAAAAAAgBKQ/AUAAAAAAAAoAclfAAAAAAAAgBKQ/AUAAAAAAAAoAclfAAAAAAAAgBKQ/AUAAAAAAAAoAclfAAAAAAAAgBKQ/AUAAAAAAAAoAclfAAAAAAAAgBKQ/AUAAAAAAAAoAclfAAAAAAAAgBKQ/AUAAAAAAAAoAclfAAAAAAAAgBKQ/AUAAAAAAAAoAclfAAAAAAAAgBKQ/AUAAAAAAAAoAclfAAAAAAAAgBKQ/AUAAAAAAAAoAclfAAAAAAAAgBKQ/AUAAAAAAAAoAclfAAAAAAAAgBKQ/AUAAAAAAAAoAclfAAAAAAAAgBKQ/AUAAAAAAAAoAclfAAAAAAAAgBKQ/AUAAAAAAAAoAclfAAAAAAAAgBKQ/AUAAAAAAAAoAclfAAAAAAAAgBKQ/AUAAAAAAAAoAclfAAAAAAAAgBKQ/AUAAAAAAAAoAclfAAAAAAAAgBKQ/AUAAAAAAAAoAclfAAAAAAAAgBKQ/AUAAAAAAAAoAclfAAAAAAAAgBKQ/AUAAAAAAAAoAclfAAAAAAAAgBKQ/AUAAAAAAAAoAclfAAAAAAAAgBKQ/AUAAAAAAAAoAclfAAAAAAAAgBKQ/AUAAAAAAAAoAclfAAAAAAAAgBKQ/AUAAAAAAAAoAclfAAAAAAAAgBKQ/AUAAAAAAAAoAclfAAAAAAAAgBKQ/AUAAAAAAAAoAclfAAAAAAAAgBKQ/AUAAAAAAAAoAclfAAAAAAAAgBKQ/AUAAAAAAAAoAclfAAAAAAAAgBKQ/AUAAAAAAAAoAclfAAAAAAAAgBKQ/AUAAAAAAAAoAclfAAAAAAAAgBKQ/AUAAAAAAAAoAclfAAAAAAAAgBKQ/AUAAAAAAAAoAclfAAAAAAAAgBKQ/AUAAAAAAAAoAclfAAAAAAAAgBKQ/AUAAAAAAAAoAclfAAAAAAAAgBKQ/AUAAAAAAAAoAclfAAAAAAAAgBKQ/AUAAAAAAAAoAclfAAAAAAAAgBKQ/AUAAAAAAAAoAclfAAAAAAAAgBKQ/AUAAAAAAAAoAclfAAAAAAAAgBKQ/AUAAAAAAAAoAclfAAAAAAAAgBKQ/AUAAAAAAAAoAclfAAAAAAAAgBKQ/AUAAAAAAAAoAclfAAAAAAAAgBKQ/AUAAAAAAAAoAclfAAAAAAAAgBKQ/AUAAAAAAAAoAclfAAAAAAAAgBKQ/AUAAAAAAAAoAclfAAAAAAAAgBKQ/AUAAAAAAAAoAclfAAAAAAAAgBKQ/AUAAAAAAAAoAclfAAAAAAAAgBKQ/AUAAAAAAAAoAclfAAAAAAAAgBKQ/AUAAAAAAAAoAclfAAAAAAAAgBKQ/AUAAAAAAAAoAclfAAAAAAAAgBKQ/AUAAAAAAAAoAclfAAAAAAAAgBKQ/AUAAAAAAAAoAclfAAAAAAAAgBKQ/AUAAAAAAAAoAclfAAAAAAAAgBKQ/AUAAAAAAAAoAclfAAAAAAAAgBKQ/AUAAAAAAAAoAclfAAAAAAAAgBKQ/AUAAAAAAAAoAclfAAAAAAAAgBKQ/AUAAAAAAAAoAclfAAAAAAAAgBKQ/AUAAAAAAAAoAclfAAAAAAAAgBKQ/AUAAAAAAAAoAclfAAAAAAAAgBKQ/AUAAAAAAAAoAclfAAAAAAAAgBKQ/AUAAAAAAAAoAclfAAAAAAAAgBKQ/AUAAAAAAAAoAclfAAAAAAAAgBKQ/AUAAAAAAAAogcr09PR0WrgcTpyYiuPHT8SJk1MxNTUd01PTMTVzKm2VSlTaKtHWVok1Z7TFmWeuiTVrVmae+siRI1GpVKKtrS3a2tpqLlcqlZq3iMjvM+k6AAAAAAAAQDOWNfl78uRUvPzKiXjllRMxNTW/p21rq8RrXrMmznrNmjjjjJWTCJb8BQAAAAAAAFaCZcmiTk9Px7Fjr8Rzz78YL710fN6J34iIqanpeOml4/Hc8y/GsWOvxDLmrAEAAAAAAABWvCVP/r788ol47rkX46WXj6ebFuyll4/Hc8+9GC+/fCLdBAAAAAAAALAqLWny99ixV+Knx17Or+XbSlPT0/HTYy/HsWOvpJsAAAAAAAAAVp0lS/7+5IWXWjrat56XXj4eP3nhpbQYAAAAAAAAYFVZkuTvT154KY4fP5kWL5njx09KAAMAAAAAAACrWsuTv8eOvbKsid/M8eMnTQENAAAAAAAArFotTf6+/PKJZZnquZ6XXj4eL798Ii0GAAAAAAAAKL2WJX+np6fjxRdP/cjbF198Jaanp9NiAAAAAAAAgFKrTLcoU3rs2CsLGvX7xJPfiz9/6pn47l8ejb/6wbN5+TsvemtcdP7fjnde9Atx9llnVj1mLmefdWasW/eatHhJHDlyJCqVSrS1tUVbW1vN5UqlUvMWEfl9Jl0HAAAAAAAAaEZLkr8nT07Fc8+/mBY39PT4D+IPH/xmVcK3nt/6J78al/yjt6fFDb3hnLVxxhktG9hcl+QvAAAAAAAAsBK0JPl77MVX4qWXmh/1+0df+XYMffnPIiLinNevjfdf9svxi29bH7/wt9dHRMSPnzsW/+3pv4rD3/zvMfYXfx0RERv/7s/F9o/9etOjgM8++8xYt3bpR/9K/gIAAAAAAAArQUuSvz9+7lhMTTV3mGLi97L3nh+Xvff8+Jk3rEt3y4385/8eg/sPRkTEm3/+3Pg/b7ki3aWmtrZKw+O2iuQvAAAAAAAAsBIsOvl74sRUPP+T5qZ8fnr8B7Hn3v8YkUzl/NLLx2P4PzwRX/vGUxEzo3z/xW9tip970xsiIuKvf/hc3Ppv/n3ETML4n13xK/kxGznn9WtjzZqlnfpZ8hcAAAAAAABYCRadGT1+/ERaVNcfPvjNiIjY/O7O2PTuv5eX33vfH+eJ34iIsb/467j13/z7+PFzxyIi4ufe9Ibou6YnIiK+9o2n4q9/+Fy+byPzOTcAAAAAAACA09mik78nTk6lRTU98eT34q9+8Gyc8/q18ZuXXpBfu/eJJ7+XX9f3pu3/W+y54+p488+fGxGRTw8dEdH9D/5ebPy7PxcREV/5+nfy8kaaPTcAAAAAAACA092ik7/NXuv3z596JiIiLjz/Lfl0zhERP/rRTyNmpno+r/Pn42fesC7+YffGiIg4evT5fL+IiE2/+upo4UN/Ol5VXk+z5wYAAAAAAABwult08ne6yQTrd//yaEREdP7iz1aVv/GNr42Ymer56fEfxI+fOxb/aWQsIiLWrz+nat+3n/fmfLmZqZ+bPTcAAAAAAACA092ik79T080lWP/qB89GRMQbz31dVfk7LnxrPp3znnv/Y9x06wNV00MX/cwb1uXLP/7xq9cDbqTZcwMAAAAAAAA43S06+dsK2z/263HZe8+Pc16/NiIiNr+7Mz75sUurpocGAAAAAAAAoL5FJ3/bKpW0qKY3//y5ERHxo2dfSDfF2WedGf/sil+Jf3vnb8Xee/viwx/cHL/wt9enu8WPn/ub0b4/8zN/Mwq4nmbPDQAAAAAAAOB0t+jkb6WtuQTr3/mFV5O54//jf6Wbmvbd77163eBzXr+2agroepo9NwAAAAAAAIDTXWV6enEXxv3JCy/F8eMn0+JZnnjye/H/u/9ARETc8a//ST6l8xNPfi/++//4X/FfR/8qvy5wzEz93PmLPxvvvOgX4uyzzoyIiP/jzofjr37wbGx+d2d8+IOb833rOfPMM+L1rzs7LW6pI0eORKVSiba2tmhra6u5XKlUat4iIr/PpOsAAAAAAAAAzVh08vfFF1+JF186nhbXlCVv33nRW+O9PW+PP3zwm1UJ33p+65/8aqxde2YM7j8YkSSPG1l79pmxdu1r0uKWkvwFAAAAAAAAVoJFJ39PnJiK53/yYlpc09PjP4g99/7HqrJzXr823vsPu+L8t785fu5nfybOPuvM+OsfPhf/87s/jK8eeGpWcviy954f/+yKX6kqq+ec16+NNWsWPbN1Q5K/AAAAAAAAwEqw6ORvRMSPnzsWU1PNHeaPvvLtGPryn0VExJt//tz4+Lb3NhzF+9nfPxB/9u3vRUTExr/7c7H9Y7+eTwPdSFtbpanrAi+W5C8AAAAAAACwErQk+XvsxVfipSanfo4kAXzO69fG+y/75filt785TwL/+Llj8d3vHY2vP/ZfY+wv/joiIt550Vvjg1e9u+mE7tlnnxnrlnjK55D8BQAAAAAAAFaIliR/T56ciueeb27q58zT4z9o6pq/WXJ407v/XlMjfjNvOGdtnHHG0k75HJK/AAAAAAAAwArRkuRvRMSxY6/ESy83P/o388ST34s/f+qZ+O5fHs0Twee8fm383V98U1x0/t+Ot5/35qZH+2bOPuvMWLdu6Uf9huQvAAAAAAAAsEK0LPk7PT0dzz33Yky15nAL1lapxBvesHbZkqiSvwAAAAAAAMBK0LJ5kSuVSqxdhmvszmXt2tdIoAIAAAAAAACrTsuSvxERZ521Zl7X5W21s886M846a01aDAAAAAAAAFB6LU3+RkSsW/eaOPPMM9LiJXfmmWcs23V+AQAAAAAAAFaalid/IyJe/7qzlzUBfOaZZ8TrX3d2WgwAAAAAAACwaixJ8jdmEsDLMQX02WedKfELAAAAAAAArHpLlvyNmSmgX7vurGirVNJNi9ZWqcRr151lqmcAAAAAAACApU7+RkScddaaeMMb1rZ0FPDZZ50Zb3jD2jjrrDXpJgAAAAAAAIBVacmTvxERlUol1q17TbzhnLVx9tlnRlvb/EcCt7VV4uyzz4w3nLM21q17TVSWYDQxAAAAAAAAwOmqMj09PZ0WLocTJ6bi+PETceLkVExNTcf01HRMzZxKW6USlbZKtLVVYs0ZbXHmmWtizZplyVPP25EjR6JSqURbW1u0tbXVXK5UKjVvMZMYL0rXAQAAAAAAAJpxypK/ZSH5CwAAAAAAAKwEK3M4LQAAAAAAAADzIvkLAAAAAAAAUAKSvwAAAAAAAAAlIPkLAAAAAAAAUAKSvwAAAAAAAAAlIPkLAAAAAAAAUAKSvwAAAAAAAAAlIPkLAAAAAAAAUAKSvwAAAAAAAAAlIPkLAAAAAAAAUAKSvwAAAAAAAAAlIPkLAAAAAAAAUAKSvwAAAAAAAAAlIPkLAAAAAAAAUAKSvwAAAAAAAAAlIPkLAAAAAAAAUAKSvwAAAAAAAAAlIPkLAAAAAAAAUAKSvwAAAAAAAAAlIPkLAAAAAAAAUAKSvwAAAAAAAAAlIPkLAAAAAAAAUAKSvwAAAAAAAAAlIPkLAAAAAAAAUAKSvwAAAAAAAAAlIPkLAAAAAAAAUAKSvwAAAAAAAAAlIPkLAAAAAAAAUAKSvwAAAAAAAAAlIPkLAAAAAAAAUAKSvwAAAAAAAAAlIPkLAAAAAAAAUAKSvwAAAAAAAAAlIPkLAAAAAAAAUAKSvwAAAAAAAAAlIPkLAAAAAAAAUAKSvwAAAAAAAAAlIPkLAAAAAAAAUAKSvwAAAAAAAAAlIPkLAAAAAAAAUAKSvwAAAAAAAAAlIPkLAAAAAAAAUAKSvwAAAAAAAAAlIPkLAAAAAAAAUAKSvwAAAAAAAAAlIPkLAAAAAAAAUAKSvwAAAAAAAAAlIPkLAAAAAAAAUAKSvwAAAAAAAAAlIPkLAAAAAAAAUAKSvwAAAAAAAAAlIPkLAAAAAAAAUAKSvwAAAAAAAAAlIPkLAAAAAAAAUAKSvwAAAAAAAAAlIPkLAAAAAAAAUAKSvwAAAAAAAAAlIPkLAAAAAAAAUAKSvwAAAAAAAAAlIPkLAAAAAAAAUAKSvwAAAAAAAAAlIPkLAAAAAAAAUAKSvwAAAAAAAAAlIPkLAAAAAAAAUAKSvwAAAAAAAAAlIPkLAAAAAAAAUAKSvwAAAAAAAAAlIPkLAAAAAAAAUAKSvwAAAAAAAAAlIPkLAAAAAAAAUAKSvwAAAAAAAAAlIPkLAAAAAAAAUAKSvwAAAAAAAAAlIPkLAAAAAAAAUAKSvwAAAAAAAAAlIPkLAAAAAAAAUAKSvwAAAAAAAAAlIPkLAAAAAAAAUAKSvwAAAAAAAAAlIPkLAAAAAAAAUAKSvwAAAAAAAAAlIPkLAAAAAAAAUAKSvwAAAAAAAAAlIPkLAAAAAAAAUAKSvwAAAAAAAAAlIPkLAAAAAAAAUAKSvwAAAAAAAAAlIPkLAAAAAAAAUAKSvwAAAAAAAAAlIPkLAAAAAAAAUAKSvwAAAAAAAAAlIPkLAAAAAAAAUAKSvwAAAAAAAAAlIPkLAAAAAAAAUAKSvy1QqVTSIgAAAAAAAIBlJfkLAAAAAAAAUAKSvwAAAAAAAAAlIPnbYqaABgAAAAAAAE4FyV8AAAAAAACAEpD8BQAAAAAAACgByd8WMd0zAAAAAAAAcCpJ/i6SpC8AAAAAAACwEkj+LoEsISwxDAAAAAAAACwXyd8WaCbZ22gbAAAAAAAAwGJJ/i5SmtRtlAiuVVY013YAAAAAAACAeiR/W6RR4ra4rdF+AAAAAAAAAAsl+btIlUpl1mhfyV4AAAAAAABguUn+tkCtBHC6DAAAAAAAALCUJH8XqV6yt1Hit1aiGAAAAAAAAGAxJH8XKRv1W0zopkngtAwAAAAAAACg1SR/F6mY3E0TwGnCN10HAAAAAAAAaBXJ30VKk78SvAAAAAAAAMCpIPm7SGnit96tuH/xPi0HAAAAAAAAWAjJ30VKk7z1krj1ygEAAAAAAABa4f8P8AaUMSkre3MAAAAASUVORK5CYII=;" vertex="1" parent="1">
                    <mxGeometry x="1230" y="173" width="849" height="467.64" as="geometry"/>
                </mxCell>
                <mxCell id="49" value="" style="shape=image;verticalLabelPosition=bottom;labelBackgroundColor=default;verticalAlign=top;aspect=fixed;imageAspect=0;image=data:image/png,iVBORw0KGgoAAAANSUhEUgAAB38AAAQhCAYAAAAtTUUEAAAAAXNSR0IArs4c6QAAAARnQU1BAACxjwv8YQUAAAAJcEhZcwAADsMAAA7DAcdvqGQAAN6fSURBVHhe7P19fJxnfSf6f2f8LIc8YMdJCEoTCjhLY16Js4SHxBtoFRxq1w1xT4ubUAj4JA2mUs82AqrllIWzxyS19uyRqMtufimpXzgN3YMC65Mc4mJvm7UDC1s7KXHZOLRNsIghfiBxsGXLD5rfH3imM5dG0kiakeTb7/frdb/mvh5mNDOa0ei+P3NdV+6nR44WYsLl0ooGqfWhDXV/ar3+6KW3PNQ9GEp6/ZH8/PaH+imFQbc3fP9U8dq19q80+muP9v4O7v9zQ/evbqT+Q7UDjCz9yzPSX5S0PzXKjfDMFpJndqT+5cqvOsarlRvFTQx5G6nibdbav17Sx1KPn5/eZlE9bhuA+hnq73U1tf4Nr7jN4a40mh8+kuF+DmNS7ddTr6e52m0z8cp/DyP9bmv5nRXSfiOcjhmyf2qI6w/qP1S/M0z6sIrGe6ww0tNT79tNb2+oflGlb7mxXi+qXHek/rUazXtnrMb7+wZgassVCulZTkbjlVdeiVwuF7nTJ4eL++Vbsb7aZVFaBgAAAAAAABiNfFrB6BQKhdJWrU62DgAAAAAAAEwE4e84pUHvUGHvUPUAAAAAAAAA9SD8Hac0+B1qK+9ffpnWAwAAAAAAAIyF8Hec0pBXiAsAAAAAAABMBuHvOFULftNyeV8AAAAAAACARhD+jlMa9Kahb9oOAAAAAAAA0AjC33FKg95q+6nyoBgAAAAAAACgHoS/dZCO/C2vBwAAAAAAAJgIwt9xqhb8CoABAAAAAACAiSb8rZPhQl5hMAAAAAAAANBowt9xSsPcaqN/07ahjNQOAAAAAAAAMBThbx0MF/gWDdcGAAAAAAAAMF7C3waoJQwGAAAAAAAAqCfh7zgJeAEAAAAAAICpQPhbJ0JgAAAAAAAAYDIJfwEAAAAAAAAyQPgLAAAAAAAAkAHC3zoz/TMAAAAAAAAwGYS/AAAAAAAAABkg/AUAAAAAAADIAOFvHZjqGQAAAAAAAJhswl8AAAAAAACADBD+AgAAAAAAAGSA8BcAAAAAAAAgA4S/AAAAAAAAABkg/AUAAAAAAADIAOEvAAAAAAAAQAYIfwEAAAAAAAAyQPgLAAAAAAAAkAHCXwAAAAAAAIAMEP4CAAAAAAAAZIDwFwAAAAAAACADhL8AAAAAAAAAGSD8BQAAAAAAAMgA4S8AAAAAAABABgh/AQAAAAAAADJA+AsAAAAAAACQAcJfAAAAAAAAgAwQ/gIAAAAAAABkgPAXAAAAAAAAIAOEvwAAAAAAAAAZIPwFAAAAAAAAyADhLwAAAAAAAEAGCH8BAAAAAAAAMkD4CwAAAAAAAJABwl8AAAAAAACADBD+AgAAAAAAAGSA8BcAAAAAAAAgA4S/AAAAAAAAABkg/AUAAAAAAADIAOEvAAAAAAAAQAYIfwEAAAAAAAAyQPgLAAAAAAAAkAHCXwAAAAAAAIAMEP4CAAAAAAAAZIDwFwAAAAAAACADhL8AAAAAAAAAGSD8BQAAAAAAAMiAXKFQKKSV9fbij1+O5/7hJ3Hg4OF4/of7K9oWXHhuXDjvNbHwTRfHG99wUUXbmWDv3r2Ry+Uin89HPp+vup/L5apuEVG6LErLAAAAAAAAALVoWPj705ePxKZvPBX/7cnd8cqhvrR5SO942y/Grb927RkTBAt/AQAAAAAAgKmg7uFvMfTd9P89lTaNyi9deWl86Levn/IhsPAXAAAAAAAAmArqGv7+9bb/GV/4T1vS6pJ3vO0XS9M8R0T0HT0ez/9wfzz73I+HHB38K+9+S3zk9iUxZ/bMtGlKEP4CAAAAAAAAU0Fdwt+jx47HlzZui61/8/20KVb86jVx7dWXxxvfsGDYAPfFH78c3/rOP8Q3vvm9QUHwZa+fF+1t74tLL7mgon4qEP4CAAAAAAAAU0Fdwt8//4vtg6Z5fsfbfjFu+813jjqwPXrseDz6+N/Fw1/97xX155/XFF9a/9GKuqlA+AsAAAAAAABMBXUJf48eOx5rOx+Nv3/2xTj/vKb44AfeFe9Z8i/SbhGn+7649+WIiHjtBefEay+Ym3aJOD0SeF3XN2LPjw7G+ec1RccfLJ+S6/8KfwEAAAAAAICpoC7hb5RN/bz0l68aFNI+8/0fxY6nX4j/9uTuQVM6x+lRwjfecGW89ZdeXzE19HC3OVUIfwEAAAAAAICpoG7hbzUv/vjl+I9/9tfx98++mDYN6bMd749Fb3l9Wj1lCX8BAAAAAACAqaBh4e93dvxT3PcfHkura/Ir735LrFn9K2n1lCT8BQAAAAAAAKaChoS/5WsAF51/XlO876a3xjVvvSzmzJkZr71gbry49+XoffGn8V8eeyr2/OhgRd+pusZvSvgLAAAAAAAATAUNCX8jCYBX/cY74ldufEu89oK5abeSv972P+PLX/lWRMQZE/yG8BcAAAAAAACYIhoW/sbpAPh7f/+jePu1b0ibqnrxxy/H0aPHz5jgN4S/AAAAAAAAwBTR0PC3mu/s+Kc4cOBnsf/gz+IXmufFO972izFn9sy02xlD+AsAAAAAAABMBRMW/r7445djXdc3Ktb2Lfrk/7as5tHBU43wFwAAAAAAAJgK8mlFo7z2grnxmnNmp9Vx/nlNMW+YtYABAAAAAAAAGNmEhb9zZs+MjnuWxy9deWmp7vzzmqLjD5afUWv8AgAAAAAAAExFExb+RhIAC34BAAAAAAAA6mfC1vwtd/TY8fjpy0fi0ksuSJvOONb8BQAAAAAAAKaCCR35WzRn9sxMBL8AAAAAAAAAU8WkhL8AAAAAAAAA1JfwFwAAAAAAACADhL8AAAAAAAAAGSD8BQAAAAAAAMgA4S8AAAAAAABABgh/AQAAAAAAADJA+AsAAAAAAACQAcJfAAAAAAAAgAwQ/gIAAAAAAABkgPAXAAAAAAAAIAOEvwAAAAAAAAAZIPwFAAAAAAAAyADhLwAAAAAAAEAGCH8BAAAAAAAAMkD4CwAAAAAAAJABwl8AAAAAAACADBD+AgAAAAAAAGSA8BcAAAAAAAAgA4S/AAAAAAAAABkg/AUAAAAAAADIAOEvAAAAAAAAQAYIfwEAAAAAAAAyQPgLAAAAAAAAkAHCXwAAAAAAAIAMEP4CAAAAAAAAZIDwFwAAAAAAACADhL8AAAAAAAAAGSD8BQAAAAAAAMgA4S8AAAAAAABABgh/AQAAAAAAADJA+AsAAAAAAACQAcJfAAAAAAAAgAwQ/gIAAAAAAABkgPAXAAAAAAAAIAOEvwAAAAAAAAAZIPwFAAAAAAAAyADhLwAAAAAAAEAGCH8BAAAAAAAAMkD4CwAAAAAAAJABwl8AAAAAAACADBD+AgAAAAAAAGSA8BcAAAAAAAAgA4S/AAAAAAAAABkg/AUAAAAAAADIAOEvAAAAAAAAQAYIfwEAAAAAAAAyQPgLAAAAAAAAkAHCXwAAAAAAAIAMEP4CAAAAAAAAZIDwFwAAAAAAACADhL8AAAAAAAAAGSD8BQAAAAAAAMgA4S8AAAAAAABABgh/AQAAAAAAADJA+AsAAAAAAACQAcJfAAAAAAAAgAwQ/gIAAAAAAABkgPAXAAAAAAAAIAOEvwAAAAAAAAAZIPwFAAAAAAAAyADhLwAAAAAAAEAGCH8BAAAAAAAAMkD4CwAAAAAAAJABwl8AAAAAAACADBD+AgAAAAAAAGSA8BcAAAAAAAAgA4S/AAAAAAAAABkg/AUAAAAAAADIAOEvAAAAAAAAQAYIfwEAAAAAAAAyQPgLAAAAAAAAkAHCXwAAAAAAAIAMEP4CAAAAAAAAZIDwFwAAAAAAACADhL8AAAAAAAAAGSD8BQAAAAAAAMgA4S8AAAAAAABABgh/AQAAAAAAADJA+AsAAAAAAACQAcJfAAAAAAAAgAwQ/gIAAAAAAABkgPAXAAAAAAAAIAOEvwAAAAAAAAAZIPwFAAAAAAAAyADhLwAAAAAAAEAG5AqFQiGtzJL3vOc9FeW//uu/riiP1969eyOXy0U+n498Pl91P5fLVd0ionRZlJYBAAAAAAAAanFWjfytc+4LAAAAAAAAMGWcNeGv4BcAAAAAAADIsrMi/BX8AgAAAAAAAFmX+TV/I76clD+YlMfHmr8AAAAAAADAVJDZkb87Ojtj0/LlcXT/zdGV+53oyv1OPNH2t2k3AAAAAAAAgEzIbPh7uLc3Ln33u+P7GzZERMQN69bF093dcXT//rQrAAAAAAAAwBkvs+HvRdddF9vb22N7e3tc3doal998c9oFAAAAAAAAIDMyG/5eedttccO6dXHFsmVxY1dXvPD443HFsmUx58IL064AAAAAAAAAZ7xcoVAopJVZ1Lt1azzS0hJtdX64e/fujVwuF/l8PvL5fNX9XC5XdYuI0mVRWgYAAAAAAACoRWZH/gIAAAAAAACcTTI78ndHZ2dsb29Pq438BQAAAAAAADIps+HvRBH+AgAAAAAAAFNBZqd93tHZGU+0tcWzDz0Um5Yvj96tW6NLsAoAAAAAAABkVGbDXwAAAAAAAICzSWanfbbmLwAAAAAAAHA2yWz4e3T//phz4YUVdQd37Yp5V11VUTdewl8AAAAAAABgKsjstM/f37AhunK5OLhrV0REbFq+PDYuWpR2AwAAAAAAAMiEzIa/l998c0REbFy0KLpyuXj+scfi6tbWtBsAAAAAAABAJmQ2/J131VUVYe8Vy5bFjV1dFX0AAAAAAAAAsiKz4e+Ozs54urs7rli2LJZu3BjPP/ZYdFlPFwAAAAAAAMiozIa/ERFthUKsePTRuPK226KtUIgrli1LuwAAAAAAAABkQq5QKBTSSmq3d+/eyOVykc/nI5/PV93P5XJVt4goXRalZQAAAAAAAIBaZDb83dHZGdvb29PqaKvzwxX+AgAAAAAAAFNBZsPfiSL8BQAAAAAAAKaCzK75e3DXrujK5aIrl4sdnZ1pMwAAAAAAAECmZDb8feHxx0v729vb4+j+/RXtAAAAAAAAAFmS2fA3IuKGdetKa/z2vfRS2gwAAAAAAACQGZkOf7e3t0fX6TV0Ny5aVNoHAAAAAAAAyJpcoXB6aCxjsnfv3sjlcpHP5yOfz1fdz+VyVbeIKF0WpWUAAAAAAACAWmR65C8AAAAAAADA2SLz4e+zDz1kumcAAAAAAAAg8zIb/hZD38233x4REV25XDzR1pZ2AwAAAAAAAMiEzIa/L333u7F048ZoKxSirVCIO/fti6e7u+Po/v1pVwAAAAAAAIAzXq5QKBTSyix49qGHSqN+y7XV+eHu3bs3crlc5PP5yOfzVfdzuVzVLSJKl0VpGQAAAAAAAKAWmR35e+Vtt8WtW7aUylcsW1b34BcAAAAAAABgqsjsyN+JYuQvAAAAAAAAMBVkduRv6tmHHoquXM6avwAAAAAAAEAmnTXh7y+8971xdWtrzLnwwrQJAAAAAAAA4Ix3Vkz7fHT//rh/wYKGrPlr2mcAAAAAAABgKsjsyN8dnZ3RlctFVy4X9y9YEBERXYJVAAAAAAAAIKMyG/4W3bplS9y5b19ERENG/gIAAAAAAABMBZmf9nnT8uXx/GOPRTQo/DXtMwAAAAAAADAVZH7k74pHH42lGzem1QAAAAAAAACZkvmRv41m5C8AAAAAAAAwFWR25O+Ozs7YtHx5Wg0AAAAAAACQSZkNfyMinn/ssejK5YTAAAAAAAAAQOZlftrnrmQa5bY6P1zTPgMAAAAAAABTwYSGvwMDhThx4mScPDUQAwOFqPePnjVzesyaNSPi9LTP29vbIyLihnXr4tp77kl614fwFwAAAAAAAJgKJmTa54GBQhw9ejwOHzkW/cdPxqlTA3UPfqtZunFjtBUKDQt+AQAAAAAAAKaKho/8PX7iZBw7diKtbojykb8TxchfAAAAAAAAYCpo6Mjf/v4TExb8pnq3bo2uXC6eaGuLTcuXl/YBAAAAAAAAsqhh4e/xEyej//jJtHrC7HvqqYiIeLq7O55/7LFYunFjPN3dHRERp04NJL0BAAAAAAAAzmwNCX8HBgqTNuK33NKNG+PWLVvi6tbW+IX3vrdUf/LkqRgYaOhs1wAAAAAAAAATqiHhb3//5Ae/ERGbb789Hmlpiae7u+P+BQsq2qbKfQQAAAAAAACoh1yhUKjrENiBgUIcPnIsrZ4Qs2ZOj1mzZqTVg/T3n4j+4yfjnLmzI5/Ppc2jsnfv3sjlcpHP5yOfz1fdz+VyVbeIKF0WpWUAAAAAAACAWtR95O+JE5O3zu9onUn3FQAAAAAAAGA4dQ9/T54aSKsmTe/WrdGVy0VXLhc7OjvT5il1XwEAAAAAAADGo+7h78BAXWeRHrPerVvjkZaWUnl7e/ugAHiq3FcAAAAAAACA8ap7+FvnJYTHbN9TT0VERFuhEG2FQtywbl1sb2+v6DNV7isAAAAAAADAeOUKdU5AX/3Z0bRqWM//cH/833/6V3Ho1dFdr5p/97+vjLcsfF1EROzo7IzDvb1xY1dXRNlI4LZCIfr7T0T/8Z+v93vua+ZU3MZo7d27N3K5XOTz+cjn81X3c7lc1S0iSpdFaRkAAAAAAACgFnUf+Tta9Qp+IyKe+fveivLT3d2lNX/Lp4AGAAAAAAAAyJpJH/n74bsfiIiIT/7+r8a/OD1qdyw+fPcD8Vu3Xhe/devb06ZBjPwFAAAAAAAAsmbSR/4CAAAAAAAAMH6ZDX93dHbGE21t8exDD8Wm5cujd+vW6DKqFgAAAAAAAMiozIa/AAAAAAAAAGeTTIe/T3d3x+bbb4/nH3ssHmlpSZsBAAAAAAAAMiPT4W/R1a2t0VYoRFuhkDYBAAAAAAAAZEJmw99r77knbt2yJeL0COCuXM6avwAAAAAAAEBmZTb8jYj4p02b0ioAAAAAAACATMps+LujszOe7u6OiIhbt2wx7TMAAAAAAACQaZkNf8s90tISXblcHNy1K20CAAAAAAAAyITMhr/X3nNPabRvW6EQV7e2xsZFi9JuAAAAAAAAAJmQ2fB3R2dndOVypa04BTQAAAAAAABAFuUKhfouhPvqz46mVcP68N0PRETEJ3//V+PvdvXG41ueSbvU7LduvS5+69a3R5wOf7e3t8ed+/bFnAsvrOjX338i+o+fjIiIc18zp6JttPbu3Ru5XC7y+Xzk8/mq+7lcruoWEaXLorQMAAAAAAAAUIspM/L3of/87XEFvxERi36pubR/7T33xK1btsT9CxZEVy4XT7S1VfQFAAAAAAAAyJIpM/I3IuLKN10Sd33kPXHB+U0VfWo1a+b0mDVrRkRE9G7dGo+0tFS0X93aGjd2dRn5CwAAAAAAAGTOlBn5O97gN7XvqafiimXLoq1QiLZCIZZu3GjdXwAAAAAAACCzpkT4W+/gFwAAAAAAAOBsM+nhb6OC38tvvjmef+yx6MrloiuXi8233x43rFuXdgMAAAAAAADIhElf87eeytf8Leo6vYbu0o0b48rbbouIsOYvAAAAAAAAkDl1H/k71cLL4pq/cy++uBQEF021+woAAAAAAAAwVnUPf/P5MydQPZPuKwAAAAAAAMBw6h7+Tp9W95sckx2dnaX1frtyuXikpSXtMmXuKwAAAAAAAMB41X3N34GBQhw+ciytnhDV1vytprjm7zlzZ4979K81fwEAAAAAAICpoO5DX/P5XMyYPi2tnnA7Ojvjiba2OLhr16C1fiMiZkyfNu7gFwAAAAAAAGCqqHv4GxE1jb6dbGfCfQQAAAAAAACoVUPC33w+F7NnT364+nR3d2xctCgiorT2b0TEdKN+AQAAAAAAgIyp+5q/5Ypr606UWtf8rSdr/gIAAAAAAABTQUNG/hbNmjVj0kYAF9f67crl4uj+/RUjfwEAAAAAAACypqHhb0TEzBnT45y5s2PG9GlpU0O98Pjjpf37FyyoaAMAAAAAAADImoaHv3F6DeA5c2bGOXNnx6yZ02PatJ9PhdxoN6xbF3fu2xcREXfu2xdtjZvhGgAAAAAAAGBSNXTN38m0o7Mztre3p9V1D4Ct+QsAAAAAAABMBZkNfyeK8BcAAAAAAACYCiZk2mcAAAAAAAAAGiuz4e+Ozs54oq0tnn3oodi0fHn0bt0aXUbVAgAAAAAAABmV2fAXAAAAAAAA4GyS2TV/d3R2xvb29rQ62ur8cK35CwAAAAAAAEwFmQ1/D+7aFfOuuiqtrjvhLwAAAAAAADAVZHba5xcefzy6crnoyuXiiba2tBkAAAAAAAAgUzI78jdOj/7duGhRRZ1pnwEAAAAAAIAsyuzI34iIeVddVfewFwAAAAAAAGAqymz4u6OzszTtc0TEFcuWCYIBAAAAAACAzMps+BsRcXVra7QVCtFWKMSKRx9NmwEAAAAAAAAyI7Ph77X33BNvWLGiNPr3iba2tAsAAAAAAABAZmQ2/O3dujUeaWkplZ/u7hYAAwAAAAAAAJmV2fB331NPldb5bSsUYunGjfF0d3faDQAAAAAAACATMhv+AgAAAAAAAJxNcoVCoZBWZsHBXbti46JFFXU3rFsX195zT0XdeO3duzdyuVzk8/nI5/NV93O5XNUtIkqXRWkZAAAAAAAAoBaZDX+Luk6HqUs3bowrb7stbR434S8AAAAAAAAwFWQ+/G004S8AAAAAAAAwFWR2zd8dnZ3xRFtbWg0AAAAAAACQSZkNfwEAAAAAAADOJpkOf5/u7o6uXK5iAwAAAAAAAMiiTIe/V7e2RluhULEBAAAAAAAAZFGmw18AAAAAAACAs0Wmw1/TPgMAAAAAAABni0yHvwAAAAAAAABni1yhkO2FcJ996KF47uGHY8Wjj6ZNdbF3797I5XKRz+cjn89X3c/lclW3iChdFqVlAAAAAAAAgFoY+QsAAAAAAACQAZkd+bujszO2t7en1dFW54dr5C8AAAAAAAAwFWQ2/J0owl8AAAAAAABgKjDtMwAAAAAAAEAGZDb83dHZGZuWL4/erVujK5crbQAAAAAAAABZlNnw93Bvb1z67ndHRMQVy5bF7c88ExERR/fvT3oCAAAAAAAAnPkyG/6e09wc29vbo/lXfiVWPPpo7P+7v4uIiDkXXph2BQAAAAAAADjj5QqFQiGtzIKj+/fH/QsWVNRd3doaN3Z1VdSN1969eyOXy0U+n498Pl91P5fLVd0ionRZlJYBAAAAAAAAapHZkb9zLrww2spy7RvWrat78AsAAAAAAAAwVWR25O9EMfIXAAAAAAAAmAoyG/7u6OyM7e3taXXFaOB6EP4CAAAAAAAAU0Fmw9+JIvwFAAAAAAAApoLMrvl7cNeu6MrloiuXi6P795f2AQAAAAAAALIos+HvC48/Xtq/f8GCijYAAAAAAACArMls+BsRccO6dXHnvn0REXHnvn11X+8XAAAAAAAAYKrIdPi7vb29NOr3/gULTPsMAAAAAAAAZFauUMj2cNgvf/nLFeUPfvCDFeXx2rt3b+Ryucjn85HP56vu53K5qltElC6L0jIAAAAAAABALTIf/r7nPe+pKP/1X/91RXm8hL8AAAAAAADAVJDpaZ8BAAAAAAAAzhbCXwAAAAAAAIAMEP4CAAAAAAAAZEDm1/xtNGv+AgAAAAAAAFOBkb8AAAAAAAAAGSD8BQAAAAAAAMgA4S8AAAAAAABABgh/AQAAAAAAADJA+AsAAAAAAACQAcJfAAAAAAAAgAwQ/gIAAAAAAABkgPAXAAAAAAAAIAOEvwAAAAAAAAAZIPwFAAAAAAAAyADhLwAAAAAAAEAGCH8BAAAAAAAAMkD4CwAAAAAAAJABwl8AAAAAAACADBD+AgAAAAAAAGSA8BcAAAAAAAAgA4S/AAAAAAAAABkg/AUAAAAAAADIAOEvAAAAAAAAQAYIfwEAAAAAAAAyQPgLAAAAAAAAkAHCXwAAAAAAAIAMEP4CAAAAAAAAZIDwFwAAAAAAACADhL8AAAAAAAAAGSD8BQAAAAAAAMgA4S8AAAAAAABABgh/AQAAAAAAADJA+AsAAAAAAACQAcJfAAAAAAAAgAzIbPi7o7MzNi1fHkf374+uXC66crl4oq0t7QYAAAAAAACQCZkNfw/39sal7353fH/DhoiIuGHduni6uzuO7t+fdgUAAAAAAAA442U2/L3ouutie3t7bG9vj6tbW+Pym29OuwAAAAAAAABkRmbD3ytvuy1uWLcurli2LG7s6ooXHn88rli2LOZceGHaFQAAAAAAAOCMlysUCoW0Mot6t26NR1paoq3OD3fv3r2Ry+Uin89HPp+vup/L5apuEVG6LErLAAAAAAAAALXI7MhfAAAAAAAAgLNJZkf+7ujsjO3t7Wm1kb8AAAAAAABAJmU2/J0owl8AAAAAAABgKsjstM87Ojvjiba2ePahh2LT8uXRu3VrdAlWAQAAAAAAgIzKbPgLAAAAAAAAcDbJ7LTP1vwFAAAAAAAAziaZDX+P7t8fcy68sKLu4K5dMe+qqyrqxkv4CwAAAAAAAEwFmZ32+fsbNkRXLhcHd+2KiIhNy5fHxkWL0m4AAAAAAAAAmZDZ8Pfym2+OiIiNixZFVy4Xzz/2WFzd2pp2AwAAAAAAAMiEzIa/8666qiLsvWLZsrixq6uiDwAAAAAAAEBWZDb83dHZGU93d8cVy5bF0o0b4/nHHosu6+kCAAAAAAAAGZXZ8Dcioq1QiBWPPhpX3nZbtBUKccWyZWkXAAAAAAAAgEzIFQqFQlpJ7fbu3Ru5XC7y+Xzk8/mq+7lcruoWEaXLorQMAAAAAAAAUIvMhr87Ojtje3t7Wh1tdX64wl8AAAAAAABgKshs+DtRhL8AAAAAAADAVJDZNX8P7toVXblcdOVysaOzM20GAAAAAAAAyJTMhr8vPP54aX97e3sc3b+/oh0AAAAAAAAgSzIb/kZE3LBuXWmN376XXkqbAQAAAAAAADIj0+Hv9vb26Dq9hu7GRYtK+wAAAAAAAABZkysUTg+NZUz27t0buVwu8vl85PP5qvu5XK7qFhGly6K0DAAAAAAAAFCLTI/8BQAAAAAAADhbZD78ffahh0z3DAAAAAAAAGReZsPfYui7+fbbIyKiK5eLJ9ra0m4AAAAAAAAAmZDZ8Pel7343lm7cGG2FQrQVCnHnvn3xdHd3HN2/P+0KAAAAAAAAcMbLFQqFQlqZBc8+9FBp1G+5tjo/3L1790Yul4t8Ph/5fL7qfi6Xq7pFROmyKC0DAAAAAAAA1CKzI3+vvO22uHXLllL5imXL6h78AgAAAAAAAEwVmR35O1GM/AUAAAAAAACmgsyO/E09+9BD0ZXLWfMXAAAAAAAAyKSzJvz9hfe+N65ubY05F16YNgEAAAAAAACc8c6K8Pfo/v1x/4IFcWNXV9oEAMBZrqenJxYuXFjaenp60i4RERV9Fi5cmDYDZEZfX1/09PTE+vXrY+fOnWkzw6j1M4WJU+vn9+bNm2P9+vWxefPmtAkAAM4omQ1/d3R2RlcuF125XNy/YEFERHRZTxcAoKHSk94dHR1pl2Ht3r275pO0DJY+d0NtHR0dsWHDhtizZ096E0xBfX19sXnz5ujo6IiWlpZRv6+oj4ULF0ZLS0vce++9sW3btrQ5Uz760Y9GR0dHdHd3x6pVqwTAZN769eujtbU1uru7o7W1NTZs2JB2GbO+vr7Ytm1b3HvvvbFq1apBn8ebN2+Ovr6+9GoAADBmmQ1/i27dsiXu3LcvIiLaCoW0GQAAzjo9PT2xdu3auOmmm2LDhg1OOk9he/bsiY9+9KPR2toaPT090dvbm3ZhAvX29saDDz4Yq1evjo6Ojky+d3bv3j0o7P2rv/qrijJkTXd3d0X5y1/+ckV5rDZv3hwrVqyI1atXx4MPPjjovdXT0xOtra2xYsWKzH+pBACAiZPZ8Pfae+6JtkIhnvoP/6E08hcAAKi0du3aaG9vT6uZIu67776KsKC5udmI+EmycuXKinJPT088+OCDFXVZMG/evLQq3vSmN6VVkCmLFy+uKF933XUV5bF64oknavrSTm9vb6xevXpQOAwAAGOR2fC3aMWjj8bSjRvTagAAyLzu7u7YtGlTaVu7dm20tram3WLLli3WpWywAwcOxLZt22L9+vVx7733ps1V7dmzJ7Zs2VIqt7S0xKZNm+JDH/pQRT8mxtq1a+PJJ5+sCIm6u7szN/p3/vz58cADD0Rzc3NERLS2tsb73ve+tBuTYM+ePbF58+a49957/c2us/vuu6/03l65cmX87u/+btplXJqbm6O1tTXWrl1b2tLAOSJi3bp1aRUAAIxa5sPfiIgrb7vNlM8AAJx1Lr/88oq1BVeuXBlr1qyJb37zm6Vgp+irX/1qRZn62b17d1x//fWxevXq6O7ujldffTXtUtX/+B//o6L8yU9+MpqamirqmFjz58+Pj33sYxV1tYzqO9MsWbIktmzZErt37441a9Z43U0BPT09cdNNN0Vra2smR5xPtssuuywefvjh2L17d6xduzYuu+yytMuYrV27NjZt2hRr1qyJlStXlraHH3540Beydu7cGbt3766oAwCA0cps+LujszM2LV+eVgMAwFnvsssuiw9+8IMVdaaanPrqGUYwdguSZYWOHDlSUQYo+vSnPx0rV64c8gsUa9asqToCGAAAxiOz4W9ExPOPPRZduZwQGAAAEu94xzvSKmAMnn/++bQKICJiyNC33BVXXJFWAQDAuGQ2/L32nntKUz0XQ+CuXC7tBgAAZ6V0tGI6DTQA0Hjf/e53K8o+jwEAGK8JDX8HBgrR338ijvT1x88OH4tXf3a0rlt//4nSz9rR2VkKe29Yty7aCgXr/gIAZExfX19s27Yt7r333lizZk3F+rarVq2Ke++9d1LXzhvqvq1ZsybWr18/qVMtf/vb364ov//9768oD6X4mFpaWkqPp6WlJe69997Ytm1b2r1CT09PxfPQ09NTatu2bVt0dHQMus2Rfn+NuM3UWB7z7t27S31XrFhR0Zbe54ULF476PpUr/1kLFy6Mjo6Oirb0vnd0dAx5v1P1eI+lj7f4O+rr64vNmzdX3O6qVauip6cn+vr60pupy++z+DPLb6f4c9evXz+q25oIe/bsqbifCxcuTLtUSH9Hw/2NWbVqVcVzWS59fmp5Xnbv3h3r16+vuN2Fp19vmzdvrvo7HY+hfpfp67u8beEIz18Mc7v1eI0M9Roe6vdU/t4pf19Hld9RLY9tJPV67AcOHIgNGzYMup2Wlpbo6OgY8j0+WkPd3/Q1UIuh/k6lhnrOd+7cWXr/tbS0xJ49eyquN5Senp6KdcM7OjpqGi0MAADDmZDwd2CgEEePHo/DR45F//GTcerUQBQmIIhdunFjtBUKce0996RNAACc4Xp6emLFihWxevXqePDBB2PLli0V7Tt37owHH3wwVqxYEffee29dTjTXaufOnbFq1aoh79uWLVuiu7s7Vq1aFWvWrKn5JHG97NmzJ7q7u0vl5ubm+K3f+q2KPqk9e/bEmjVrSo+p/GR1b29vPPjgg7F69epYs2bNqJ7rvr6+0u2Wn2wv3uaKFSti/fr1FdcZSb1us1GPeaKsX78+VqxYMei+9/T01HS/G/ke27NnT7S3t0dra2vF7e7cuTM6Ojriox/9aOl9Ucvvc6igptzOnTtjxYoV0draOqj/zp07o7u7u+bXxkS57LLLBo0CHCqA6+vrG/Q7euaZZyrKRQcOHKgIHNPwdzT6+vri3nvvjRUrVkR3d/egILOnpydaW1tjxYoVdftbN9zvsvj6vvfeeyvqazHc7Y7nNTLSa7gYrk6mejz2vr6+WL9+fVx//fWxdu3aQbfT29sbPT090dHRUfE3aSz27Nkz5P0tvgY6OjpG9XdprLZt2xarVq0qvf96e3vj6NGjabdBil8GKFq8eHH8L//L/1LRBwAAxqLh4e/xEyfj8JFjceLkqbSpoa6955648rbb0moAADJiNCePH3zwwfh//p//J61uiOJJ4DQAGcqWLVviIx/5SN1CkeEcOHAgenp64iMf+UhF/Wc+85mYP39+RV25PXv2xEc+8pFBwVI1W7Zsifb29ppPuLe3t494u9UCpeHU4zYb+ZgnwoYNGyoC/mq2bNky7PuiUe+xw4cPx3333Tfsc7tz58647777Imr8fXZ0dAwZikbZ+7KWx9Pd3T1swDXR0lH5u3btqigX7dixI60aNJ1s0f/8n/+zonz99ddXlGvV19cX7e3t8eCDD6ZNg/T29tblb13xyzUj/S4ffPDB2LBhQ1o9pEa+Rmp5DXd3d496tGq91Ouxt7e3j/h3px727NkTN91004j3t6enp+a/S2N14MCBWL16dVo9om3btlVcr7m5Oe677z6jfgEAqIuGhr/9/Sfi2LF/nop5IvVu3RpduVw80dYWm5YvL+0DADBxeqpMbzvctiKZHrcWK1eujAceeCC++c1vxu7du+Opp56Khx9+eNBItrVr18aBAwcq6upt586dg04CL168ODo6OmLTpk2xadOmeOCBB6K1tbWiT29vb3zyk5+se3i4YsWKiuf3+uuvrwj0Vq5cGd/85jdjyZIl6VVLDhw4EB/5yEcqTrK3traWnu/du3cPer63bNlSUxj0xS9+MbZs2RKLFy+O7u7u0nOUPj8REevWrUurqqrHbdbjMTc3N5d+dhqGtLS0lNqKWzq6czy++93vxtq1a6O5ubnitVesK1fL+6Le77Evf/nLsWXLlli5cmU8/PDDpecovW9btmyJjo6O2LJlSzQ3N8fatWtj06ZN8fDDD8cdd9xR0Tci4mtf+1paFVHlfVm8rSeffLL0eB544IGKnz9cEDdv3ry0qqHe+ta3VpSrhbwREd/73vfSqtiyZUvVvytp33/xL/5FRblWaahZ/J0W3yff/OY3K35Xxb91Y9XX1xef+MQn0upobW0tvZYefvjh0vt97dq1adeq6v0aKVf8m9Tc3Fz6mzTUa/hP//RPK8o33njjkH/DWltbB/0dGYt6PfZt27ZVvBbS2ym+Hh544IFYuXJlxXVHo6+vb9AXmKIOr4Gx+su//Mu0akRp8NvS0hJf+tKX4rLLLqvoBwAAY9Ww8Pf4iZPRf/xkWj1h9j31VEREPN3dHc8/9lgs3bgxnj590uXUqYGkNwAAZ5rFixeXAq0lS5aUTpo2NTXF4sWLY926dYPCpKFCk3qoFkq0tLTEn/3Zn8WHPvShUgC7ZMmSWLNmzaAT9Tt37oxvfOMbFXWN1NzcHNdee21aPcj/9X/9XxUhaHd3d6xZs6biJHW157u7u3vEILC3t7f0HC1durT0HK1Zs2bQCfudO3eOeHtRp9usx2Nuamoq/ezLL7+81Cci4rzzzhv0xYdqo73KX6+LFy+uaBtOb29vNDc3x5e+9KWK197KlSurjthLR4EWNeo91tvbGytXroy1a9fG4sWLY+HChbF06dL4yle+Muj2itO5rl+/PlauXBkLFy6MxYsXx6c+9alB4Vm1LxxUe19+6UtfipUrV5ZGuzc1NcWSJUsGPTdpEFc03Cj5Rkjfp+kUt0Xbt2+POP3eLvfss89WlKOsb5z+OzWWx9TT01MR9t1xxx2l32nRZZddFp/61Kcqwr6dO3cOCg5r9Y1vfKPivdl8+ksWa9asKb2WFi9eHGvWrIkHHnig4rpDacRrpFzxb9KmTZtKf5OKr+E00E3/Js2fP7/0/r344osr+l588cWD/o6MVj0f+5NPPllR/uAHP1hxO3H69bBkyZJYu3btmO5vNOg1MB5f+9rXSsH+U089Vfpy0Jw5c9KuEVXC9paWlli3bp3gFwCAumpI+DswUJi0Eb/llm7cGLdu2RJXt7bGL7z3vaX6kydPxcBA49ccBgCgcf7sz/5s2JPHTU1N8cEPfrCi7vDhwxXletqxY0fFCeliOFYt1IuIWLhw4aAw8qtf/WpFuZF6e3ujo6MjbrrppiHXay1OE120cuXKWLp0aUWfomrPdy1B4Gc/+9mqz9H73ve+tCoOHjyYVlU1ntuciMdci76+voope2+44YaK9pF85jOfqRomLFy4cNCI3X379lWUixr5HvvX//pfp1Uxf/78QbcXp0f0Vbsf6Sj7OD0dbLn0fbl27dqqz0tUeW527tw56PaKyvs1+n3b1NQ0aKRkOsX1nj17StOYt7S0VPRP1/1N1/v95V/+5Yr2WpU/7ubm5kFBZrnf+I3fqCinQWGtvvjFL1aU29vbq742IqIUMo6kUa+Rcq2trVX/JlVbaz39m9RI9Xzsr776amk/IuKcc86pKNdLI14D49Hb2xvr16+PpUuXln7Hixcvrvo8pmH7SP8nAADAWDUk/O3vn/zgNyJi8+23xyMtLfF0d3fcv2BBRdtUuY8AAFnW3NwcK1eurHlLQ6nh1HKyND35/JOf/KSiXE9pmPHhD394xPuYhpHpqK/xKp/2uDiCs6OjY9Ao0gcffLDqmrVpkHnjjTdWlFOLFi2qKP/DP/xDRTl1xx13DDnisFrgNdRap+XGe5uNfsy1OHDgQLS3t5dCmebm5vi1X/u1tNuQmpubh53KOw370sdcNNLrN8b4HluZjAYslz6fMURAFkOMwD169GhFOX1fvu1tb6sop6677rqK8g9/+MOKctFHP/rR0v7OnTtj/fr1dX3vptLXYfq6LR+9fc0111SEYem6v+lI75Gek2rKw+Y4HTgP93q58sorK8p/93d/V1GuxZ49ewaN+BzqixlF6fNWTaNeI0UtLS1DhpPz588f1edevdXzsacj1L/4xS+OeYT3UBr1GhiPob6cUk0atre3tw/7vgEAgLGqe/g7MFCIEydPpdUT7tp77om2QmHQVnTC6F8AgIa77rrrYu3atTVvw40cG04xiOjp6YkNGzZER0dHrFq1Kjo6Oir6vfjiixXlekrDjHSq32qqhZH1HPV1+eWXx8KyKUFXrlwZH/rQh+Lhhx8etA7tli1bBk07/dTppVSKiie5h9pWrVpV0X+k5/tNb3pTWjVu473NRj/mkezevTuuv/760nS6ixcvHvVakGlAUw/1fI+lIVG5uXPnplVVQ96i9P2TKp+WOCLipptuGvQ7LN/SUYJDjYpevHhxPPzww6UvUnR3d8f1118/aERuvaRr8qaB/RNPPFHav/baa+Md73hHqZyu+1u+3u9QIxRHkgbIDz744KDnsny75pprKvqXB8e1SkPWWl7nw712ihr1Gika6X6ed955FeUXXnihotxI9XzsN954Y8WU4729vbF69epYtWpVbNiwoaYR0iNp1GtgPN75znemVUNKXyvpF7EAAKBe6h7+njgxeev8jtaZdF8BAKh04MCBWL9+fbS0tMRNN91UCqLWrl0bPT09YwoXxiP9eQtrHAk0WZYuXTpozdR0+tp0Gs+zwVR6zIsXL46PfexjYwrn6mGqvcfGonyUXb1deeWV8eEPfzitbojLLrusIigqn5q8r6+vVF68eHFpndhy5ev+lq/3O9rpxItqnd67ntLgbLgvEYxGI18jUWV0/Egm8rmt52OfP39+fOlLXxq05vTOnTtj7dq1cdNNN0VHR8e4viDRqNfAeKSj2kejkbMFAABwdqt7+Hvy1EBaNWl6t26NrlwuunK52NHZmTZPqfsKAEDtdu7cGR/4wAeiu7t7yJPXK1euNKpmBO9973sryvWedprRmzdvXimU37lzZ6xevXrQ6NqJ4D02vL6+vmhvb6+YreCOO+6IefPmVfSrp5tvvrmiXAzRyoPd8j7lo6KL6/729fVVhPajGbUII7nssstKSwykIXCc/tLCihUrYsOGDWnTGWs00zZfddVVFeV0BD8AANRL3cPfqTKVcu/WrfFI2do529vbBwXAU+W+AgBQu76+vvjEJz5REUi1trbGAw88EJs2bYrdu3fH7t27Y+3atfEbv/EbFdedSPWY4rLRqk2xO9y00w8//HDp+a1lS6cIPRNN9GOeP39+fOpTn4oHHnigVNfT01Mx0rPRzpT32Fg89dRTg35nw21DTSvd3d1dmjK3ubk5vvnNb8anPvWphk4xm66HXFz399vf/naprrxP+VqnxXV/y4PiGOeoxXLFEZ2j2cbrBz/4QVpVF/V6jZyJ6vHYi8sZbNq0KR544IFBM0xERKxduzY2b96cVo9ao14DjbJw4cKK52+k9YoBAGCs6h7+FsrW1Z1M+06v1VVc6/eGdetie3t7RZ+pcl8BAKjdtm3bKkKptWvXxpo1a2LJkiWDpjqdSOlJ8HRNzGrKp2stqjZaqlHSKTTj9MjTonRKzeLowSybKo95yZIl0VL2Zdb/+l//a0V7I03V99hYpO/LNPwcqwcffLC0//73v39CpuZOR1kXRw0Wp3Fubm6u6FO+TnBx3d/y1/Mdd9wxqlGL5dIRjMVwuZEWLFhQUU7XWa+mlqnJG/UaORM08rE3NTXFkiVL4lOf+lQ8+eSTFX/PIiL+/M//vKJciyuuuKKiXK/XAAAAZE3dw9+p5OqyKbgWXHNNRRsAAGemp05/ya8oDSHKTeSUiuWj7OL0ie2+vr6KutQ3vvGNinJLS8uYw5ixSH9+c3NzxcjF9ET7l7/85REf05luIh7zoUOH0qqqrrvuutJ+cZTpRJiq77GxSMPqdF3rsUhfDxdffHFFuZHKR1H29PTEgQMHSuFWGq5ddtllFV8mefbZZytC2mvGcYycfklly5YtsbsOo3mHUx5mx+lQb6SfWcvvuxGvkYlQj7WBJ+qxz58/P9atW1dRN5ZQNv2SRS2vgb/6q79KqwAAIPOmXPj7/A/3x1d6vhNtn3woPnz3A/Hhux+IL9y/JXb83Q/TriN6uru7tOZv+RTQAACcuV599dWK8gsvvFBRLtq2bdugUbWNdO2111YEIjt37ozu7u5BQVHR7t2744tf/GJF3Qc+8IGKciNt2LBh0PPz/ve/v6K8ePHiipGEvb290d7ePuRjKtq8eXNdpvScDBPxmIujMEdyzjnnpFUTYqq+x8Zi2bJlFeWenp5Yv359RV2qr68vNmzYMGSoNNQayBPh+uuvryiXTw+etkXynn7mmWcqvkSQjnIfjaampor1jiMi1qxZM+J097t37x7x+R/K/PnzB41+Hu5nrl+/vqbXZyNeIxOhHqOt6/nYN2zYMOTvol7mz58/6EsOw70Genp6KkbpTwUbNmyIlpaWaGlpqfkzAwAARmtKhb9f6flOfPbe/xKPb3kmDr16tFS/46kX4gv/8Zvx6f+jJ471H6+4zlCuveee0pTP5RsAAGe2NLBYt25d9PT0xJ49e6Kvr68ULqxevbqiX6PNnz8/7r777oq6Bx98MD760Y9GT09PaY2/nTt3xvr162PFihUVIdLKlStjyZIlFdcfrxdeeKFifcFiWLdq1apBa9M2NzdXXZvxYx/7WEV5y5YtsWLFitJjOnDgQBw4cCB2795duu3W1ta6jEqbLPV+zOVTaRe1t7eXRq0Vb3eqmKrvsbGYP3/+oJCyu7s7Vq1aFdu2bYvdu3dHX19f7NmzJ3bu3BkbNmyIFStWDHp/jFVHR0csXLiwtB04cCDtMirp6NfyaW/TtoiIt771raX9L3/5y6X9xYsXj3t94t/6rd+qKPf29sZNN90U69evj927d1e8XjZv3hwdHR2xYsWKePHFFyuuNxrtyVJOvb298ZGPfKQURhb/znV0dER3d/egsLiayX6N1Cqd9nrLli1x7733lh73vffeW9Fei3o+9t27d5d+/zt37ix9waWvry927tw56HeXTjldq49+9KMV5eFeAx0dHTW9BibKtm3bYu3atdHb2xu9vb3R2to6pf72AwCQHVMm/P1Kz3fi8S0/X3/oX12/MD7zqV+PP//i6vgPn//tuO033xnnnTsnfrT35fh3f/z/1hwAAwCQPen0yr29vdHR0RE33XRTXHPNNbFixYro7u6O5ubm6OjoqOjbaCtXrhx0In3nzp2l0GPFihWxatWq6O7urujT0tISn/70pyvq6qG1tbX0c1esWBGrV6+Ojo6OQdNtNjc3x5e+9KWqU04vWbJk0GMqPucrVqyI66+/Pq6//vpYsWJF1ds+E9X7MVcbsbhly5ZYtWpV6Tamkqn8HhuLO+64Y9BowZ07d8bq1atjxYoVcc0118RNN91U+lJEPUf2lo/ObGlpGXfgmo58LL72hrrt8kC4/HHdfPPNpf2xmj9/fsXI46Lu7u5YsWJFxeultbW1plG4I1m8eHHV9+batWsr/s4Vf9Z9991X0Xcok/kaqVW1cP/BBx8sPe6xjnCt92MvhsfXXHNNLFy4MK655ppYtWpVxajz5ubm+N3f/d2K69WqUa+BibBv3760Knbt2pVWAQDAuE2J8Pf5H+4vBb+3/eY74yO3L4krfuHCiIi44PymuOk9vxSf+tfLSgHwX239++QWBtvR2RlPtLXFsw89FJuWL4/erVujK5dLuwEAcIYZKnAoVwwzJ2Pa3DVr1pSCsVp0dHTEunXrqgavE2HlypXxla98ZdBaiuXWrFlTdaTXUBYvXjzsOrFngno/5vvuu6/m18Rkm+rvsdFqamqKdevWVR3ZPpSVK1dWHbE9Gnv27KkIyn75l3+5on2syteCHq4uhvjiQUTEO97xjrRqTJYsWRIPP/xwza/t5ubmQV8uGK01a9YMCv9Szc3N8fDDDw/7d63cZL1GRqOW9+VYTPRjX7x4cXzpS1+q+XdTTSNeAxMhHb0dI6ypDgAAYzUlwt/v/O0/RUTEtddcHkve9aa0OSIiLrno/Fh+89UREbH1ie+nzQAAnEWWLFkSTz75ZLS2tlYEGy0tLbF27drYtGnTpJ7wXbp0aWzatCm6u7tj5cqVg4KRlStXxtq1a+PJJ5+MD33oQxMe/K5cuTI6Ojrim9/8Zqxdu7bqiMHUypUr48knnyw9plRx1PPDDz8cDz/8cCxcuDDtcsap52O+7LLL4itf+cqg12xxFNtYg5RGmervsdFqamqKT33qU/HNb34zOjo6Bo10bG5uHtP7Yjg//OEPK8pve9vbKspj9Z73vCetGjbMTUf5Njc3D/taHa3FixfHpk2b4oEHHog77rhj0N+7lpaWuOOOO+KBBx6ITZs2xdKlSyvax2LNmjWxadOmQT+vpaUlOjo6YtOmTbF48eKa1tYumozXyGgtWbJk2Mc9VvV47J/+9Keju7s77rjjjkFfOGhpaYnW1tZ44IEH6hbIjvQa+MpXvjLofky2JUuWREdHRzQ3N0dzc3OsXbu2ru9FAAAoyhUK9V0I99Wf/fNavbVq++RDcejVo7H6Q/8qbnjHm9Pmkpdf6Yv/7Q//IiIiPv9vfyMuuej8ivZZM6fHrFkzIk6P/N2erCkTEdFWKER//4noP34yIiLOfc2ctMuo7N27N3K5XOTz+cjn81X3c7lc1S0iSpdFaRkAADg79fT0VAQ61oacGnbv3h0rVqwolR944IGq63Vv2LChNHp88eLF8fDDD6ddaLD0d9XS0hLr16+v6AMAAJA1U2Lk76FXfx4Yz7tg+CnDLjj/n0dEvPJK7d/gvbq1NdoKhWirb84NAAAwYQ4cOJBWMQmOHDlSUa42lWsk6/2mo2+ZGP/9v//3inI6KhkAACCLpkT4e965Px99e/Dlw2lThZfLAt/Zs38+wnco195zT9y6ZUtERDzd3R1duZw1fwEAgDPGFVdcUVH+y7/8y4oyE6+vry/+7M/+rKJuqCm7t5w+Ho2IWLRoUUUbjXfgwIH48pe/XFF3/fXXV5QBAACyaEqEv++87o0REbH9Wz9Imyr87VPPR5wOiy+5+Ly0eZB/2rQprQIAADgjLF68uGLNyu7u7li1alVs2LChoh8To6OjI1asWFER6q5cuXLQ2qeRTNHd3Nw85dYePZPde++9I46C37NnT3zmM5+J3t7eUl1zc3Nce+21Ff0AAACyaEqEv2//l2+IiIhnf/Dj2P7fn0ubIyLixy+9Eo8+/nRERPzKjW+J2bNmpl0q7OjsjKe7uyMi4tYtW0z7DAAAnHHuu+++iqlqd+7cae3fSdLT01MRJra0tMSnP/3pij5FL7zwQmm/paWloo3xefDBB+P666+PNWvWRE9PT+zevbu0bdu2LdavXx833XRTRUgfEdHe3h5NTf+8lBQAAEBW5QqF+iair/7s5+v3jtZXer4Tj295JiIi/tX1C+N9Ny2KSy46P15+pS/+9qnn49HHn45Drx6N17/ugviD33tfxfq/RbNmTo9Zs34+HfSOzs7Y3t5e0X77M8/EvKuuiv7+E9F//GRERJz7mp9POT1We/fujVwuF/l8PvL5fNX9XC5XdYuI0mVRWgYAAM5ufX19sW3btnjiiSeip6cnVq5cGWvXrk270WALFy6M5ubmaGlpieuvvz6WLFmSdmECLFy4MK0aUWtra6xZsyatBgAAyKQpE/5GEgBXc+WbLolnf/DjiIhY/aF/FTe8480V7eXhb+qJtrZ4urs72goF4S8AAACcgUYT/jY3N8cf//Efm3YbAAA4q0yp8Dci4vkf7o/v/O0/xa7v/yh+tPfliIi49prL411vf1P80pWXxP+9/ptDBsAjjfyNCOEvAAAAnKH6+vpix44d8b3vfS9efPHF6OnpqWhvaWmJt7zlLfHWt77V6GwAAOCsNOXC35Ec6z8+ZABcLfy9c9++mHPhhRW3IfwFAAAAAAAAsiafVkx1s2fNjN9fc1Nc+aZLIiLigQ3/Lbb/9+fSbnHtPffErVu2xP0LFkRXLhdPtLWlXQAAAAAAAAAy44wLf6PGALh369Z4pKWlVH66u1sADAAAAAAAAGTWGRn+RhIAn3funLj0kgsq2vc99VRcsWxZtBUK0VYoxNKNG+Pp7u6KPgAAAAAAAABZccaGv3E6AL7rI++J3//Ye+OKX6hc1xcAAAAAAADgbJIrFAqFtHI8Xv3Z0bRqwsyaOT1mzZoREREHd+2KjYsWVbTfsG5dXHvPPdHffyL6j5+MiIhzXzOnos9o7d27N3K5XOTz+cjn81X3c7lc1S0iSpdFaRkAAAAAAACgFmf0yN/hzLvqqmgry7WXbtwY195zT0UfAAAAAAAAgKyoe/g71UauFtf8nXvxxdFllC0AAAAAAACQUXUPf/P5MydQPZPuKwAAAAAAAMBw6h7+Tp9W95sckx2dndGVy5W2R1pa0i5T5r4CAAAAAAAAjFeuUChbGLcOBgYKcfjIsbR6QsyaOT1mzZqRVg/S338i+o+fjHPmzh736N+9e/dGLpeLfD4f+Xy+6n4ul6u6RZWpp9MyAAAAAAAAQC3qPvQ1n8/FjOnT0uoJt6OzM55oa4uDu3YNWus3ImLG9GnjDn4BAAAAAAAApoq6h78RUdPo28l2JtxHAAAAAAAAgFo1JPzN53Mxe/bkh6tPd3fHxkWLIiJKa/9GREw36hcAAAAAAADImLqv+VuuuLbuRKl1zd96suYvAAAAAAAAMBU0ZORv0axZMyZtBHBxrd+uXC6O7t9fMfIXAAAAAAAAIGsaGv5GRMycMT3OmTs7ZkyfljY11AuPP17av3/Bgoo2AAAAAAAAgKxpePgbp9cAnjNnZpwzd3bMmjk9pk37+VTIjXbDunVx5759ERFx57590da4Ga4BAAAAAAAAJlVD1/ydTDs6O2N7e3taXfcA2Jq/AAAAAAAAwFSQ2fB3ogh/AQAAAAAAgKlgQqZ9BgAAAAAAAKCxMhv+7ujsjCfa2uLZhx6KTcuXR+/WrdFlVC0AAAAAAACQUZkNfwEAAAAAAADOJpld83dHZ2dsb29Pq6Otzg/Xmr8AAAAAAADAVJDZ8Pfgrl0x76qr0uq6E/4CkDUZ/dcAAAAgs5xTBACKMjvt8wuPPx5duVx05XLxRFtb2gwAZ61CoTDsBgAAwJklPa5LNwDg7JHZkb9xevTvxkWLKupM+wzA2STDH/MAAACMkXOQAJBdmR35GxEx76qr6h72AsBU59vdAAAADMfIYADIrsyO/N3R2Rnb29tL5SuWLYsVjz5a0acejPwFYCpo9Md5o28fAACAkTX63GGjbx8AaLxMh7+He3vjxq6utKmuhL8ATKbxfIyP57oAAABMfeM51zie6wIAkyez0z5fe8898YYVK6Irl4uuXC6eaGtLuwDAGWssU3OZ1gsAAODsMp7jwNH2BwCmhsyO/O3dujUeaWmpqLu6tbXuI4GN/AVgotX60V1rvxhlXwAAAKau0ZxfbFRfAGDyZHbk776nnoorli2LtkIh2gqFWLpxYzzd3Z12A4AzRi3f1K7lG93pN7+H6wsAAMCZJT3eG+6Yr5Y+RbX0AQAmX2ZH/u7o7IwX/+ZvYsWjj0ZExLMPPRSbb7892ur8cI38BWAijPRxPVz7cG3lau0HAADA1FXL+cXh+gzXFjW0AwCTK7Ph78Fdu2LjokUVdTesWxfX3nNPRd14CX8BaKSRPqaHah+qPkZoK1drPwAAACZHrecSh+s3VNtQ9UUjtQMAkyOz4W9R1+l/QpZu3BhX3nZb2jxuwl8AGmW4j+ih2upVP5TR9gcAAKB+RnvusFr/anUxhvqikdoBgImV+fC30YS/ADTCcB/P1dpqqUvLRUPV12q81wcAAOCf1eP84FC3kdan5dHUlRupHQCYOJkNf3d0dsbh3t64sasrbaor4S8A9TbUR3O1+rRutOWioeprMZ7rAgAAUGm85weHun5aP9ryUHVFw7UBABNH+DtOwl8A6mmoj+Vq9eV1aXstbQMDA3Hy5MkoFAoxMDAwqB8AAABnlvLzkdOnT498Pl+qT/uNtD9UXVouN1wbADAxMh3+bm9vT6ujrc4PV/gLQL0M9ZGc1g9XHm7/5MmTceLEiThx4kScOnUqcrlczJgxI6ZNmxbTpk2r+HwCAADgzFIoFKJQKMSpU6fi1KlTceLEiSgUCjFt2rSYMWNGzJgxI6ZPn15x3FfLfi3lcsO1AQCNl+nw18hfAM4UQ30cp/VpoJvup3WFQiH6+/vj2LFjERExZ86cmDNnTsyePbv0DXAAAACyaWBgII4dOxZHjx6No0ePRkTE7NmzY9asWUOeo6xlv1q53HBtAEBjOesLAJMsDXiLddWC3PJyWl9+OTAwEH19ffHyyy9HoVCICy+8MF7/+tfHvHnzoqmpSfALAABwFsjn89HU1BTz5s2L17/+9XHhhRdGoVCIl19+Ofr6+kpLAKXHlulxZlqftqWGawMAGivTI39N+wzAVFftYzitG+rgOj0YL14Wv9E9d+7cOO+882L69Oml6wAAAMDJkyfj0KFDceTIkdIMUVF2bjK9rHU/NVwbANAYhv0AwCRJQ95qdUOFvWngWygU4sSJE3Ho0KE4depUXHLJJTFv3jzBLwAAAINMnz495s2bF5dcckmcOnUqDh06FCdPnqx6rJnWDbcPAEy+zI78LXr2oYfiuYcfjhWPPpo21YWRvwCMxVAfv0MdQKcH2+nlsWPH4siRI3HBBRfEueeeW7oeAAAAjOTVV1+Nl19+OebOnRuzZ8+OqDL6N70cbr/cUPUAQGMY+QsAU0S1sLd8f6jLvr6+6O/vj4svvljwCwAAwKide+65cfHFF0d/f3/09fVFVDn2TC+H2wcAJk9mR/5a8xeAqaraR+9QB8zpwXX5ZaFQiCNHjkShUIiLLroo8nnf6QIAAGDsBgYG4qWXXopcLhdz586teh4zvRxuf7g6AKAxMhv+ThThLwCjUe1jt1rYW75f7bJQKERfX18p+PX5AQAAQD0UCoVSANzU1FT1XGZ6Odz+cHUAQP0ZIgQAE6Ra8DuUoQLf4nbs2LE4depULFiwwAE0AAAAdZPL5WLBggVx6tSpOHbs2KDj0ahyzAoATB2ZDX93dHbGpuXLo3fr1ujK5UobAEwl5QfK6cFzelncP378eBw7diwWLFhgqmcAAADqLp/Px4IFC+LYsWNx/PjxQcelw12m+8PVAQD1l9kzxod7e+PSd787IiKuWLYsbn/mmYiIOLp/f9ITABqv2kHucAfG6cFz4fQ3rAcGBuLo0aMxb968mD59esV1AAAAoF6mT58e8+bNi6NHj8bAwEDpuDSqHMMWDXecO1QdAFBfmV3zd0dnZ2xvb4+20w/v2Yceis23314q14s1fwGoRbWP22oHxWnYm+4fOXIkZsyYEfPmzStddyIUTo84PnnyZAwMDMTAwEDE6W+D5/P5mD59esycOdPnGAAA0DBZPy7p7z8RL+w5GC/tPxSvHOqLY8dORETE7Nkz4vzzmuKiC8+Lyy+bF7NmzUiv2lAHDx6MEydOxNy5cyNOn7+sdn4zvUz3h6sDAOons+Hv0f374/4FCyrqrm5tjRu7uirqxkv4C8BIqn3UjhT8Fi/Lg9/jx4/H0aNH4/Wvf33puo10/Pjx6Ovri76+vjh58mTMmDGj9BlXrnjS5cSJEzF9+vRoamqKpqammDlzZkU/AACA0cr6cck/Pr8vvvO3/xhPP9Mb//BPL6XNVb3xDRfF1Yua4+3/8hfjF6+oPP/ZKD/60Y9izpw5pedzqHOc6WW6X60MANRXZsPfouI6vzesWxfX3nNP2jxuwl8ARlLtozYNetO68tC3uP+zn/0szjvvvDjnnHNK12mEI0eOxKuvvhoDAwMxa9as0rfna1H8Fn5/f3/k8/k499xzS98OBwAAqFXWj0v+27d2x+Nbnolnn/tx2jQqV775kri5ZVH8q3ctTJvq6vDhw3Ho0KF4zWteM+jc5lD7RdXOd1arAwDqI/Phb6MJfwEYTrWP2aEC3+Jlul84PbXZ8ePH43Wve13puvV29OjReOWVVyIiYvbs2TFr1qy0y6gURypHRJx//vkxZ86ctAsAAECFrB+X7Hz6hfjKI9+teZRvrd74hoviA7deF4uvvjxtqpu9e/fGzJkzS1Nrp+c40/Od5ec503OeaRkAqJ/Mhr/FNX9T1vwFYCJV+5hNA9/ifrXQt1j+2c9+Fueff37Dvq3+05/+NI4ePRpNTU3jPrmS6u/vj76+vpgzZ0689rWvTZsBAAAizoLjkvv//G/i8S3PpNV1dXPLorjzw+9Oq+viyJEj8corr5RG/0ZZ6JuWi4Y6BzpUHQAwfpkNfyeK8BeAoVT7iE0D3/QyDX0LhUKcPHkyjhw5Es3NzaXr1suJEyfiwIEDMW3atJg7d25DP4cOHz4cp06divnz58eMGTPSZgAA4CyV9eOSF/e+HF3/8Zt1H+07lDe+4aJo+92b4tLXXZA2jVtvb2/MnTs3pk+fXvU8Z3rOs/x3mf5e0zIAUB/5tCIrDu7aFV25XHTlcnF0//7SPgBMBWkwXK1c3I4fP96QEb/9/f3x0ksvxYwZM+Kcc85p+IH3OeecEzNmzIiXXnop+vv702YAAOAslPXjkt0/+En872sfmbDgNyLiH/7ppfjf1z4Su3/wk7Rp3ObOnRsnTpwolcu/wFws12o0fQGA2mU2/H3h8cdL+/cvWFDRBgCTodqBbS0HySdPnqx7+Hv8+PHYt29fzJ07N5qamtLmhmlqaoqmpqbYt29fHD9+PG0GAADOIlk/LvnH5/fF//nv/9945ZW+tKnhXnmlL/7Pf///xj8+vy9tGpdi+JuGvjHE8W3aBwBovMyGvxERN6xbF3fu+/k/OHfu21f39X4BoB7SA+TybWBgIAqFQl3Xuzp16lTpBEs9b7dWs2fPjrlz58a+ffvi1KlTaTMAAHAWyPpxySuH+uLff+HxOHz4WNo0YQ4fPhb//guPxyuH6hc+z5o1a1Dwm5aHUksfAGD8Mh3+bm9vL436vX/BAtM+AzBhhjuordZWrS5Oj/qdOXNmWj0uBw8ejFmzZsXs2bPTpgkze/bsmDVrVhw8eDBtAgAAzgJZPy754p/91/jJvkNp9YT7yb5D8cU/+69p9bjMnDlz2NG/ad1wRtMXAKhNruATdlz27t0buVwu8vl85PP5qvu5XK7qFhGD1jFJywCcmap9vBbrql2Wb+V1fX190dTUFOedd17ZLY3dz372szhy5Eice+65adOkePXVV2Pu3Lnxmte8Jm0CAAAyKuvHJf/l/3sqNvzF9rR6Un3ot2+IX//Va9LqMTl06FAcPXo05syZU/VcZ1qudlmuWh0AMHaZHvkLAFNFtTA4hqhPw+AZM2akXcbk1KlT8fLLL9d9/eDxmDt3brz88ssNmWYNAACYerJ+XHLwp4fjof/87bR60j30n78dB396OK0ekxkzZpSWKEq/yDySWvsBAGMn/AWACVTtQLdaXdHAwEDdwt9Dhw5FU1NTTJs2LW2aNNOmTYumpqY4dGjyp0MDAAAaL+vHJT2b/jZOnhx/iFxvJ0+eip5Nf5tWj0kx/B3OcMe5qdH0BQBGJvwFgDqr5cA17ZN+U7r829P1OCly6tSpOHz48KSupzWU2bNnx+HDh+vyLXsAAGDqqudxyde+9rX4xCc+ER//+Meju7s7jh07lnYZlXoclxz86eF4fMszafWU8fiWZ+oy+nfatGlVR/wOVVd+CQA0nvAXABpsNAe51Q6U67H+UfEESz4/9T768/l86UQLAACQXfU6Lvna174WW7dujYiIefPmxXPPPRef//zn026jUo/jkq1PfD+tGtIHP3B9/OG/Xh5Xv/WytKmhRnMfh5LL5QYdt47muBcAaKzx/acFAIxZLQfH9Qp/jxw5ErNmzUqrp4xZs2bFkSNH0moAACBD6nVc8u1v/3xN3ba2tvjsZz8b8+bNi4MHD8Y//MM/pF1HZbzHJdu//VxaNaT3L18cb1t8RfzRJ349vrDu9rj1165NuzTEaO7jUNLwdyhD9RmqHgCoD+EvAEyQage41eqizt+cPn78eBQKhbqtHRwR8fGPfzw+/vGPxzPP1GdKsxkzZkShUIjjx4+nTQAAQAbU87ikr68v4vSo3/LLo0ePVvQbrfEcl7yw50D8aO/LaXVNLr3kgrj9t94VD/7p6vjfPrY0ba6rH+19OV7YcyCtHpPhjlmHawMAGkv4CwB1VMsBbtqnPOitZ+hbdOzYsbqcYGm0GTNmRH9/f1oNAABkQNaPS/7+2RfTqlE779w5seRdb46/fPBj8W//8JaGTQldj/taVO0YNi0DABNL+AsAU0SjDpCPHz8e06dPT6unnLGeZJkoS5feEt/61ndK5a9//dG4667Wij6NdtddrRX3oRHuv//BCX9cRd/61ndi6dJb4uDBn6ZNAACc4bJ+XPKP/7QvrRqzGTOmxVt/qblhU0LX874WFUPgase15V92BgAaT/gLABl3/PjxmDZtWlo95eTz+TFNr1bNc8/9IJYuvSWtjoiIgwd/KmDMuM997r5YuvSWITe/ewCAiZf145KxTvk8kkZMCd2o+woATA3CXwCYBLV847mWPrUYGBg4I06yTJs2LQYGBtJqJtidd94R/+k/dafVQ/r61x+Nz33uvrR6TN71rrfH5s1fj3nzXps2jcof/dEnY/Pmr8fmzV+Pu+9eHZdfflmpXI/bj9MB89e//mhaDQDAELJ+XHLgpz9Lq4Z16NXRrU9czymhR3tfh1KvY9ao820BwNlO+AsAU1A9D3wHBgYil8ul1VNOLpcb00kWAABg6sv6ccnhw6ObKrrrP/5VfO3RnfFX/3VXfO/ve+PZH/w49h/4WfT1DT/quB5TQo/2vg5npGPXkdoBgPrLFXwCj8vevXsjl8tFPp+PfD5fdT+Xy1Xd4vQ/lOXSMgBnlvRjtbxcvs5Rul++DQwMlPYPHz4cv/ALv1C6jbH44Q9/GBdeeGFaXZOPf/zjaVVN7rrrrli0aFFaPaL9+/eP+/HG6Wmff+/32mPz5q+nTXHw4E/jt3/7I/EXf/Gl0gjQYl259LpLl94Sn/nMH8a73vX2iNMjXr/xjb8aNEr2rrta44UX9pTK5dcZjeJjKPrMZ/4wNmx4KD70odsqbi/9eV/4wrp485vfVCp/61vfic9+9vOl8t13r45bblleKqc+97n74uKLF8Sdd95Rqkt/RvG5Sesvv/yyQc9Hqvw6af9qz2nxed+y5W/iySe/HRERK1f+esX9G0612ywa7r6k7XH6cVd7rYzm/gAAnK3qcVzS2dkZs2fPjk984hPR19cXf/iHfxiXXnppqfz7v//78cY3vjG6u7vjueeem9Djkltv/0JaNS4t735LXHLxBfH6110Qs2ZNj3mvPSdmzpgeF85/Tdo1nv/h/viDf/OVtHpYj2z8vbRqVH74wx/GOeecU/P5z2rnQtPzoGkZABgbI38BIONyudygUHoqKhQKk3awv23bt+ILX1hXmhZ45cpfH9NUxkuX3hLXXntN6Xb+4i++FJ/97OdHPT1wMfgtv0+7dn2/Iogs9nvf+95b6vOZz/xhRWD83HM/iM9+9vPxF3/xpVKf0frc5+6reEx337261Paf/lN33H336rj++nfG5s1fHxSeppYuvSU+9KHbSrd17bXX1PQ8f/azn48PfODW0nPa0/Nf4lvf+k7abVRGui9DPe55814bmzd/Pa6//p1x992rY/Pmrwt+AQBqMJ7jkubm5oiI+NGPfhQREe985zsjIuLzn/98fOYzn4m+vr5obm6O17/+9RX93vSmf/5SZK3GelwyffrUn9K6qN73day/VwCgMYS/ADBJqh0gV6sbr3w+P+bb/ZM/+ZOqW9Fdd901qO1P/uRPxvTt+kKhEPl8ff81Wbr0lkFbOmozIuKWW5ZXjJZ997tvKI0yrdXXv/5oXH75ZRVB4Lx5r43PfOYP4xvf+KuKviP5ylceiZUrf73iPlULGN/85jdVjOItjgh+7rkfRETEgQM/jcsvv6xijdvhRv1W8+KLL8ZVV72lVB7t9Yu+/vVHY+XKX68Ytbxy5a/Hk09+Ow4e/GlF39Tdd68uPRfz5r02Vq789di16/tpt5rVcl/q9bgBAPi58RyXvP3tP/+/7W/+5m8iIuL9739//Mqv/Eo0NTXFwYMH4+qrr47/9X/9X2P27Nnx3e9+N/r6+uLNb35zzJ49O7mlkY31uOScc2alVcO6+q2XxQc/cH387kfeE//2D2+JtZ/5jfhP//eHY+P9d8UjG38vPrb6V+L9yxfH2xZfEW/9pea49JILBo36ff6H++Nrj+4c9ajf0d5XAODMMvr/ZACAuilO71zcb4R8Ph+nTp1Kq6ecU6dOjekky3CKozbLt7/4iy+l3SJOB4LFgLh89Gytvve9v4/3ve+9aXXMn//aeOGFPSMGnOWefPLbFcFj0eWXX5ZWxXPP/aAi3C73rne9PV54YU8sXXrLqEcfF73vfe+Nz37284Nue7S+972/j56e/1I1iD948GDavcKCBYOnB/zJT/alVTWr5b7U63EDAPBz4zkuecc73hHz5s2Lp59+uiIA/uM//uP4kz/5k1i9enW89rWvjRdffDG++tWvRkTEr/7qrya3UpuxHpfMf+3g6ZiH0/a77433L18c7/3lq+Ktv9QcV77pkrhw/muiqWlm2rVCX9/x+N7f98afPrA1/uDffCW+/JUn0y4jGu19rUW149lqdQBA443+P5kzxI7Ozti0fHkc3b8/unK56Mrl4om2trQbAGTezJkzY2BgIK2eck6dOhUzZw5/oqNRli69Jb73vb8vBcRf+MK6tMuEmz//n0frDuVzn7uvtLZxcUsVA+8vfvGBWLr0llFPl3zLLctj8+mpsJcuvSXuuqs17VKzlSt/fVAYv3nz1ytGOE+Uke5LPR83AADjOy6ZPXt23HnnndHU1BRf/epXo7u7O1588cVS+09/+tP4xje+EZ///Oejr68vfuM3fiPe+MY3VtxGrcZ6XPL6112QVg3rvHPnpFXD2n/gZ7HtW89F5598I/7t578eW/5m7DPhjPa+AgBnlsyGv4d7e+PSd787vr9hQ0RE3LBuXTzd3R1H9+9PuwJAps2aNStOnDiRVk85J0+eHNNJlvEqTpH8R3/0yVLdgQO1j9Iteutbfym+972/T6urTr08kssvvyy+//3dFXUHD/500Jq/Tz757YqgeqjRxcV1au++e3Vs2PBQ2lyTO++8IzZv/nq88MKeUQfIEREXX7xgXKN162k092W8jxsAgJ8b73HJpZdeGm1tbdHc3BzPPfdcfP7zn4+Pf/zj8fGPfzz+6I/+KB577LFoamqK3/md34l3v/vd6dVrNtbjkl98w4K0qi6KUzvf9ft/Hv/hTzfH09+rPCYYi0bdVwBgashs+HvRddfF9vb22N7eHle3tsblN9+cdgGAs8J4T7JMlBMnToxpTa56KYbAERGf/eznK9pqccsty+PJJ78d99//YKnu4MGfxmc/+/n40IduK9V961vfGXEU6fve99744hcfqLhPHR3/tqJPUXlIvH79/6+i7etff7TiNvbt2x+XXnppRZ+RfO5z95X2i+Fy+ajkBQsurGl95OKauun00+W3P1FquS8jPe6LL15QNexPFaflLv4evvWt78TSpbeUbrM43TgAQNbV47jk0ksvjU9+8pNx1113xTvf+c5S/Zvf/Ob4nd/5nfjUpz4V1113XcV1RmusxyW/dOXo/s8eTj2mdh5OPe9rufIljYaa8nmoegCgfjIb/l55221xw7p1ccWyZXFjV1e88PjjccWyZTHnwsFrxgFAls2cOTNyudy4T7Q00okTJyKXy43pG/bj9eY3vynuvnt1/N7vtZfWfx3rtM+bN3+9Yi3Z3/7tj8QXvrAu3vWut5f67Nr1/aprA5e75Zblg+7T2rX/dtCav1/4wrrSdM5Ll94SH/jArRXtCxZcWHEbO3Y8VTHCuRYvvvhixeP5zGf+sGKa5ne96+1x+eWXjTg18rx5r62Yfnqo+zwRarkvIz3uYoC8dOktFYE/AADV1fO4ZNGiRXHbbf/8Bcv3vOc9cd1118VrX1v7bDvVjOe45PLL5o97OuV6Tu08lNe/7oK4/LL5aXVd5HK5qvvlhqoHAOonVzhLvm7Vu3VrPNLSEm11frh79+6NXC4X+Xw+8vl81f1cLld1iyr/8KRlAM4s6cdqeTn9FnT5FhExMDAwqP7IkSPR3Nw87s+HQ4cORX9/f5xzzjlp05Rw+PDhmDVrVpx33nlpU+bcdVdr/MEf/N6krHMLAACTqd7HJR//+McjIuKuu+6KRYsWpc2jNt7jkv/8te/GV3pqWyrkkY2/V9p//of74+lneus+wreaD6x8e/zm+8c3OrpQKERvb2/MnTu34lxneh40Tp/rTMtF6XFuWgYAxiazI38B4ExT7UA3l8sNCpTH4pxzzoljx47FwMBA2jTpBgYG4tixY3U7ATSVFaf6FfwCAHA2yvpxya/c+Ja0akhfe3Rn/I+dzzdsauehjOY+DqVQKFQ9fgUApobMjvzd0dkZ29vb02ojfwFoqPRjdaSRv2k5Hf179OjRuOiii2LGjBml2xmrn/70pzEwMBBNTU1p06Tq6+uLfD4/7inaAACAqS/rxyX3//nfxONbnkmrp4SbWxbFnR9+d1o9aidOnIiXXnop5syZUzrPWe0caBj5CwCTIrMjf6+9555oKxQGbQAwlaUHu7k6rYkVEXHeeedFX19fnDp1Km2aNKdOnYq+vr4xT6sGAACcWbJ+XLJyxb+M6dOnpdWTbvr0abFyxb9Mq8ekuDbySGrpAwDUX2bD3x2dnfFEW1s8+9BDsWn58ujdujW6/MMBwBRSy4FwPcPfadOmxQUXXBBHjhxJmybNkSNH4oILLohp06beyREAAKD+sn5cMu+158Rtv/nOtHrS3fab74x5rx37lNbl0vC3lmNbAGDiZDb8BYAzVfmBcz6fj2PHjlW0j8drXvOayOfzU+JEy5EjRyKfz8drXvOatAkAAMiwrB+X/PqvXhNvW3xFWj1p3rb4ivj1X70mrR6zY8eORT4/vtPKAmMAaJzxfUpPcU93d8fm22+P5x97LB5paUmbAaDhxnpAW7zetGnT4vjx42nzuMybNy/6+/vrGiqP1rFjx6K/vz/mzZuXNgEAAGeBrB+X3P3RX46LF4x/GunxunjBeXH3R385rR6X48ePl0ZJj3TMO1I7AFB/mQ1/3/KhDw1a7/f2Z55JuwHApKjlADiXy5X69ff3p81jNm3atFiwYEEcOXJkUk609Pf3x5EjR2LBggV1mVYNAAA482T9uOT885riD37v5jjnnNlp04Q555zZ8Qe/d3Ocf15T2jRmxWPT8uNVAGBqyWz4+/0NG6Irl4uDu3ZFRMSm5ctj46JFaTcAmNJyuVxMmzYtDh8+nDaNy8yZM2PBggXR19cXfX19aXPD9PX1lU6wzJw5M20GAADOIlk/LvnFKxbEv/mDX4vzz69f+Fqr889vin/zB78Wv3jFgrRpXA4fPhzTpk2re/Bb79sDgLNZZsPfy2++OSIiNi5aFF25XDz/2GNxdWtr2g0AJtxQB7VDfXN6+vTpDTkRMmvWrLjooovixIkTdQ+XU4VCIQ4fPhwnTpyIiy66KGbNmpV2AQAAzkLpcUmhUEi71M1kHJcsfNPF8X903BpvfMNFaVPDvPENF8X/0XFrLHzTxWnTuPX19cX06dPT6tLxbLVjWgBgYmU2/J131VUVYe8Vy5bFjV1dFX0AoN6GO9Adqi09QE775fP5yOVyceTIkYr6epgxY0ZccsklMX369Hj55ZfrOr10UX9/f7zyyisxffr0uOSSS2LGjBlpFwAA4CxWflzyyiuvZO645NLXXRB//LnfjJtbGj8r4c0ti+KPP/ebcenrLkibxu3IkSORy+Uin//nU8rp8Wy1uuJ+2g8AaIxcoZFfp5tEOzo7Y3t7e1yxbFm8edWq2Hz77RER0Vbnh7t3797SPz3Fk/PpfvEfnnSLKv/0pGUAzjzpR2t5ubhfKBQG7VfbBgYGolAoxMmTJ2NgYCBe97rXlW6r3o4ePRqvvPJKRETMmTNn3NOf9ff3l9buOv/882POnDlpFwAAgAr1Pi45fvx4HD16NGKKHJfsfPqF+Moj341/+KeX0qZxeeMbLooP3HpdLL768rSpbvbu3Rv5fD6mT58+7DnP9NxntfOg6TnQtAwAjF2mw99r77mnom7T8uWx4tFHK+rGS/gLQCr9aB0q/C1e1rINDAzEsWPH4oILLohzzjmndHuNcOTIkXj11VdjYGAgZs2aFdOnT6/5hMvx48fj5MmT0d/fH/l8Ps4999yYO3du2g0AAGBYWT8u+W/f2h2Pb3kmnn3ux2nTqFz55kvi5pZF8a/etTBtqqvDhw/Hyy+/HHPmzBl0jnO4LaqM/K12/rNaHQAwNpkNfyeK8BeAVLWP1mqhb/GyfIuI0mjfdDt58mScOHEimpuby265cY4fPx59fX3R19cXJ0+ejBkzZpQ+48oNDAzEwMBAnDhxIqZPnx5NTU3R1NRU84kZAACAoWT9uOQfn98X3/nbf4ynn+mteTTwG99wUVy9qDne/i9/MX7xigVpc0P09vbGjBkzYvr06YPOcZaf/4yy0b7p+c/0sigtAwDjk9nwtzjtc8q0zwBMhPTjtVroW7xM99OtPAw+fvx4zJ49O+bNm1d2641X/NnF6acHBgYiTq9HnD897dfMmTN9jgEAAA2T9eOS/v4T8cKeg/HS/kPxyqG+OHbsREREzJ49I84/rykuuvC8uPyyeTFr1sStVxwRcfDgwTh27FjpuR3ufGd63rPaOdD095OWAYDxyWz4O1GEvwBUk368lpfTsLd8f6RtYGAg+vv7Y968edHU1FS6TQAAAKi3vr6+OHjwYMyaNWvY85zVthhitG96/jMtAwDjUzk/SoYc3LUrunK56MrlYkdnZ9oMAFNCtYPc9GA5bZsxY0YcPHgwTp48mTYDAABAXZw8eTIOHjwYM2bMGPL4dKhjVwBg8mQ2/H3h8cdL+9vb2+Po/v0V7QAwkUY6GB7qoLm8vrhNmzYtpk2bFi+99FJpmjMAAACol4GBgdi3b1/p+DM9Lh3u2LW8rvwy3QcAGiOz4W9ExA3r1pXW+O176aW0GQAmRXoAPJaD3+nTp0dExEsvvTRoimkAAAAYq0KhUDrWLB57DqXa8Wy1OgBg4mQ6/N3e3h5dp//Z2LhoUWkfABptrAe76Teph9tmzJgRp06dih//+MdGAAMAADBuAwMD8eMf/zhOnTpVmu55uC3KjmNHUq1PtToAYHxyBcOFxmXv3r2Ry+Uin89HPp+vup/+U5T+c1QuLQNw5qr2EVusK28rFAoV9bVuxf4nTpyIQqEQF154YcyaNat0uwAAAFCr/v7+2L9/f+ROf9k4PZeZbjHEF5iL9eWX6f5wdQDA+GR65C8ATFXpAW618khb0fTp0yOfz8dPfvKTOHToUMXtAAAAwEgOHToUP/nJTyKfz4841XNRteNTAGDyZT78ffahh0z3DMCkqHYAPFJdeuCcBr5DbdOmTYuZM2fGq6++Gj/+8Y/jxIkTpdsAAACAak6cOBE//vGP49VXX42ZM2fGtGnTBh1vDrWVKy+nbaOpAwDGL7PhbzH03Xz77RER0ZXLxRNtbWk3AJg06YFuerCctpfXV9vy+XzMnDkzBgYGYu/evbF///44efJkehMAAACc5U6ePBn79++PvXv3xsDAQMycOXPY5euGOz4tL6ftAMDEy+yav0+0tcVF110XV952W0REHN2/P+5fsCDu3Lcv5lx4Ydp9zKz5C8BIqn3Ulq/ZW15XXp/up1u1tvK6kydPxsDAQMyePTvOO+886wEDAACc5fr7++PQoUNx7Nix0hTP6bnKaucvq21pW7FcfpnuD1cHANRHZsPfZx96qDTqt1xbnR+u8BeAWqQft+Xl8tA2vawW6o5UX14Xp7/RPTAwELlcLubMmRNNTU0xe/bsyOczOwEIAAAAETEwMBDHjh2Lvr6+OHr0aBQKhYp1fdPzlNXOXaZbWl8sV7tM96uVAYD6ymz4GxHRu3VrPNLSEhERVyxbFisefTTtMm7CXwBqUe3jtryuPLQtXg63X76l9dWuE6cP+gcGBkptuVwuZsyYEdOmTYtp06aVPrMAAAA48xQKhRgYGIhTp07FqVOn4sSJE6Vjv/JzlpGEtOl+tXK1+mr75Zfp/nB1AED9ZDr8nQjCXwBqUe3jtryu2n4a4I6lnN5eejkwMBDlim0AAACcWdLziuVf8B3uMt2vVk7rqu0XDbVfrQwA1N9ZE/4Wp4G25i8Ak6XaR255XbVwNr1MQ91q5Wr71S7T/WrlWo31egAAAPyz8ZwbTK9bLYStdjnc/nDl9Drl9en+cHUAQH2dNeHv0f3747v/7t/FjV1dadO4CH8BqNVQH7nVwthql+PZL78cqi5tG6vxXh8AAOBsNJ7zgtWuW+38Y1qXnqdM90fqX+0y3R+uDgCov7Mi/D26f3/cv2BBtDXgoQp/ARiNah+71ULZ8v2RAt2h9oeqG25/uDoAAACmnmrnE4cKYqudlyy/rGW/2uVw+8PVAQD1l9nwd0dnZ2xvb0+r6x4AC38BGK1qH71DhbFpcDtUqFutvZbLorRcbrg2AAAAJsdQ5xHT+vQ85HCXtdaVXw63P1wdANAYmQ9/b92yJea/9a1G/gIwZQz10VteX22/2mW1ulou0/1q5dRI7QAAADROLecN0z7VQtnRXFarK78cbr/cUPUAQP1lNvwt2rR8eTz/2GMRDRj1G8JfAMZoqI/focLZNLwd72XRSOWRjLY/AAAAIxvLOcL0OkOV63U53H65oeoBgMbIfPgbEfHsQw/F5ttvF/4CMGUM9/FbLfQt3x/pslpdtbZ0v9xQ9QAAAEw91c4pDhXMpucla2lLL4fbLzdUPQDQOGdF+NtIwl8Axmqoj+C0fqiwNg1208uR6oYqFw1VDwAAwNQw1LnEtL5aUDtcXXpZ6365oeoBgMbKbPi7o7MzXvybv4kVjz6aNtWV8BeA8RjqYzitH6qcXo5Ul+4PV1c0XBsAAAATb7hziNXahgpr03OU1dpq3S83VD0A0HiZDn+3t7dHRMQVy5Y1LAQW/gIwXkN9FKf1w5VHG/iOVB7JaPsDAAAwemM5V5heZ7hytf1qdel+tXLRUPUAwMTIbPhb1JX8s1HvdX+FvwDUw3Afx2nbcOXR7pcbqh4AAIAzw1DnFocKcWvZr6VcNFQ9ADBxJjT8HRgoxIkTJ+PkqYEYGCjU/STzrJnTY9asGRHJyN8b1q2La++5J+ldH8JfAOpluM/FtG005eHahqsDAADgzFPt/GJaV14erq2Wcrnh2gCAiTEh4e/AQCH6+0/EiZOn0qa6SsPfuZdcElfedlvara6EvwDU00gfy2n7eMtFQ9UDAABwZql2frGWupHKQ9UVDdcGAEychoe/x0+cjGPHTqTVDVEe/k4U4S8A9TbSR3O19rQuLQ9VF8PUj1W9bw8AAOBsUM/zgkPdVlqflkdTVzRcGwAw8Roa/vb3n4j+4yfT6oYpD397t26NR1pa4urW1jj0j/8Yzz/2WFzd2ho3dnWlVxsX4S8AjTLcR/RQbdXqq9UVDdc2nLFeDwAAgLEZ7XnD4fpXa6tWF8PUxwhtAMDkaFj4O5EjfovSaZ+La/5GRCzduDE23357tBUKcerUQEybli+75tgJfwFopJE+podqH6o+RmgrV2s/AAAAJt5oziMO13eotqHqi0ZqBwAmR0PC34GBQhw+ciytbrg0/J17ySUx9+KL4582bYrrPv3puH/Bgmgr/Hz94Rkzpkc+P/5/UIS/ADRaLR/Vw/UZrq2olj4AAABMbbWeWxyu33BtRbX0AQAmR0PC36NHj8eJk6fS6oZLw9/ykb9FxfB3YKAQc+bMTJtHTfgLwESp5SO7Xn0AAADIjpHOOY7UXlRrPwBg8tQ9/J2sUb+RhL/DKa5FfM7c2eMe/Sv8BWCi1frRXWu/GGVfAAAApqbRnlustX+t/QCAyVf38LcYrE6G0Ya/tfYfjvAXgMkymo/w0fQFAAAgm8Zy7nEs1wEAJk8+rRivk6cG0qpJ07t1a3TlctGVy8WOzs60eUrdVwAYrfIvE42k2heQAAAAyLbxHAuO5ToAwOSre/g7MDA1Rhb1bt0aj7S0lMrb29sHBcBT5b4CwHiM5YA8PQEw1AYAAMDUkx67DbWN1niuCwBMDXWf9vnVnx1NqyZM+TTOOzo7Y3t7e7Sdfnjl5fKpqc99zZyK2xgt0z4DMNXU+aMdAACADHM+EgCype4jf6eSq1tbS/sLrvn/t/f/0XGc52Ho/yxEWSJty5EBOklN16nTgoIjKbKtpjFINLWlKLl2TUGq2iq2emXClGP7HFpSK1KIouqeq+rIFMFTydb9OrLFgM69tKN7qkoQFLe2Y1o3JYm4p3LkyGohoGkdHzl0agKWJcvUD5LA9w9hJrMvdhcLYAGCg8/nnD07887s7Oxi32dfvM++77yjahsAlFX6QyMAAAAo8n8jAJRXqZO/3/7MZ/Jr/hangAaA1SKddcI/9wAAAKtH+r+g/wkBoPxO+bTP3/3e0bjns1+L556f3+M2/K1z49adH4izz3pNXlac9rkR0z4DwGwtbhIAAACwjPQrAgCxEpK/t/6bfx/fP/JsWtyUNAEs+QsAAAAAAACsVqc8+fvhj++NiIibb3hfdG38W+nmmrLHRJIALiZ/v7VnT7zwzDPxs7/yKzH+h38Y77jxxnjo0kvj+ulpyV8AAAAAAACgdE77a/5+/8izccfuR+Oll19JNwEAAAAAAACsGqd98jcKCeATJ09WlX/7M5+Jr15zTXz3y1+Ohy69tGobAAAAAAAAQJmUIvkbMwng/3R4PC2OiIiLPvnJuH56Oq5v7QzXAAAAAAAAACtGaZK/kVxv+F033RRXfv3rETMjgD9dqcSnXU8XAAAAAAAAKKnTMvn7hd/bNutWy/8cHk6LAAAAAAAAAErptEz+NuNbe/bEtz/zmYiIuPLrXzftMwAAAAAAAFBqpU3+Fj106aXx6UolJp96Kt0EAAAAAAAAUAqlTf6+66ab8tG+109Px0Wf/GTsv+CCdDcAAAAAAACAUiht8vdbe/bEpyuV/JZNAQ0AAAAAAABQRqVN/mY++sMfVo0ABgAAAAAAACij0iZ/33XTTXHl178en3/Tm+LTlUr8yfXXp7sAAAAAAAAAlEZlerq1w2Gf/8mLaVFD19/8xXju+fk9pp5/fuWvxD+/8h9ERMQzBw7EQ5deWrX9ok9+Mn7t05+Ol18+Hi+/ciIiIs55/dqqfebryJEjUalUoq2tLdra2mouVyqVmreIyO8z6ToAMH8tbt4Ai1CW9q24AiuHuAK0WlniCgBArISRvzd84rJ4wzmLS8BmLvilt+TLP3ziifg7739/Pt3zb+zf77q/AFBi09PT+Q1YOU7nunk6nzuU2elcN0/nc4cyUzcBgDI55SN/W+ms16yJs846MyIivrVnT/zV//f/xZY/+qOIiHj6i1+Mr15zTVw/PW3kLwCc5lrcfAFOoZXS/hVXoDzEFaDVVkpcAQBoRmmTv5NPPRX7L7igavvmgYF41003Sf4CwGlosU2WxT4emNti27KLffx8LTYuLPbxwNwWGxcW+/j5WmxcWOzjgbktNi4s9vEAAEuttMnfzKdnGmS/sX9/nPehD0VESP4CwGmk2aZKs/sBp06zbd1m91uoZuNFs/sBp06z8aLZ/Raq2XjR7H7AqdNsvGh2PwCA5dby5O9PXnjplP0zUyv5m3nmwIF46NJLq6Z9rlQq8frXnZ3uOi+SvwCwdOZqU8y1PZrcB2itZtq0c+0z1/aFmismzLU9mtwHaK1mYsJc+8y1faHmiglzbY8m9wFaq5mYMNc+c20HADgV2tKCxWprO30aPafTuQLAalOvE3R6ejq/1Suvtw+wPNJ6WKs+1ivP1CtfjHrHrHcu6fnX2gdYHmk9rFUf65Vn6pUvRr1j1juX9Pxr7QMsj7Qe1qqP9coz9coBAE6llo/8LU6pvNyKI3+/tWdPHNqxI92lauRvo5HCzTLyFwBaq1HTJN2WrmfqlQPLr177Ni1P14sabWtGo5iQbkvXM/XKgeVXLyak5el6UaNtzWgUE9Jt6XqmXjmw/OrFhLQ8XS9qtA0AYDm1PPk7NTUdL/z0pbR4WTSbzM2Sv6977dmLHv0r+QsArVGvSVKrPC2rtX7y5Ml82fcrLJ9inTvjjDNm1b+51uuVRYPyetLYkKlVnpbVWhdX4NQQV4BWW0lxBQCg1Vqe/I2IePHFV+L4iVf/gVlO6cjfF555Js6/7rrYf8EFcX3hZb788vGYmpqOtWtfU3j0wkj+AsDi1WuOpOXF9eLy1NRUTE1N5R2olUolzjjjjPw7GVhexTqZ1dVadbLY9k3bwel6pl55Ko0fmbRcXIHTg7gCtNpKiCsAAEthSZK/p2r073ySv2eeuWbRo35D8hcAFq1eU6Rex2naiXry5Mk4efJknHnmmXHWWWfFmjVrfJ/CCjI9PR0nTpyIl19+OY4fPx5nnHFG3rGaqdepWq8u1yvPiCtQbuIK0GqnIq4AACyVJUn+RkS8cvxEvPTS8bR4SaXJ33rX/D15cirOOKM1v6qV/AWAhavXDKnVeZqWnThxIqampuKss86Ks846y4gZOA1MTU3Fyy+/HC+//HK0tbXNSn7UaiPXax/XKxdXYHURV4BWW464AgCwlJYs+RuFa+sul2av+dtKkr8AsDC1miBph2m6PD09HdPT03H8+PFYs2ZNvPa1r/XdCaeh6enp+OlPfxonTpyIM888s277uN5yvTJxBVYvcQVotaWKKwAAS21Jf3J61llnxtlnL28yNjP51FPx6UolPl2pxItHj+bLAMDK1KjzNLudPHkyjh8/HmeffXa87nWv05ECp6lKpRKve93r4uyzz47jx4/n19or3qJOXJiPWo9Pn0dcgXIQV4BWW664AgDQakua/I2IeM2Za+J1rz07zlxzRrppSf3lV76SL3/+TW+q2gYAnFqNOkXSTpTsPrtWXtYBA5z+ssRIVr+jRt1vJl6ky6n0WOIKlJe4ArRaK+MKAMByWPLkb0REW1sl1q59TbzutWfHWa9ZE2ec8epUyEtt88BAfPSHP4yIiI/+8IdxvcYWAKxIaadJ8X56ZgTNyZMn47WvfW2sWbOm6rHA6S2bEjWr51m9jzoxoVnpY8QVWD3EFaDVliquAAAshSW95u+p9K09e+LQjh1pccsTwK75CwDzkzY90k6StCN1eno6Tpw4Ea997WvjzDNPzeUkgKV3/Pjx+OlPfxpr1qyp22ZO7+upFU+ye3EFVg9xBWi1xcSVdB0AYKmUNvm7XCR/AaB5abOjuJ51nKbLx48fj7POOivWrl2b7wuU04svvhgvv/xynjhJ283FtnK2nMWKdD1bFldgdRNXgFZbSFyptw4AsBSWZdpnAIBU2pFaXM7WT548GW1tbTpSYZVYu3ZttLW1VV1PL40PtZZrlaXL4gqsTuIK0GqLjSsAAEuttMnfb+3ZE39y/fXx9Be/GMP/+B/HMwcOxKf9ug4ATpl6HR9Zea1Ok6mpKR2psMqsXbs2pqamZsWDYqwoljdaFleAEFeAJTCfuFJUrxwAoJVKm/wFAE4ftTpNslE0rpsHq8uZZ56Zj6aplWRpVvo4cQVWL3EFaLVWxRUAgKVQ6uTvtz/zmfjqNdfEd7/85Xjo0kvTzQDAMkk7QLL1tJOkeJuamoqzzz678ChgtTj77LPz0TTFW2YhZeIKrG7iCtBqzcSV4n1aDgCwVCrTJW1xTD71VLSff35a3HJHjhyJSqUSbW1t0dbWVnO5UqnUvEVEfp9J1wGgDGp1gmTLxU6RYkfq1NRU/MzP/Ey+L7C6/PjHP65qVzdqQ6fEFaAWcQVotbniSjG21FsGAGi10o78/cuvfCU+XanEpyuV+JPrr083AwDLpN7vzGolgYu3NWvWVO0PrC5r1qyZFRfS5Euq1j7iCpARV4BWaxRXosn/hQAAWq20I39jZvTv/gsuqCq7vsUv18hfAGgsbWqkHajF5enCKJq1a9fGWWedVfVYYPV4+eWX48UXX6w5mmZ6erqqTZ3J4ki2j7gCFIkrQKs1iiuRjP5N40u6DgDQKqUd+RsR0X7++S1P9gIAC1dM9hbLirdMW1upmynAHIoxoF6cmG+5uAKrm7gCtFqzcaV4DwCw1Er7X8q39uzJp32OiPg773+/RDAAnAayThHTKMLqlsWAVnSUiitAiCvAEmhlXAEAaJXSJn8jIi765Cfj+unpuH56Orb80R+lmwGAU6j4i/hav5AHyKQxol68qLVPrf0A0hhRL17U2qfWfgBpjBAvAIBTpbTJ33fddFO8bcuWfPTvn1x/fboLALDEip0dxU6Qolrr0zPX1gNWr+L1NYumpqby5WIna3G/4j7F/cQVWN3EFaDV6sWVeuvF8nQfAIBWKW3y95kDB+KhSy/N17/9mc9IAAPACqcDBKhlMbFhMY8FymsxsWExjwXKS2wAAFaK0iZ/f/jEE/l1fq+fno7f2L8/vv2Zz6S7AQArQPHX8jpNgKJibJhPfBBXgHrEFaDVFhpXAACWQmmTvwDAqdWo0yPrFEk7Rxo9Bli90g7VevEjvRUfC1AkrgCt1ih+1NNoGwDAQpU2+fsLv/mb8d0vfzm/5u9Xr7kmNg8MpLsBACuMDhCgqBUxoRXHAMqjFTGhFccAykNMAABWktImf9vPPz+uLzS8fmP//njXTTdV7QMArBw6TIBGFhIjFvIYYPVYSIxYyGOA1UOMAABWgtImfzPZNX/P+9CH0k0AwDLTGQK02lzTKQLMl7gCLAVxBQBYLqVN/n5rz574k+uvT4sBgBUo6wjRIQLUspAYsZDHAKvHQmLEQh4DrB5iBACwUpQ2+QsArBw6QIBWqxVXapUBNKtWDKlVBrAY4goAsNRKnfz99mc+E5+uVKpuAMDKovMDmI9mYkYz+8ByGBsbjw0b3hYPP/xIRERMTv4o3ve+LXHDDTelu3IKNRMzmtnndHfbbbfHhg1vi7Gx8XRTQ9njOPXEmJVjNcQMAGDlKnXy96JPfjK/5m92AwBWtqXsKMk6JzdseFs88cS3080RhY76Ymd9mR06NBLXXvuR2LDhbXHttR+Jr33t6+kuNRXfp0OHRtLN8fDDj6ya95Cl1YqY0IpjzGVsbDz27Lk73ve+LXnduOGGm2Jy8kfprhAbNrw5LWIZtSImtOIY9Wiv1PbMM9+PG264KTZseFu8731bYv/+L8WxY8fS3WrK3qvVQoxZfksZEwAA5qvUyV8AgHoOHHgsLYqIiMce+5O0qLSeeOLbcfXV18QFF5wfBw58Jd761rdGX99H45lnvp/u2tCdd+5quvO1GQ8//Ehce+1H0mJYse677/645JLfjHvuuTcuvvji6Ov7cPT1fTgiIiYmJtLdW2LPnrtjz5670+JFm5z8Udx22+2rJpm03Nrb3xj/4T8Mx0033Zhugpq0V141Ofmj+O3f/kRERDz66EPxwQ9eHf39t9b8AVorreSY+MQT344bbripaqS2GAMAQJQ9+WvaZwBY2Yq/kF/OX8tfcsl74p577p01Im9y8kdxxx2fihtu2F5VXlZ/+Zffi4iIT3zit2Pjxs740IeujoiI0dGnkz3ru/DC8+PJJ5+Kz372c+mmBXviiT+v29nN6tVsvGh2v1b52te+Hnfc8am46qor48///PG4/fbb8ts99+yJjRs704e0xD333BvPP/+TtHjRJiYmYnDwC2kxlFKz8aLZ/VpNe+VvTExMxJNPPhXXXntNvOMdF8U113wwIiKefPI76a4ttZJj4l/+5ffiwQcfSos5xU5VvAAAKCp18hcAoJbe3i0REfGf/tPBqvJs/cILL6gqz3zta1/Pp0h+3/u2zBoFsmHD2+K2226vmkp5z56749ixY3Ho0Eg+Hextt90+a6TsoUMj+VSG2ePSa+5lj92//0v5NI/ZtI/pCMBDh0Ziw4a3NZzGef369REz+x47diweffTLceGF58e73vXOdNe6Lr744ti164645557605NmTl27Fg+qjd7D++77/68Uzt7LVknazpF49jYeNV7dN9991e9j+l217tjOdxzz2fiwgvPjzvvvD3a29+Ybq6STQ1d/Iymo9ayev7EE9/O68ptt92ej8jPplSPiBgc/EK+PZPWg2I9yZ67+JxZ2djYeNx22+1xySW/GRER27ffGBuamE42G3lWfE3ZuX7ta1+PDUkcys6/WHbffffHhg1vy8+zGCc2FOJoJpsSN4urxdc/V5xOLeZYG2r8ra699iNzxsLscUVzPVdx+4YNb4v9+79UtZ1yWmh7pZk2xbFjx6riUa3PVK1LOGTf1elnONUoFtXaPtd3dkdHR0RhJHR2Tpdc8p6q/ZqVvY6HH34kHn74kbyNVjzPRjHx2LFjsX//l/LH1ar76TTVWdtsQ6FtU4yJWR2PmePfd9/9+fGzaa4zGza8LbZvf3V07yWX/GZsKFyreUONv08rvn9i5ocHxeNce+1H5j1jDAAAS6+0yd933XRTXD89Hb+xf3/8nfe/3zV/AYDc29/eFZdc8p4YGhquKh8aGo4bbtgeP/3pT6vKY6Zzrq/vo/Hud/9qHDjwlXjve98T27ffOKuD/vHHH48HH3woenu3xFVXXRn33HNv7Nq1Jx588KG47rqPRF/fh2Nw8Avxf//fX8wfs3//l+Lqq6+JiIh77707du26I77xjcfikkt+c1aH2uDgF+KFF34a3//+/4wrrrg8Nm7szEcGFTtVv/nN/xwREZs3dxceXW3z5u646qoro6/vo/Hxj2+P73znqfjc5z47ZwIrdeWVvXHJJe+J3/3d22YltYtuueW22L79xrjggvPj3nvvji1bPhB33PGp+Jf/ckccO3YsOjo64t577847cu+99+64995Xk9pjY+NxySW/Geecc048+uhDce+9d8cdd3wqdu3aEzHTGZl10D7wwP544IH9hWeGpTE2Nh5PPvlUbNnygVi3bl26ucoTT3w7LrnkN+Mb33gs/2w/++yzcfXV18z6kcbjjz8ef/AH+6O3d0vccMP2GBz8Qtx//2DETPzK6sUll7wn7r337rjssksjmqgnn/jEb8eFF54f99//+/n+r8aoO2Ljxs647LJL49ZbfyciIvr6Phz33nt3vP3tXTNnVduBA4/FxRe/M3++Bx98KJ+aNfshSXFk3p/8yatJq2LZn/7pN6Ov78P5ezg0NBy9vVviwIGvxA03bI977rm35uwCDz74UDz44ANx++23RcwjTtey0GN973vfi3vuuTd6e7fErl13xNGjR+MDH7hy1kjNRuZ6rkOHRqKv76NxwQXnx6OPPhSDg5+Pv/7r/5UehhJaSHul2TbFLbfcFvfcc2/ceuvvxL333h3j43/RshGuc8WihXxnt7e/Mf+x2bXXfiTuv//344EH9sc73nFRuuu83H//78f/+B//M6677iNx1VVXxh13fCq++tU/johoGBN37doTX/rSA3HddR+JRx99KM4999z4wAeuzBOw2TTV4+PjsWvXHXHdda+ecz333POZuOOO/zO+//3/GTGTOD5y5Adxww2fjEcffSg6Ozujv//W/Pvi3nvvzi8vkP0NswR5qlXfPxER//Jf7ohvfOOxGBz8fDz66ENxwQXnN2z7AQBwapQ2+QsA0MiHPvRbceDAY/kojSee+HYcOPBYzREkx44di+3bb4xbb/2d+NjHrouNGzvjppturNkhGxFx5523xxVXXB7/+l/fEjGTsP3X//qWuOKKy6O//9WRLUeO/CBi5tj9/bfGJZe8J3/cNdd8MO6++9UO0v/3//13hSO/Os3yxz52XVXZhz70WxER8Wd/9uprOXbsWN6h2ygh9cQT345nn302Lrzw/Dhw4LG47rqPxFvesiFiZrRLOmqknnXr1sUtt9zccPrnJ574djz44ENxww3b46abbowrrrg8Pvax6+Lee++OAwcei0OHRqK9/Y1xxRWXx1vf+taIiLjiisvjiisuj4iI3/u9z8cll7wnbr/9tnjHOy6KK664PG699XdicPALMTn5o/y6quedtzE2b+6OzZu74847mzt/WKyf/dk3pUWz/MEfvJrc+NznPpt/tn/v9+6NCy88P+655zPp7nk8yGJNlpTZuLEzrxdvfetb44orLs9/5DFXPVm3bl3ccMMn48CBx+Lhhx+JL37xgbjkkvfElVf2Rsz8IOQ97/m1iIh4xzt+Of+BSSOf+MRvxzXXfDB/vhtu2B5PPvlUPPPM96O9/Y1x1VVXxje+8epIvWPHjsWDDz4UfX0fzssmJ38UBw48VvVDld/7vXvz577pphvjwgvPz/cv+lf/6oY8xs03TqcWeqyjR4/m53vNNR+MW27pj6gxUrOeZp7r6NGjERHxq7/6D+Id77goLrvs0vjEJ347ORJlNd/2SjNtiuw7OfvcXXHF5XH77bfFVVddmRxxYeaKRQv5zn7mme/H+Phf5G2WLVs+kMeNbPTsQlx88cV5uyRrtz3xxJ9HNIiJTzzx7Rgc/ELcckt/XHHF5fGOd1yUPza7FvN//I9fiSeffCpuuaU/rrnmg3nMr+eGGz6Zt8EiIt7ylg1x++23xWWXXRrveMdF8a/+1Q0RhR/OvPq8vxwREe95z6/FFVdcXvfHe636/omZH/x0dnbG5s3d8Y53XBQ33XRj1XkDALAylDb5+609e+LTlUp89Zpr4rtf/rJr/gIAVbIOw2z6wKwjtdYIkmykzB13fCqf5m7DhrfFgQOPzbo27cUXX5wnELJOuKuuujJfzrY9/vjjEYVj9/ZuqUrUZgmX9JqeF198cdV6FF5LNto3SwJnHZa1PPHEt+MDH7gyenu3xIMPPhBXXXVlXH31NfkUgIODX4hzznl9+rC6Nm7sbDj9c3Z94Q984P1V5dkImlqjl4oefPChOHDgsar3/447PhUxcz2+t7xlQz5i59prPzJrdB4spbk+vzHzGe7r+3BVJ/m6devi4osvjieffKpq32IciZkkbzPmqicxM5Ktr+/DsX37jTPJi5sb/kgkClMjZ7fiD0Oeeeb7sX//l+K2226Pa6/9SNxzz6vJjWwk2MUXvzNPBo+NjceFF54fH/rQ1XlZdo3x4nTzf/Zn34777rs/brvt9njf+7bEk08+Nes9ipnkSGY+cbqWhR4r/VutX//qyLsseTSXZp7r4ovfFRdeeH5cffU1+VStc/3NKI+FtFfmalNk38lpO+HXfq2nan2h5opF8/3OzkbRnnPO6+PBBx+IW2/9nbjjjk/FfffdHzFT3y688Pz0YU3JEqhRaLfNJXv/rr76mvz1/fIvv9o+y37cNz7+FxHJDCzr1q3LR+um3vrWv50Wxde+9vXYs+fuuO222+Pd7/6HETXahc1o5ffPrbf+Tjz44ENx1VVX55fuEI8AAFae0iZ/s2mf0xsAQMx0et166+/EPffcm099ml1br55bb/2dOHDgK7NucznnnHPSolmdbYtRfC3Hjh2Lb37zP8cll7yn4Yi9LEFzxRWXx7p16+LOO2/PE8DZ9YPTRO1citM//8IvNJesmo+rrrpy1nt/4MBX4i1v2RDr1q2Le+7ZEw88sD/OPffc2L79xrjqqqvnNfUqzFfWkf7Hf3xgxUx72aieZObzw46IiOuu66s61nXX9UUUpnZ9/PE/i82bu+OWW27Op0jN/P2//2pCZHT06fjP//m/xJYtH8hj0+jo0/HUU/81LrnkPXnS5eGHH4mrr74mXnjhhbjsskvj7rv3zGs04kLjdC2LOdZ83+NGz/WWt2yIBx98oGqq1rmuj0p5LKS9slDN/JClWY1i0Xy/s//dv/v38eSTT8UHPvD+WLduXXzsY9flCeA9e+6OwcEvxHXXfSR92JIbHPz8rNeXxcd6vve9VxPHc9m1a0/09X00fu7nfjauuOLVafBXgo997Lo4MDM9/R13fCp++ZcvrvmjPwAATq3SJn8BAOaSjXi58867IiLiH/7D2iNesmuoPf30WGzc2DnrthjZsdOpRLNrxv2tv/XzVeX1ZK/lq1/946Y6hrNpRLOEVZYAvmTm+sF9fR+e92tbV5j+OUsuZ9avXx9RmA4x89/+22jV9nouueQ98eCDD8Vb3rJh1vu/bt26/HVs3twd99yzJ3btuiOefPKp+Na3/iw9FLRMlpQ5cOCx+OxnP9cwAZxNnVlMbhw7diwef/zxmtO3LsRc9SRmRpLdc8+9MTj4+bjwwvPjzjvvanjeMZN8LB4rSyRn9ffjH/9oXHbZpbFxY2c8/fRY1WM3buyMCy88P5588jvxp3/6zTj//F+KmLl+Zlb2679+Sb5/NmL2pptujM2bu2cSnw/l2+tpZZyez7G+973vVb1/2Xty4YUXFPaqr5nnOnbsWKxbty6uuOLy+IM/+P246qor48EHH5p1TXjKa77tlbnaFK997WsjIuK//JdXZyGJmc/ZH//xgXw9Ct/NxaTw0aOvziLQyFyxaL7f2S+88EJEoc0SM0nI7JrgF154fvzGb/x64RFLK3tffvjDH856fVl8zH4AUkyMPvPM92fNHlDP4OAXoq/vw/m0+nPF6UZa+f1z7Nix2DgzPf2jj74am5t9TQAALJ/SJn+/tWdPDP/jfxzPHDiQT/ls2mcAoGjjxs6ZkSmPxa23/k7d6f7a298YN9ywPR588KG47bbb4+GHH4mHH34k7rvv/vja176e7j4v7e1vjF277ogDBx6LG264KR5++JHYv/9LceONN8WFF54f//Sf/pP0ITVt3NgZlxSuEVmvYzjzwQ9eHRERt9xyW/56PvvZz8WBA4/FhReeH4ODX1jQSI6NM9M/px2Bmzd351M87tlzd/7+vTra58qqaREze/bcnY9Czq5r/PGPb8/Pd//+L+VTPj7zzPfjtttuj0OHRuLQoZF4/PFXO5BrTaMIrfS//+8fiquuujLuuefeuOqqq/PrZd922+1xww035UmXG27YHhER/+JffDj/DH/8469eHzfbNl+Dg1+I/fu/FPv3fymiiXoyOfmjuOeez8RVV10Zl112adxyS38cOPBYPPTQUNVxIyLuv//34+GHH2kY47IE0qOPfjkefviR2LPn7pqJ2i1bPhDf+c5TceDAY/HOd746Ve3mzd152S/90tvzfbOEyf79X4qHH34kbrnltnxbI62M0/M51tGjR/M4un//l2L79levUVwrptXSzHN99at/HPfdd3888cS342tf+3qMj786fXa97yzKZz7tlWbaFJs3d8eFF54f/f23xn333Z/XteyHYZmurvMiIuJLX3ogjzV33rmrap9a5opF8/3OzhKUv/u7f9Nmue++++Mb33i1zfLkk0/VjGOtVIyJ73znRXHJJe+pev8enomBWczPZk/53d+9LY9nt976fyRHre/CC8+Pxx9/PD/27/5u/Vj4e7/3+di//0v5c6da+f3z8Y9vj6997ev5tacjIn7xFxd2vWUAAJZOaZO/LzzzTLz5H/2jiIj4O+9/f1zzne9ERMSLyT8zAMDqlk0nml73LvWJT/x27Np1Rzz++OOxffuNsX37jfHCCy/kHaOLcc01H8yn89y+/cbo77813vve98TnPvfZuh28tXzoQ7810+G7fc7Hpc+5ffuN8fzzP4kHHtgfn/vcZ+PCC8+P3/3d2xY0siyb/jl15523x623/k584xuPxfbtN8bw8KNx662/E3fe+TfXD42ZKWazEcjf+c6r02NfdtmlMTj4+YiI/Hwff/zP4h/8g78fMTPa6fnnn4+rr74mrr76moiIePTRh/KRc7BUslHz9957d3R2dsbg4BdicPAL8fjjj8eGDW/OR+K94x0XxaOPPhSdnZ35Z/jcc8+NRx99qOa1O+fywAP78+TNCy+8Oipvrnry6U//X/Hkk0/Fxz/+0YjCjzL6+2/NkwbZDziefPKp2L79xobXcty8uTsfeXf//b8fv/iLb6t5Pcvzz/+lOHDgsbjqqivz43V1nZf/2KT4+v/5P/+n+TkNDQ3Htde+Wp+b0co43eyxLr744rjqqivj/vt/P/r7b42+vg/H5z732YbvW2qu5/qFX3hr/OmffjM+8IEro6/vo/n3w3yeg9Nfs+2V9Pu9Vpti3bp18bnPfTb/UdbQ0HBcddWVcfHFr07Tnmlvf2M88MD+WL9+ffT33xrj438RN9zwyap9apkrFs33O7tW/Hz66bG47rqPxP/z/3whjxmHDo2kD120WjFx3bp18W//7UDccMP2uOOOT8X27TfG/ff/frzuda/LR/5u3NhZ9d79yZ8cjDvu+D/Tw9d1yy39sX79+ti+/cZ44ok/r/m+/8Zv/Hr09X04HnzwofjSlx6oGxNqvX8L/f654ILzo6/vo/GBD1wZ3/nOU3HvvXfHFVdcnu4GAMApVpmeLueFcL+1Z08c2rEjv87v01/8Ynz1mmtaft3fI0eORKVSiba2tmhra6u5XKlUat4iIr/PpOsAcLoqNjGy5eL99PR0TE1NzVqempqKtra2OPfcc/PH05yvfe3r0df30QV15sFK9Oyzz+YxIW1LF9vUmSyepDdxhaWwYcOrye7bb68/Io+VR1zhVNqw4W1xySXviT/4g99PN3EaS+NKMb4Ul6PQ71eMNWncAQBYrNKO/H37tddGROTTPX/1mmviok/O/qUkAEBZfPGLfxiXXPIeiV8AgBUmm8r93e/+1XQTAAC0VGmTv2vXr68a5bt5YCB+7dOfrtoHAKAM9u//UuzZc3c+5TMAAKfO2Nj4rOt49/V9NC688Px4//v/t3R3AABoqdImfzPXT0/H9dPT8a6bbko3AQCUQn//rfGNbzwWg4OfN+oXAOAUy673nl1j9447PhU33LA9Pve5z+bXBQYAgKVS+mv+plzzFwCWR7GJkS0X77Pr5aXLrqEHZNJr6NW6FaXX5HRtTiAlrgCtlsYV1/wFAE610iZ/l4vkLwDUVmxiZMvF+6zjNF3WmQpk0s7UWreiNDkjSQOkxBWg1dK4IvkLAJxqpZ32efKpp+LTlUp8ulKJF48ezZcBAAAAAAAAyqi0yd+//MpX8uXPv+lNVdsAAAAAAAAAyqa0yd+IiM0DA/HRH/4wIiI++sMftvx6vwAAAAAAAAArRamTv4d27MhH/X7+TW8y7TMAAAAAAABQWpXpacNhF+PIkSNRqVSira0t2traai5XKpWat4jI7zPpOgCcropNjGy5eD89PR1TU1OzlqempqKtrS3OPffc/PHA6vTss8/mMSFtSxfb1JksnqQ3cQXIiCtAq6VxpRhfistR6Pcrxpo07gAALFapR/4CAAAAAAAArBaSvwAAAAAAAAAlIPkLAAAAAAAAUAKSvwAAAAAAAAAlIPkLAAAAAAAAUAKSvwAAAAAAAAAlIPkLAAAAAAAAUAKSvwAAAAAAAAAlIPkLAAAAAAAAUAKSvwAAAAAAAAAlIPkLAAAAAAAAUAKSvwAAAAAAAAAlIPkLAKw6IyMj0dfXl9927tyZ7sKMgYGB6Ovri3379qWbWCUGBgZiZGQkLSYiJicnq2LJcsSVffv2xfDwcFqcy85pKfX19cXk5GRavOLN9d5k3w2n42srauZ1zPU54tQaHh6eFVPGx8fz7Uv999u3b9+SxbBGRkZGYmBgIC1uqbnqxuki/Rst9WcCAIDTi+QvALCqDAwMxNDQUAwODua33t7eqk7VxRgeHi5NonRkZCSOHj0ag4ODsXXr1nQzLTQ+Pn5KOtpZnPb29qpYMjg4mCcubr755nR3Vrju7u4YHByM9vb2dNMsK/lHEenrEF9OT11dXXlc6e/vj127drWsrTKXrVu3xu7du9NiVhB/IwAAGpH8BQBWjWxERNpZ1t3dHZ2dnVVlRExMTMT69evTYqCB7AclzSQQAZrR2dkZPT098fTTT6ebAAAAZqlMT09Pp4U078iRI1GpVKKtrS3a2tpqLlcqlZq3iMjvM+k6AJyuik2MbLl4Pz09HVNTU7OWp6amoq2tLc4999z88a2yc+fO2LZtW8NE78jISOzduzdf37ZtW3R3d+fbDh8+HJs2bcr36ejoyJPJAwMDMTo6OuuxfX19MTAwkCeDRkZGYmhoKH/czp07o7e3N/bu3Vt1vH379sXBgwdnPU9qcnIyduzYEQMDA7Fjx468vPic+/bti/b29jh06FBMTEzk29LXm5UXnzsKryV7rrQ8GjxHo9eR/U127dqVlxXPO5L3IWaSa1F43ZniuYyPj1cds7htLjt37oyJiYmIiOjp6YmtW7fmx8ueOwrPkZXVey9jjtc5PDwcQ0NDeXn6nJlmX0P6fjV7Hpni43t6emJiYiI2bdrU1HO32rPPPpvHhLQtXWxTZ7J4kt6WMq4UDQ8Px6FDh2bV1cXWgaKsnk1OTlb9nbLR+Vm9KH5WF/v8xTqxbdu22Lt3b9U+xamUi+dS1NfXF/39/VXxN4t92WereJz0PAcGBqo+h8W4l8Wyw4cPR0dHRxw8eLBmfckek42ijOR5ar13tV5bOnV0vfcifQ1pjLzsssvimWeeqYpj6fdDZnh4OMbGxvJ9s/iQPvfAzMjz7HXUiy/ZuYyNjeXfW7XeszI6HeJK+veOwudny5YtVcvj4+Oxd+/eWZ+1mBkdmpmrHhdl9Sl7/oV8XtLv6N7e3tiyZcus8mLMSJ83GsSvuepzZq7XXdxe6/jZY+rFtlS9840a8barqyt27NhRdQ7Fc5vPe1X8TLD80rhSjC/F5Sj0+xVjTRp3AAAWy8hfAGBVmJycjImJiYaJ34iIsbGxqmkWi8m8iIjR0dGqfdavX1/V2d7b2xs9PT0xODjYsFM0lU1FnXUSDg8Px+joaP48XV1deWduPXfddVe+f29vb1WHYcw8x8033xyDM9OBZh3GAwMDMTg4GNu2bYu77rorYqbDuLe3N592MnstWUfo4Mz0tnv37q26dl76HM28jiyBOjg4mL93mYGBgZiYmKh6XZlG57Jr167o7+/PtzVrYGCgaqrN0dHRGBkZic7Ozujq6qqa5vXw4cP5+TR6LzP1XueWLVuiv78/Ojo6YrAwxfZCX0PMJMiz96v4fkaD84gan7uNGzdW/aCB+iYnJ/PPf1H6ns63DtQyNDQUGzduzB9z8ODButd6XOzzp3VibGys6rEDAwP552ywwZTJvb29cfjw4Xw9m762mPjN6nN2nvP93I+OjubvS6P4+8gjj+TPE4VZIVL1Xlt2ftn5FpOvc72GYoy8+uqrY3R0tCqGFuNK0aZNm6rqYjYCNPt7jIyMRFdX16z3v158iZlzufzyy2NwJmal33esHCMjI3Hw4MHYtGlTuqkpc9XjZszn8zI+Pp4nZot1LWY+49l35eBM/Ko3nXUz8atRfZ7rdY+Pj1fV8fXr18+KB1mbr5nEbzPnW4y3o6Oj0dfXl8eENP7O570CAIAiyV8AgIJi516WKC52zHd0dFTt09fX15LkWNrZPzQ0FNu2bcvXt2zZMufzFJNOW7ZsiY6OjqpOwp6enqrEwCOPPFI1PW1xRF0tw8PD0dXVle/X3t4ePT09VZ2p6XM08zqK2zdt2hRHjx6NmDmP0dHRqiR2NqJlrnPp6OjIR9G0t7c3TARlxsfHY3R0tOrv29vbmx9z06ZNVcmrYkd8M+9lvddZz0JeQySf4fPOO2/W8zQ6j/Tv1d3dHV1dXfk69Q3Wme45fU/nUwfq6enpqfo8bNu2bVZSI7OY569VJ9IESEdHR9XnvN6os02bNlWNSD98+HBs3rw5okZ9jpnnSROjc+no6GiqnhRH527evLnuczT72mIeryGNkT09PXlcyWJerdfQ3t4eXV1deUw/dOhQ1d99bGwsNm7cmDyqsZ6envx7rlbM4tTKEoN9fX2xd+/eGGzw44pGss9Vo3rcjPl8XrIfMRR/cJfVny1btlS9jq6urvy7LtVM/KpXn5uJX52dnVX1bePGjbNeU6N6n2rmfPv7+/Plnp6eqpiQxv/5vFcAAFAk+QsArApZ51naqZeanJzMO1uzDsXiY5bqGrgdHR1pUezatSs/jx07dszZ4TdXp3Ct7UNDQ1Wvd2JiouF7VOyM7uvri4MHD1adV63nmOt1pK892z45OTlrW1Gjc9m9e3fs3bs3+vr6Zo26mUvxmHv37s2P2d3dnSdyao2ym+u9TF9L+j6kFvoaRkZG8nPYtWvXrOeZ6zxq/Q1pbGRkJI4ePVo3SbDQOlDPfP9Gi3n+dFtq69atMTExEX19fbFz5850cy5LXmaj59NRjLWeJ02+zqXZ+Jy+f+n7kWn2tWWaeQ3pc2/atCkOHToUMZMw6+npqdpetHHjxjh8+HBMTk7G+vXrq0bmj46OzntUaHou0cR3JMunOGK1OBp0vub6Lm3WfD4vExMTDZ9z586deUwaHR2tWwejifiVntd84lfMTJecHX9oaGjO489lrvOdr/m8VwAAkJH8BQBWjZ6enlnT+RVl0xQWp9ibS6s6VWspnkez51M0MTExZ6fltsIUpdmt0dTY2ZSExVu9hFdmMa+jUSfnXOeSlU1MTDT8uxd1zEyNWryl19sbGxuLsbGxWYmW+b6XzZjvaxieub5n9rjiCKOFmmsU6mo3OTkZe/furRrtlVpMHWjGXImWVj5/rWTPjpnry27evHnWNMdF2ej5Wj+eqFXXm4lhS63Z1xYLfA1ZjBgfH49Dhw7NiitF5513XoyOjsbhw4dj48aN0d7eHuvXr89HAzd6HiiqVY9brVZ9iJkfWBWnWp5rdomljF9Znc6Om87CshCtPN/5vlcAAJCR/AUAVo2tW7fGwYMHZ3Xgj4yMxPj4eJ5AyTrQi9d3zYzOXAM2s3fv3nzq0kza4dnV1VWVuBsaGqraXkuW2JyP4ujQffv2zUqupDZt2tTwmn2pbNrW+VxvbiGvI9PZ2RkdHR1Vryt7H+c6l+L7XRx5t2/fvrpJ1CwJU297FJJXBw8erJoqcr7vZS3p52Yhr2FycrKqc7g4TXUz0r/X8PDwrPOiWpYwqJfoT9/TVhgaGso/D5Mz1xqulzRczPPXqhPpsdLPaaMfC2Sj59MfT2yauZ5tMbamMWzjxo1VsbNeHWiluV5bsW408xrq2bx5c15X632OorCtmCTeuHFjze+hlHpcXp2dnTExMZF/9iYnJ6umWG+mHrfapk2bquJUzDx/tp5NUT45MyV1PUsdv44ePVo1XXo2Cr+eyZnZYepZzPmm5vteFY2MjMxq6wIAsLpI/gIAq0rWKZdNodfX1xdjY2P5dd/Wr19fVZ7q6uqKsbGxfJ+urq6q0abZ9d36+vryjti+mSmJs8fM1UkfhevSFc9zrmTHxo0b831Hk2vl1tLd3R29vb1Vz9Gos7C9vT36+/urpjTsa9AJGgt8HUW7d++umt45+5vMdS7FKZhHC9f8m2tq1N27d8+avrmYYO7s7IyjR4/OGh003/cy1dnZGV1dXdFXmOJ5Ia8h+4FD+n40a+vWrXH06NGqxxtpVN/IyEiMjo7O+sz0FaYJXmwdqKW3tzfuuuuu6JuZVnTbtm11k4aLff6bb7656vVdfvnlVduL8XDv3r1V1x6vpaenJ0aT69q2t7fHwMBAPs1538y06bWu951tnyuh2gqNXtvll1+evy+Tk5NNvYZ6sh+zpHGllqw+Zq//vPPOi4mJiTjvvPOSPf9GrfhCuWzbti3/7N11112zpg+fqx63Wnd3d2zbti127NiRP+d5550X7e3t0dvbm5ffddddDb9jljp+Fd+3vpk2XSNjY2Oz3tuixZ5v0Xzfq6L0BzYAAKw+lenp6em0kOYdOXIkKpVKtLW1RVtbW83lSqVS8xYR+X0mXQeA01WxiZEtF++np6djampq1vLU1FS0tbXFueeemz9+pRgZGYnDhw831Zm/nCYnJ/OpSalvcnIyBpNpnE83ZXgN8/Hss8/mMSFtSxfb1JksnqS3lRxXVpt9+/ZFe3v7nNPFryZi+PISV3zmFmrfvn2xadOmuj+2WSl27twZu3fvTotZQmlcKcaX4nIU+v2KsSaNOwAAi2XkLwAAq0J7e/tpnzQtw2tg9cqmozUirdrw8HDD0YTQarVGBzO3rVu3rvjEb8zMYgIAwOom+QsAAMCS2rlzZ+zYsSP6+/uXZcrm08HIyEj0zUwPnU0XC0th586dVVMRd3V1+cwBAECJmfZ5kUz7DAC1FZsY2XLxPpsyMV0+nadRBFornUax1q0onZa1DNOzAq0lrgCtlsYV0z4DAKeakb8AAAAAAAAAJSD5CwAAAAAAAFACkr8AAAAAAAAAJSD5CwAAAAAAAFACkr8AAAAAAAAAJSD5CwAAAAAAAFACkr8AAC0yOTkZfX19MTIykm6al76+vpicnEyLl8XIyEgMDAykxS0zMjISfX19NW/79u1Ld6eOffv2xfDwcEThc8epVeuznf2NWi17rmbjxFz779u3L3bu3JkWt0z6GS3GmVbFzVNleHg4+vr6lvT9O93t3LkzxsfH02JKbOfOnaf1d/rw8PBpff4AACD5CwDQIu3t7TE4OBjd3d3pphWrUUJoIebqMO3u7o7BwcGq27Zt26KjoyO2bt2a7g6nhYGBgRgaGpr12R4bG0t3bYmsHrW3t6ebappr/61bt8bu3bvT4rrGx8dbluw8HeNmZnJyMoaGhmJgYGBe7x+U3e7du32nAwDAKST5CwDAKbV3797Ytm1bWgynhWx0b63k344dO9IiSiT74Uy9pDoAAACcCpXp6enptJDmHTlyJCqVSrS1tUVbW1vN5UqlUvMWEfl9Jl0HgNNVsYmRLRfvp6enY2pqatby1NRUtLW1xbnnnps/vlX27dsX7e3tcejQoZiYmIiBgYFob2+Pffv2xcGDByMioqOjI0/iTE5Oxo4dO6K/vz927doVERG9vb2xadOmPKlT3D9mpjrctm1bdHZ21nx8un/2mImJiYiI2LZtW+zduzc/t5iZInXv3r35/sVtO3fujN7e3ti7d29+7OHh4RgaGqq5f2Z8fDw/pyic18jISBw+fDg2btyYH6Onp6dqBE/xfIuvZ2BgIEZHR/P9tm3bNudovoGBgZqjfufzN6n1nqaKx4uIGBwcrFlefK+yz8vY2Fj+uhq9puy96+joiIMHD+b7Nvr7RY1zmM+5bdmyJX9PsseVybPPPpvHhLQtXWxTZ7J4kt6WMq4U6/xcinWnWK9q1bv+/v6YmJjIPzvF/dO/ea3HN9o/lT0+i2vZayrGiOzzl8aX4vPMVW/T802fL3sPs/0z27Zti6Ghoap6PtdzzRUj0vqVnVut565V59N6XXwf0liYxvNacaIo22fTpk35c9R6DfU+T9lryL5Psm3F80qP18w51/t8RYPvhWxbs3VkOZwOcaXW98/g4GDV5zb97KSfyeLfMK232ba0LVA8ZqO/aa16Uqyjxe+omCOmZOZqCzWSvvbi66j1XjZ67zo6OmLz5s0xOTk5q22SSV9PV1dX7Nixo+o1pOee/g2K51CvzkaDes7KksaVYnwpLkeh368Ya9K4AwCwWEb+AgCrytDQUNx88835FKjDw8MxOjqaT9Pa1dUV+5Jpix955JEYHByM/v7+GBoairvuuivfPwoj/+rJHl9r/4GBgejq6sq3p9PEjo+P5x2ggzNTJN91111V+2TTze7evTvGx8erpp/dVmdEbWdnZ34+A8mUpcWO5oGBgTh48GB+vcbx8fHo7e3Nj79+/fr89ezYsSN6e3ujp6cnBpuYxnVkZCSOHj06qyNzPn+TWu9pamBgICYmJvL9e3t7q7YXy7PjZYaGhuLyyy/P38ti53Ito6OjsXHjxvz1z/X3W8y5cepNTk7GxMREU0mttK6Pjo7GSOE6t8V619vbG7t27YqxsbEYrFEPa2lUbxdi165d+blmdToiYsuWLdHf3x8dHR0xODiY199m6m2zsiRIdqxiwiSafK5GMaJRvSs+98DAQOzduzcf4VvU3d0d/f39ETPveTHxm703gzN1vpgkixpxopbR0dH87z84E2sHCtdjn+vzFBH547du3Zq//mz/zZs35/s1e85R5/PV6HuBhSt+/3R1dUVfX1/+uUm/jxp91zRqF+zatSv6+/vzv2vxeI3+pnPV0VrqxZSo8XlO20JzKdaV/v7+Wd/Vjb7L0/fu5ptvnvfrGR0djb6+vrx9mb6+4eHhOHToUL5/FlvSGF2ss1HjfalVzwEAoBbJXwBgVenp6akaiTE0NFTVEbply5a8kzuTdYJ3dnZGR0dHVaIgGx3SSF9fX75c3H98fDxGR0erkp9pIvSRRx6J3t7e/JyLo0QyxfPJ9su2d3d3NzVqpqijoyMfrdPe3h5dXV35qJPOzs6qZMXGjRvnfP317K0z3XMzf5N672lqcnIyRkdHqxIZ2WuL5P0+77zz4ujRo/l6zHxessRerfc+1dHRUfX+NPr7LfbcWJmGh4ejr68v+vr6YufMdXFr1fXe3t6qBEdXV1f+99+0aVNE4fOQ1sNaGtXbhSjWwU2bNs35+Wum3jZjZGQkurq6qupRGieaea56MaJRvRseHq567vb29ujp6Wk6EVXr79zd3R1dXV1VCZs0TtTSkcyI0NfXl7/GWs+Tfp4iiScdHR1Vf8NsW61j1Tvnep+vVn4v8Dd6e3vz759NmzZVfW7S76NG3zWN2gUdHR3537G9vT1/XKO/aTN1tJZ6MSWrk43aQnMp7l+cQSDT6Ls8fe/a29tn/RCrluzHHzFz/GL7Mo2ZaczKnuPw4cN5WSR1tlbdrFXPAQCgFslfAGBVqZUI3bVrV56s2bFjx6ISJrWkz1k8fkdHR9W2WoaGhvLz6+vri4mJiapOzeIx2tvbo7+/P3bs2BF9fX0LGiGyfv36tKjqnPft25efy9DQ0ILer3379lV1xqbm+ps0ek+LJicnG77HIyMj+fPs2rVr1nHS54k5kr+13rt6f7/FnhunXvb5KI7e2rJlSz76LFX8HOzdu7elf9Nan73FHD/9bDZzrLnqbTMmJiZmPXctcz1XWnez7XPVu9GZEXzZ7eDBg7OO3UitYxcTbFHnb5VqZp+5Pk/F96C7uzs2b96c71/vO6RYNtc5F7e34nuBxan3XdOoXbB79+7Yu3dv9PX1zRo9X+9v2mwdTaWPabZONmNycrLqtWdlmTQeRLJ9sc/fjPQc0joWNfaJOvW8+COj+dyMyAcAWD0kfwGAVS+b6q94O1VqJRaLUytmt3pJ0yhM6Tw4OFhzWsHFyKaFzI7fzOiY1MjISBw8eLDhyJ5W/k3SztXM8Mz197Lj10rWtUKjv9+pPjcWr6enZ9borVo6CtPqZrd0at3TXSvrbVGterKY56p1vEw2XWvxVhyNN5dax15osqwoTZAt5PNU/GFCcd/FnnMrvhdYvEbfNY3aBVl5llSMBfxNa32GFqNWW6ie8fHx2LFjR1VMWKz5PH+z0mM2U8fq1fOsLs/3Np9YBgDA6U3yFwBY1dLrsi2nrFO2OBIjPZdNmzbNunZdI+Pj41WdurVGlqTSDslGjh49Ghs3bszXDx06VLU9mugE3rt3b8NkZiv/JtlU3cURTdn7PTk5GV1dXXl5Mwm8+Wr09zvV50ZrbN26NQ4ePFh1vcxUrbp+ukvreavq7aZNm2ZdrzitQ4t5rkb1rtZzz0etY4+MjMTo6Oic0zynRpNre+7duze/Tu9CPk/FfbPRhZOTky0552a+F1hajb5rGrULip+Ljo6OvD3Q6G9aq57Ue+5m1Po8p/V73759dT/vWRI1+1zPd8aT9L0bHx+PgwcPVu2zWD09PVXPMTk5GUNDQ/kU/7XUel8AAKBZkr8AwKqWjT49VdPi3XzzzVVTNV5++eVV27u7u6O3t7fq/BolmSKZDjW9Ll+qt7c3du3alV+bdC7btm3Lp4jMjl+UXXuzr86U01mCoXiO2S3b1uq/ye7du6umcs2ul5cl7bLypTDX3+9UnhutkyUqin/nXbt2VV3jcffu3bOmZV1okvFU6+zsjK6uruhbgnrb3t4e27Ztq4oR6Y9FFvtc9epdNj1uGp/mIz323r17ZyWymtHV1RVjY2P5cYrXhI4Ffp6y/Xbs2BHbtm3Lk2WLPee5vhdYenN919RrFxQ/Q8Xryzb6mzZTR+drrrbQ6Oho3URpd3d3rF+/Pn/sfK+J293dHT09Pfnjs2sAt9LWrVvzmNk3Uwf7+/sbzuISC6znAAAQEVGZnp6eTgtp3pEjR6JSqURbW1u0tbXVXK5UKjVvEZHfZ9J1ADhdFZsY2XLxfnp6OqampmYtT01NRVtbW5x77rn544HV6dlnn81jQtqWLrapM1k8SW/iyultZGQkDh8+POe0xmWx2l7vchNXWq/Vn9nJycnYsWNHDA4OxuTkZAw2Ma05nEppXCnGl+JyFPr9irEmjTsAAItl5C8AAAAr0uTkZOzdu7fuqD/g1FqKOnrXXXdFT09PxMxIY4lfAACYHyN/F8nIXwCordjEyJaL99momXTZSBogk46kqXUrSkfmGaF3+slG/BVt27at4fT1ZdPqUZRUE1cWZynq6M6dO6uuI97T05NPQQ2ngzSuGPkLAJxqkr+LJPkLALUVmxjZcvE+6zhNl1drZyowW9qZWutWlCZnVnuSBphNXAFaLY0rkr8AwKlm2mcAAAAAAACAEpD8BQAAAAAAACgByV8AAAAAAACAEpD8BQAAAAAAACgByV8AAAAAAACAEpD8BQAAAAAAACgByV8AYNXYuXNn7Nu3Ly1ekSYnJ6Ovry8tBgA4Zfbt2xfDw8NpcW7fvn2xc+fOtLi0RkZGoq+vLyYnJ9NNAABwykj+AgCrxu7du2Pr1q1p8byNj4+3vGNzYGAgRkZG0mIAgFNiIe2drVu3xu7du9PiZTE8PLzsP/Lr7u6OwcHBaG9vTzcBAMApI/kLAAAAAAAAUAKV6enp6bSQ5h05ciQqlUq0tbVFW1tbzeVKpVLzFhH5fSZdB4DTVbGJkS0X76enp2NqamrW8tTUVLS1tcW5556bP75V9u3bF+3t7bFly5aYnJyMHTt2RH9/f+zatSsiIjo6OqpGqwwPD8fQ0FC+PjAwEIcPH64q6+npia1bt8bIyEjs3bs3L9+2bVt0d3dHzEwJePjw4di4cWP+2OxxETFreueBgYGIiNixY0cMDg7G8PBwjI2NxY4dO/J9RkZGYmho6JSNroHl8Oyzz+YxIW1LF9vUmSyepLfliCuHDh2KiYmJGBgYiPb29ti3b18cPHgwokZsGRgYiNHR0Vnbdu7cGdu2bYu9e/fGxMRERBJLYmYkXhazIoklUThGcZ/snKJOXMu2LeSc4XRzOsSVaFAf+/r6or+/Pzo7O/N9i2VZ+yZTjCFpvLrsssvimWeeqdm+2Lx5c832TnaMsbGxPCbUavNkx5xr/2yf7LX29PTExMREbNq0qWqfolpxbHBwMD9+FJ6jXvssi6WDg4P5tuy9y+JisX2WxtpM9pjsOHO1+WqpFV9r/Z137twZvb290d3dPWesj+R9jYiq10prpXGlGF+Ky1Ho9yvGmjTuAAAslpG/AMCq9sgjj8Tg4GDeIZZdx258fDyGhobybdu2bYuIiC1btkR/f390dHTE4OBg3pk3NjaW79vf31/V0RgReafe4OBgDAwMxMGDB2N8fDwv6+rqim3bttWcOnDLli0xOjpadT25w4cPR29vb9V+wKkxNDQUN998c15/h4eHY3R0NI8JXV1d+VSkWYzJtm3evLnqWLt27cqPlcWSLFZkyYos0TE4k+xIr7+ZJTQGBwejp6cnBmfiW724FjPntdBzBlqrUX3s7e2Nw4cP5/uOjIxEV1dXniTcsWNH3p4YGBiIvXv3VrUfivHq6quvrtu+qNfeyY5x+eWX53EkbfOkGu2fvtaNGzdWJXFT9eLYjh07ore3N495WeK4Xvuss7Mzurq6qi65cfjw4ejp6Yn29vYYGBiI3t7e/LFp26yRRm2+VL34mv6ds8cXE+L1Yn3MJIInJiby7dqMAACri+QvALCqFUd1bN68Oe8AzTr5svXu7u6GHX/FTtGsA7bYmdrR0RFbtmyJmDl2V1dXPrKvGT09PXkn4OTkZIyOjtYdEQMsryxZkBkaGqpKrGY/4IiZWHD06NGqbUXbtm3Lj9XZ2Rk9PT3x9NNPR8z8WKW3t7fqubZt2xaHDh3K17OyzKZNm/LnaxTXFnPOQGs1qo+bNm2qGs15+PDh2LRpU8RMIrGrqytvH7S3t0dPT0+MjY3l+6fxaiHti56enrytk+1bbPOkGu1/6NChqtfa3d0dXV1d+XqqURyrpVH7bNOmTVUJ1kOHDuXvZUdHR9Vrmk/cm0+br158rfV3Tn94Uy/WZ3/H4oju+Zw/AACnP8lfAGBVSzsMs8659vb26O/vjx07dkRfX1/VyJBaJicno6+vL79lZZn169cX9n5VvY7AWjZt2pQneLKRKcDKkMaRmBmRlcWDHTt25PW9u7s7Nm/enG9LEyYdHR1V66l0e3t7+6xYku7TbFxb6DkDrVevPmbJxJGRkZrJ2tHR0ar2yMGDB6tiRBqvFtK+SI8RcyR/G+0/MTFRc3s9c8WxVKP2WXd3dz7yORtZmyWIt27dGhMTE9HX1xc7d+4sHHFu82nz1Yuvxb9zRMTBgwfzxHSmXqyfnJyctQ0AgNVF8hcAoI7Ozs58urzi1Kup8fHx/Bpx2f6tlnVGjo+PV41MAVamYjxI48KWLVticGYK0uLIrFomJiaqOvHTBMJ8O/kbxbVWnTOweI3q46ZNm2JsbCzGxsZmJWuz6X+Lt0ajPldi+6I4EraWRnGsqJn2WTbyudbI2uxavps3b46BgYGqba1UL75mI5Ozqb3nkyRPvysAAFhdJH8BAGoYHx+v6kzs6Oio6khLlzs6OvJOublGodQzV0fd5s2b8+kJs87aiIidO3cu+DmB1kuvvVhUvD5vFjOKI+aK18IcGRmpGtW3adOmGBoamrV/mrCop1FcW8g5ZyPqGo34A+avUX2MmdGiBw8erJryOQpTBddLhtZTr30RTbRNFit9rcPDww2fs1EciwW0z7JE+ujoaNV7WYx76dTMrVQvvkZhZPLY2Ni8kvKdnZ3R0dGRXyc6Cs8zMjIy75HMAACcfiR/AQDqKE65WLyGXmdnZ3R1dUVfX1/s27cvuru7Y/369fm+xWvrNevyyy+PoaGhhomUrFO3t7c33QSsINk1JotTjRY7+LOyHTt2VF3jNyKit7c33753796q0Wbd3d2xbdu2fLrTvr6+2Lx5c8NRfal6cW0x5wy01lz1MWaSppEka7MpkYv1vG9mquNG6rUv0vbOUti6dWscPXq06lwbXfM3GsSx7NrIfTPTQTfTPuvs7IyjR4/OGlk7NjaWP27v3r1x8803Vz2ulbLnqRVfe3p6Zk3t3Yzdu3dXTQFe67UDAFBelenp6em0kOYdOXIkKpVKtLW1RVtbW83lSqVS8xYR+X0mXQeA01WxiZEtF++np6djampq1vLU1FS0tbXFueeemz+eV01OTuZTEMJq8Oyzz+YxIW1LF9vUmSyepLfTJa7s3Lkztm3bNmvkHdA6qy2uNGOltS+WOxYu9/PNx759+6K9vX1eP/Jh+aVxpRhfistR6Pcrxpo07gAALJaRvwAAp4nh4eFZ1/YDAFiMldS+yEYYL1ciNpsKermebz4mJyfj4MGD85ryGQAAQvIXAGDlGxkZib6+vpiYmMinggQAWIyV0L7Yt29fPjVxX19fjI6Oxu7du9PdWi67ZvnevXuX5fnma+fOnbFjx47o7+83zT4AAPNm2udFMu0zANRWbGJky8X7bMrEdLlM0ygCi5NOo1jrVpROy1rG6VmBxRFXgFZL44ppnwGAU83IXwAAAAAAAIASkPwFAFacSqUS0yYngVVtenq6pSNhxBVAXAFardVxBQCgFSR/AYBTxnRnQLOajRfN7gfQbLxodj8A8QIAWAkkfwGAFWd6ejpOnDiRFgOryIkTJ1o6ok5cAcQVoNVaHVcAAFpB8hcAWFGyKRRPnjyZbgJWkZMnT7ZsKkVxBQhxBVgCrYwrAACtIvkLAJxStTpKpqen4/jx42kxsIocP3685kiaWjEjVWsfcQUQV4BWW0xcAQBYKpK/AMCSm2/nh2kUgbmmUawVV2qVZcQVQFwBWm2uuFJLo7gCANAKkr8AwCmXdYAUO0Kmp6fjlVdeKewFrBavvPJKVUdqrRgxl1qPEVdg9RJXgFZrRVwBAFgKkr8AwLJptiOkUqnE1NRUvPTSS+kmYBV46aWXYmpqqqmYUalUmt5PXIHVS1wBWm0+cSXm8b8QAMBiSf4CACtC2hkyPT0dJ0+edC09WGWOHz8eJ0+enDWFYhojmpE+RlyB1UlcAVqtlXEFAKDVJH8BgBUl6zCpVCpx8uTJOHbsWLoLUGLHjh2LkydPVsWCxRJXYHUTV4BWW4q4AgDQKpK/AMCSaNQBUpmZTjG7FcuL99PT03H8+HEdqrBKHDt2LI4fP56PokljQho70viR3tLHhrgCq464ArTaXHElW05jRy2NtgEALJTkLwBwyjXqUJ2amoqXX345XnnllarHAOXyyiuvxMsvvxxTU1MRNWLBXJ2nKXEFEFeAVmt1XAEAWAqSvwDAilGr8yRmrqmV/cIeKJ+0jqcxYDGdqOkxxBVYHdI6nsYAcQWYr7SOpzFgMXEFAKCVJH8BgCVT7ACp1ylSbz29f+WVV+KFF16IEydOVO0PnN5OnDgRL7zwQj5aLq37aYxoa/ubf2EqdaZULO6T7VfrXlyBchJXgFabb1ypt14sT/cBAGgVyV8A4JQodqqmnaxpecxcT+/EiRPxk5/8JF588cXCkYDT1Ysvvhg/+clP4sSJE1XXzasXC9L1VK196h0rxBUoJXEFaLVWxxUAgKUm+QsArCi1Okuy5ZMnT8Yrr7wSx44di+effz7vfAFOL9PT0/H888/HsWPH4pVXXomTJ0/WrPPZ8mLVO664AuUhrgCtttxxBQCgVSrT/gtZlCNHjkSlUom2trZoa2uruZw1BtNb1GgcpusAcLpLmxrZ+vT09Kzl6enpmJqaqrmcrp9xxhnxmte8Jl7zmtfE2WefPWs6RmDlmZqaipdeeileeeWVWZ2oabu5uJ5um56ermpTZ7L4kO1TK3aIK1Au4grQaq2KKzFHgjhdBwBoFcnfRZL8BYDG0qZGtl68r3dr1Jk6PdMRe8YZZ8SaNWvijDPOiLVr18aaNWt8n8IKMj0zBeqLL74YJ0+ejBMnTsTJkyfzOpzd0nZzup62o6NG2zmLK9lyrVsaR9J1cQVWPnEFaLWliCtZHU/vM+k6AECrSP4ukuQvAMwtbW5k68X7Zm9ph2r2+DPOOCPa2tpizZo1ERH5+hlnnFF4ZmA5nDx5MqampuLkyZMREXHixIl8vdgOzm6N2sy1bkXZehYPMmnsaHQTV2DlE1eAVluOuJLeZ9J1AIBWkvxdJMlfAJhb2twodoJm983e6nWmFteL37/TM7/WB5ZHVueKdTaSztN0vVGbudatKFvP6n8mjR2NbuIKrGxZnSvW2RBXgEXI6lyxzsYSxJX0PpOuAwC0kuTvIkn+AkBz0iZH2hFaXF7oLT1uUboOtF7alk3bvGl7eL634jEaSWPCYm7ZMYr3xecBllZa34uxILtfzK14jEbSmLCYW3aM4n3xeYClldb3YizI7hdzKx6jeNxMug4A0GqSv4sk+QsAzSs2O2ot1+oYnetW3C89Vnp8YOkV27NpmzdtB891S/erdfysfheXQ1yBUknrfXqfLje6pfvVOn5Wv4vLIa5AqaT1Pr1Plxvd0v3qHT9dBgBYKm1pAQAAAAAAAACnHyN/F8nIXwBoXtrsSEe71BsZU+9Wa99ax03VKgMWplb7tdYIl+J9ulzrVm/f9LhZfU7Xs+V6saLerda+tY6bqlUGLEyxrtcqK8aF7D5drnWrt2963Kw+p+vZcr1YUe9Wa99ax03VKgMWpljXa5UV40J2ny7XutXbNz1uvXUAgKUg+btIkr8AMD9p0yPtAK3XSVq8pWXp44r3mXQdaL20LZu2eYv3aZu4Xln6uOJ9PWkcSONGcbleWfq44n0mXQdaL63vaRxIY0at9bQsfVzxvp40DqRxo7hcryx9XPE+k64DrZfW9zQOpDGj1npalj6ueJ9J1wEAlork7yJJ/gLA/KXNj7QDNO0wrbdca//ifbqcarQNaKxRu7W4LW33Fu/TdnG95Vr3mWw9rc9pPEjjR73lWvsX79PlVKNtQGNp/S4SV4CFSOt30amIKwAAy0Hyd5EkfwFg/mo1P9KO0Fr39ZYb3afqlQMLV68Nm7Z5a93XW250X5SV1arbaTyodV9vudF9ql45sHC16nvUiAe17ustN7ovElegnGrV96gRD2rd11tudF9UqwwAYKlI/i6S5C8ALEzaBCmupx2iC73PpOvA0knbs2m7d6H36XKt9bSuiytQDmldT+PDQu/T5VrraV0XV6Ac0rqexoeF3qfLtdYBAJaa5O8iSf4CwMLUaoLU6lAtLs9132g51Wgb0JxGbdd6naBpO7jefaPlemW16nW9mJDGj3r3jZZTjbYBzUnrdVG9mJDGj3r3jZbrldWq1/ViQho/6t03Wk412gY0J63XRfViQho/6t03Wm5UBgCwlCR/F0nyFwAWrl4zpFaHaKOyWtuKapUBS6NWe7ZWp2h6P1dZql55vfpeK040Kqu1rahWGbA0atX3WnEivZ+rLFWvvF59rxUnGpXV2lZUqwxYGrXqe604kd7PVZaqVw4AsJQkfxdJ8hcAFqdeU6ReB+l8l4vqlQOLV68dW69jdL7LRfXKM/Xqer04Md/lonrlwOLVq+v14sR8l4vqlWfq1fV6cWK+y0X1yoHFq1fX68WJ+S4X1SsHAFhqkr+LJPkLAItXrzmSltfrME33q1dWNNd2YG5ztV1rba/XWZrum65n6pWn6tXxtLxeLEn3q1dWNNd2YG5z1fFa2+vFknTfdD1TrzxVr46n5fViSbpfvbKiubYDc5urjtfaXi+WpPum65l65QAAy0Hyd5EkfwGgNeo1SWqVp2Xper0yYHnVatumZel6vbJoUF5PvThQqzwtS9frlQHLq1YcSMvS9Xpl0aC8nnpxoFZ5Wpau1ysDlletOJCWpev1yqJBOQDAcpH8XSTJXwBorUZNk3Rbup6pVw4sv3rt27Q8XS9qtK0ZjWJCui1dz9QrB5ZfvZiQlqfrRY22NaNRTEi3peuZeuXA8qsXE9LydL2o0TYAgOUk+btIkr8AsDTqNVHmWw6sHPXauvMtX6h6cWK+5cDKUS9OzLd8oerFifmWAytHvTgx33IAgFOlLS0AAFgJ6nWipD+kqlVebx9geaT1sFZ9rFeeqVe+GPWOWe9c0vOvtQ+wPNJ6WKs+1ivP1CtfjHrHrHcu6fnX2gdYHmk9rFUf65Vn6pUDAJxKRv4ukpG/ALC0mm2qNLsfcOo029Ztdr+FajZeNLsfcOo0Gy+a3W+hmo0Xze4HnDrNxotm9wMAWG5G/gIAK1rxR1ONpD+ySm/A0kvrXXqbS7P7LVazz5Oef3oDll5a79LbXJrdb7GafZ70/NMbsPTSepfe5tLsfgAAp4qRv4tk5C8ALD/NFyiPldL+FVegPMQVoNVWSlwBAGiGkb8AwGkn/UGVzhg4PaT1diXV3fS8VtK5AfWl9XYl1d30vFbSuQH1pfVW3QUATjeSvwBAKeicgZXpdK6bp/O5Q5mdznXzdD53KDN1EwAoE9M+L5JpnwEAAAAAAICVwMhfAAAAAAAAgBKQ/AUAAAAAAAAoAclfAAAAAAAAgBKQ/AUAAAAAAAAoAclfAAAAAAAAgBKQ/AUAAAAAAAAoAclfAAAAAAAAgBKQ/AUAAAAAAAAoAclfAAAAAAAAgBKQ/AUAAAAAAAAoAclfAAAAAAAAgBKQ/AUAAAAAAAAoAclfAAAAAAAAgBKQ/AUAAAAAAAAoAclfAAAAAAAAgBKQ/AUAAAAAAAAoAclfAAAAAAAAgBKQ/AUAAAAAAAAoAclfAAAAAAAAgBKQ/AUAAAAAAAAoAclfAAAAAAAAgBKQ/AUAAAAAAAAoAclfAAAAAAAAgBKQ/AUAAAAAAAAoAclfAAAAAAAAgBKQ/AUAAAAAAAAoAclfAAAAAAAAgBKQ/AUAAAAAAAAoAclfAAAAAAAAgBKQ/AUAAAAAAAAoAclfAAAAAAAAgBKQ/AUAAAAAAAAoAclfAAAAAAAAgBKQ/AUAAAAAAAAoAclfAAAAAAAAgBKQ/AUAAAAAAAAoAclfAAAAAAAAgBKQ/AUAAAAAAAAoAclfAAAAAAAAgBKQ/AUAAAAAAAAoAclfAAAAAAAAgBKQ/AUAAAAAAAAoAclfAAAAAAAAgBKQ/AUAAAAAAAAoAclfAAAAAAAAgBKQ/AUAAAAAAAAoAclfAAAAAAAAgBKQ/AUAAAAAAAAoAclfAAAAAAAAgBKQ/AUAAAAAAAAoAclfAAAAAAAAgBKQ/AUAAAAAAAAoAclfAAAAAAAAgBKQ/AUAAAAAAAAoAclfAAAAAAAAgBKQ/AUAAAAAAAAoAclfAAAAAAAAgBKQ/AUAAAAAAAAoAclfAAAAAAAAgBKQ/AUAAAAAAAAoAclfAAAAAAAAgBKQ/AUAAAAAAAAoAclfAAAAAAAAgBKQ/AUAAAAAAAAoAclfAAAAAAAAgBKQ/AUAAAAAAAAoAclfAAAAAAAAgBKQ/AUAAAAAAAAoAclfAAAAAAAAgBKQ/AUAAAAAAAAoAclfAAAAAAAAgBKQ/AUAAAAAAAAoAclfAAAAAAAAgBKQ/AUAAAAAAAAoAclfAAAAAAAAgBKQ/AUAAAAAAAAoAclfAAAAAAAAgBKQ/AUAAAAAAAAoAclfAAAAAAAAgBKQ/AUAAAAAAAAoAclfAAAAAAAAgBKQ/AUAAAAAAAAoAclfAAAAAAAAgBKQ/AUAAAAAAAAoAclfAAAAAAAAgBKQ/AUAAAAAAAAoAclfAAAAAAAAgBKQ/AUAAAAAAAAoAclfAAAAAAAAgBKQ/AUAAAAAAAAoAclfAAAAAAAAgBKQ/AUAAAAAAAAoAclfAAAAAAAAgBKQ/AUAAAAAAAAoAclfAAAAAAAAgBKQ/AUAAAAAAAAoAclfAAAAAAAAgBKQ/AUAAAAAAAAoAclfAAAAAAAAgBKQ/AUAAAAAAAAoAclfAAAAAAAAgBKQ/AUAAAAAAAAoAclfAAAAAAAAgBKQ/AUAAAAAAAAoAclfAAAAAAAAgBKQ/AUAAAAAAAAoAclfAAAAAAAAgBKQ/AUAAAAAAAAoAclfAAAAAAAAgBKQ/AUAAAAAAAAoAclfAAAAAAAAgBKQ/AUAAAAAAAAoAclfAAAAAAAAgBKQ/AUAAAAAAAAoAclfAAAAAAAAgBKQ/AUAAAAAAAAoAclfAAAAAAAAgBKQ/AUAAAAAAAAoAclfAAAAAAAAgBKQ/AUAAAAAAAAoAclfAAAAAAAAgBKQ/AUAAAAAAAAoAclfAAAAAAAAgBKQ/AUAAAAAAAAoAclfAAAAAAAAgBKQ/AUAAAAAAAAoAclfAAAAAAAAgBKQ/AUAAAAAAAAoAclfAAAAAAAAgBKQ/AUAAAAAAAAoAclfAAAAAAAAgBKQ/AUAAAAAAAAoAclfAAAAAAAAgBKQ/AUAAAAAAAAoAclfAAAAAAAAgBKQ/AUAAAAAAAAoAclfAAAAAAAAgBKQ/AUAAAAAAAAoAclfAAAAAAAAgBKQ/AUAAAAAAAAoAclfAAAAAAAAgBKQ/AUAAAAAAAAoAclfAAAAAAAAgBKQ/AUAAAAAAAAoAclfAAAAAAAAgBKQ/AUAAAAAAAAoAclfAAAAAAAAgBKQ/AUAAAAAAAAoAclfAAAAAAAAgBKQ/AUAAAAAAAAoAclfAAAAAAAAgBKQ/AUAAAAAAAAoAclfAAAAAAAAgBKQ/AUAAAAAAAAoAclfAAAAAAAAgBKQ/AUAAAAAAAAoAclfAAAAAAAAgBKQ/AUAAAAAAAAoAclfAAAAAAAAgBKQ/AUAAAAAAAAoAclfAAAAAAAAgBKQ/AUAAAAAAAAoAclfAAAAAAAAgBKQ/AUAAAAAAAAoAclfAAAAAAAAgBKQ/AUAAAAAAAAoAclfAAAAAAAAgBKQ/AUAAAAAAAAoAclfAAAAAAAAgBKQ/AUAAAAAAAAoAclfAAAAAAAAgBKQ/AUAAAAAAAAoAclfAAAAAAAAgBKQ/AUAAAAAAAAoAclfAAAAAAAAgBKQ/AUAAAAAAAAoAclfAAAAAAAAgBKQ/AUAAAAAAAAoAclfAAAAAAAAgBKQ/AUAAAAAAAAogcr09PR0WrgcTpyYiuPHT8SJk1MxNTUd01PTMTVzKm2VSlTaKtHWVok1Z7TFmWeuiTVrVmae+siRI1GpVKKtrS3a2tpqLlcqlZq3iMjvM+k6AAAAAAAAQDOWNfl78uRUvPzKiXjllRMxNTW/p21rq8RrXrMmznrNmjjjjJWTCJb8BQAAAAAAAFaCZcmiTk9Px7Fjr8Rzz78YL710fN6J34iIqanpeOml4/Hc8y/GsWOvxDLmrAEAAAAAAABWvCVP/r788ol47rkX46WXj6ebFuyll4/Hc8+9GC+/fCLdBAAAAAAAALAqLWny99ixV+Knx17Or+XbSlPT0/HTYy/HsWOvpJsAAAAAAAAAVp0lS/7+5IWXWjrat56XXj4eP3nhpbQYAAAAAAAAYFVZkuTvT154KY4fP5kWL5njx09KAAMAAAAAAACrWsuTv8eOvbKsid/M8eMnTQENAAAAAAAArFotTf6+/PKJZZnquZ6XXj4eL798Ii0GAAAAAAAAKL2WJX+np6fjxRdP/cjbF198Jaanp9NiAAAAAAAAgFKrTLcoU3rs2CsLGvX7xJPfiz9/6pn47l8ejb/6wbN5+TsvemtcdP7fjnde9Atx9llnVj1mLmefdWasW/eatHhJHDlyJCqVSrS1tUVbW1vN5UqlUvMWEfl9Jl0HAAAAAAAAaEZLkr8nT07Fc8+/mBY39PT4D+IPH/xmVcK3nt/6J78al/yjt6fFDb3hnLVxxhktG9hcl+QvAAAAAAAAsBK0JPl77MVX4qWXmh/1+0df+XYMffnPIiLinNevjfdf9svxi29bH7/wt9dHRMSPnzsW/+3pv4rD3/zvMfYXfx0RERv/7s/F9o/9etOjgM8++8xYt3bpR/9K/gIAAAAAAAArQUuSvz9+7lhMTTV3mGLi97L3nh+Xvff8+Jk3rEt3y4385/8eg/sPRkTEm3/+3Pg/b7ki3aWmtrZKw+O2iuQvAAAAAAAAsBIsOvl74sRUPP+T5qZ8fnr8B7Hn3v8YkUzl/NLLx2P4PzwRX/vGUxEzo3z/xW9tip970xsiIuKvf/hc3Ppv/n3ETML4n13xK/kxGznn9WtjzZqlnfpZ8hcAAAAAAABYCRadGT1+/ERaVNcfPvjNiIjY/O7O2PTuv5eX33vfH+eJ34iIsb/467j13/z7+PFzxyIi4ufe9Ibou6YnIiK+9o2n4q9/+Fy+byPzOTcAAAAAAACA09mik78nTk6lRTU98eT34q9+8Gyc8/q18ZuXXpBfu/eJJ7+XX9f3pu3/W+y54+p488+fGxGRTw8dEdH9D/5ebPy7PxcREV/5+nfy8kaaPTcAAAAAAACA092ik7/NXuv3z596JiIiLjz/Lfl0zhERP/rRTyNmpno+r/Pn42fesC7+YffGiIg4evT5fL+IiE2/+upo4UN/Ol5VXk+z5wYAAAAAAABwult08ne6yQTrd//yaEREdP7iz1aVv/GNr42Ymer56fEfxI+fOxb/aWQsIiLWrz+nat+3n/fmfLmZqZ+bPTcAAAAAAACA092ik79T080lWP/qB89GRMQbz31dVfk7LnxrPp3znnv/Y9x06wNV00MX/cwb1uXLP/7xq9cDbqTZcwMAAAAAAAA43S06+dsK2z/263HZe8+Pc16/NiIiNr+7Mz75sUurpocGAAAAAAAAoL5FJ3/bKpW0qKY3//y5ERHxo2dfSDfF2WedGf/sil+Jf3vnb8Xee/viwx/cHL/wt9enu8WPn/ub0b4/8zN/Mwq4nmbPDQAAAAAAAOB0t+jkb6WtuQTr3/mFV5O54//jf6Wbmvbd77163eBzXr+2agroepo9NwAAAAAAAIDTXWV6enEXxv3JCy/F8eMn0+JZnnjye/H/u/9ARETc8a//ST6l8xNPfi/++//4X/FfR/8qvy5wzEz93PmLPxvvvOgX4uyzzoyIiP/jzofjr37wbGx+d2d8+IOb833rOfPMM+L1rzs7LW6pI0eORKVSiba2tmhra6u5XKlUat4iIr/PpOsAAAAAAAAAzVh08vfFF1+JF186nhbXlCVv33nRW+O9PW+PP3zwm1UJ33p+65/8aqxde2YM7j8YkSSPG1l79pmxdu1r0uKWkvwFAAAAAAAAVoJFJ39PnJiK53/yYlpc09PjP4g99/7HqrJzXr823vsPu+L8t785fu5nfybOPuvM+OsfPhf/87s/jK8eeGpWcviy954f/+yKX6kqq+ec16+NNWsWPbN1Q5K/AAAAAAAAwEqw6ORvRMSPnzsWU1PNHeaPvvLtGPryn0VExJt//tz4+Lb3NhzF+9nfPxB/9u3vRUTExr/7c7H9Y7+eTwPdSFtbpanrAi+W5C8AAAAAAACwErQk+XvsxVfipSanfo4kAXzO69fG+y/75filt785TwL/+Llj8d3vHY2vP/ZfY+wv/joiIt550Vvjg1e9u+mE7tlnnxnrlnjK55D8BQAAAAAAAFaIliR/T56ciueeb27q58zT4z9o6pq/WXJ407v/XlMjfjNvOGdtnHHG0k75HJK/AAAAAAAAwArRkuRvRMSxY6/ESy83P/o388ST34s/f+qZ+O5fHs0Twee8fm383V98U1x0/t+Ot5/35qZH+2bOPuvMWLdu6Uf9huQvAAAAAAAAsEK0LPk7PT0dzz33Yky15nAL1lapxBvesHbZkqiSvwAAAAAAAMBK0LJ5kSuVSqxdhmvszmXt2tdIoAIAAAAAAACrTsuSvxERZ521Zl7X5W21s886M846a01aDAAAAAAAAFB6LU3+RkSsW/eaOPPMM9LiJXfmmWcs23V+AQAAAAAAAFaalid/IyJe/7qzlzUBfOaZZ8TrX3d2WgwAAAAAAACwaixJ8jdmEsDLMQX02WedKfELAAAAAAAArHpLlvyNmSmgX7vurGirVNJNi9ZWqcRr151lqmcAAAAAAACApU7+RkScddaaeMMb1rZ0FPDZZ50Zb3jD2jjrrDXpJgAAAAAAAIBVacmTvxERlUol1q17TbzhnLVx9tlnRlvb/EcCt7VV4uyzz4w3nLM21q17TVSWYDQxAAAAAAAAwOmqMj09PZ0WLocTJ6bi+PETceLkVExNTcf01HRMzZxKW6USlbZKtLVVYs0ZbXHmmWtizZplyVPP25EjR6JSqURbW1u0tbXVXK5UKjVvMZMYL0rXAQAAAAAAAJpxypK/ZSH5CwAAAAAAAKwEK3M4LQAAAAAAAADzIvkLAAAAAAAAUAKSvwAAAAAAAAAlIPkLAAAAAAAAUAKSvwAAAAAAAAAlIPkLAAAAAAAAUAKSvwAAAAAAAAAlIPkLAAAAAAAAUAKSvwAAAAAAAAAlIPkLAAAAAAAAUAKSvwAAAAAAAAAlIPkLAAAAAAAAUAKSvwAAAAAAAAAlIPkLAAAAAAAAUAKSvwAAAAAAAAAlIPkLAAAAAAAAUAKSvwAAAAAAAAAlIPkLAAAAAAAAUAKSvwAAAAAAAAAlIPkLAAAAAAAAUAKSvwAAAAAAAAAlIPkLAAAAAAAAUAKSvwAAAAAAAAAlIPkLAAAAAAAAUAKSvwAAAAAAAAAlIPkLAAAAAAAAUAKSvwAAAAAAAAAlIPkLAAAAAAAAUAKSvwAAAAAAAAAlIPkLAAAAAAAAUAKSvwAAAAAAAAAlIPkLAAAAAAAAUAKSvwAAAAAAAAAlIPkLAAAAAAAAUAKSvwAAAAAAAAAlIPkLAAAAAAAAUAKSvwAAAAAAAAAlIPkLAAAAAAAAUAKSvwAAAAAAAAAlIPkLAAAAAAAAUAKSvwAAAAAAAAAlIPkLAAAAAAAAUAKSvwAAAAAAAAAlIPkLAAAAAAAAUAKSvwAAAAAAAAAlIPkLAAAAAAAAUAKSvwAAAAAAAAAlIPkLAAAAAAAAUAKSvwAAAAAAAAAlIPkLAAAAAAAAUAKSvwAAAAAAAAAlIPkLAAAAAAAAUAKSvwAAAAAAAAAlIPkLAAAAAAAAUAKSvwAAAAAAAAAlIPkLAAAAAAAAUAKSvwAAAAAAAAAlIPkLAAAAAAAAUAKSvwAAAAAAAAAlIPkLAAAAAAAAUAKSvwAAAAAAAAAlIPkLAAAAAAAAUAKSvwAAAAAAAAAlIPkLAAAAAAAAUAKSvwAAAAAAAAAlIPkLAAAAAAAAUAKSvwAAAAAAAAAlIPkLAAAAAAAAUAKSvwAAAAAAAAAlIPkLAAAAAAAAUAKSvwAAAAAAAAAlIPkLAAAAAAAAUAKSvwAAAAAAAAAlIPkLAAAAAAAAUAKSvwAAAAAAAAAlIPkLAAAAAAAAUAKSvwAAAAAAAAAlIPkLAAAAAAAAUAKSvwAAAAAAAAAlIPkLAAAAAAAAUAKSvwAAAAAAAAAlIPkLAAAAAAAAUAKSvwAAAAAAAAAlIPkLAAAAAAAAUAKSvwAAAAAAAAAlIPkLAAAAAAAAUAKSvwAAAAAAAAAlIPkLAAAAAAAAUAKSvwAAAAAAAAAlIPkLAAAAAAAAUAKSvwAAAAAAAAAlIPkLAAAAAAAAUAKSvwAAAAAAAAAlIPkLAAAAAAAAUAKSvy1QqVTSIgAAAAAAAIBlJfkLAAAAAAAAUAKSvwAAAAAAAAAlIPnbYqaABgAAAAAAAE4FyV8AAAAAAACAEpD8BQAAAAAAACgByd8WMd0zAAAAAAAAcCpJ/i6SpC8AAAAAAACwEkj+LoEsISwxDAAAAAAAACwXyd8WaCbZ22gbAAAAAAAAwGJJ/i5SmtRtlAiuVVY013YAAAAAAACAeiR/W6RR4ra4rdF+AAAAAAAAAAsl+btIlUpl1mhfyV4AAAAAAABguUn+tkCtBHC6DAAAAAAAALCUJH8XqV6yt1Hit1aiGAAAAAAAAGAxJH8XKRv1W0zopkngtAwAAAAAAACg1SR/F6mY3E0TwGnCN10HAAAAAAAAaBXJ30VKk78SvAAAAAAAAMCpIPm7SGnit96tuH/xPi0HAAAAAAAAWAjJ30VKk7z1krj1ygEAAAAAAABa4f8P8AaUMSkre3MAAAAASUVORK5CYII=;" vertex="1" parent="1">
                    <mxGeometry x="2110" y="890" width="849" height="467.64" as="geometry"/>
                </mxCell>
                <mxCell id="50" value="" style="group" vertex="1" connectable="0" parent="1">
                    <mxGeometry x="131.01" y="70" width="1038.99" height="580" as="geometry"/>
                </mxCell>
                <mxCell id="2" value="" style="rounded=0;whiteSpace=wrap;html=1;" parent="50" vertex="1">
                    <mxGeometry x="118.99000000000001" y="90" width="920" height="490" as="geometry"/>
                </mxCell>
                <mxCell id="3" value="&amp;nbsp; &amp;nbsp; &amp;nbsp; &amp;nbsp; &amp;nbsp; &amp;nbsp; Hallo das ist ein test" style="rounded=1;whiteSpace=wrap;html=1;align=left;" parent="50" vertex="1">
                    <mxGeometry x="318.99" y="330" width="520" height="40" as="geometry"/>
                </mxCell>
                <mxCell id="6" value="" style="group" parent="50" vertex="1" connectable="0">
                    <mxGeometry x="804.99" y="335" width="30" height="30" as="geometry"/>
                </mxCell>
                <mxCell id="4" value="" style="ellipse;whiteSpace=wrap;html=1;aspect=fixed;" parent="6" vertex="1">
                    <mxGeometry width="30" height="30" as="geometry"/>
                </mxCell>
                <mxCell id="5" value="" style="triangle;whiteSpace=wrap;html=1;rotation=-90;" parent="6" vertex="1">
                    <mxGeometry x="7.5" y="4.245000000000019" width="15" height="20.0025" as="geometry"/>
                </mxCell>
                <mxCell id="8" value="" style="group" parent="50" vertex="1" connectable="0">
                    <mxGeometry x="768.99" y="335" width="30" height="30" as="geometry"/>
                </mxCell>
                <mxCell id="9" value="" style="ellipse;whiteSpace=wrap;html=1;aspect=fixed;" parent="8" vertex="1">
                    <mxGeometry width="30" height="30" as="geometry"/>
                </mxCell>
                <mxCell id="11" value="" style="html=1;verticalLabelPosition=bottom;align=center;labelBackgroundColor=#ffffff;verticalAlign=top;strokeWidth=2;shadow=0;dashed=0;shape=mxgraph.ios7.icons.microphone;" parent="8" vertex="1">
                    <mxGeometry x="10" y="4.25" width="10" height="20" as="geometry"/>
                </mxCell>
                <mxCell id="12" value="" style="group" parent="50" vertex="1" connectable="0">
                    <mxGeometry x="323.99" y="335" width="30" height="30" as="geometry"/>
                </mxCell>
                <mxCell id="13" value="" style="ellipse;whiteSpace=wrap;html=1;aspect=fixed;" parent="12" vertex="1">
                    <mxGeometry width="30" height="30" as="geometry"/>
                </mxCell>
                <mxCell id="15" value="" style="shape=mxgraph.mockup.markup.redX;html=1;shadow=0;whiteSpace=wrap;rotation=-45;" parent="12" vertex="1">
                    <mxGeometry x="5" y="4.25" width="20" height="20" as="geometry"/>
                </mxCell>
                <mxCell id="16" value="&lt;font style=&quot;font-size: 40px;&quot;&gt;Hallo {name}, wie geht es dir?&lt;/font&gt;" style="text;strokeColor=none;fillColor=none;align=center;verticalAlign=middle;spacingLeft=4;spacingRight=4;overflow=hidden;points=[[0,0.5],[1,0.5]];portConstraint=eastwest;rotatable=0;whiteSpace=wrap;html=1;" parent="50" vertex="1">
                    <mxGeometry x="218.99" y="240" width="740" height="70" as="geometry"/>
                </mxCell>
                <mxCell id="46" value="" style="edgeStyle=none;html=1;" parent="50" source="17" target="45" edge="1">
                    <mxGeometry relative="1" as="geometry"/>
                </mxCell>
                <mxCell id="17" value="" style="rounded=0;whiteSpace=wrap;html=1;" parent="50" vertex="1">
                    <mxGeometry x="118.99000000000001" y="90" width="40" height="490" as="geometry"/>
                </mxCell>
                <mxCell id="27" value="" style="edgeStyle=none;html=1;" parent="50" source="18" target="26" edge="1">
                    <mxGeometry relative="1" as="geometry"/>
                </mxCell>
                <mxCell id="18" value="" style="image;html=1;image=img/lib/atlassian/Statuspage_Logo.svg;" parent="50" vertex="1">
                    <mxGeometry x="124.56" y="103" width="28.85" height="20" as="geometry"/>
                </mxCell>
                <mxCell id="23" value="" style="edgeStyle=none;html=1;" parent="50" source="19" target="22" edge="1">
                    <mxGeometry relative="1" as="geometry"/>
                </mxCell>
                <mxCell id="19" value="" style="shape=note;whiteSpace=wrap;html=1;backgroundOutline=1;darkOpacity=0.05;size=8;" parent="50" vertex="1">
                    <mxGeometry x="129.99" y="140" width="17.99" height="22.49" as="geometry"/>
                </mxCell>
                <mxCell id="30" value="" style="edgeStyle=none;html=1;" parent="50" source="20" target="29" edge="1">
                    <mxGeometry relative="1" as="geometry"/>
                </mxCell>
                <mxCell id="20" value="" style="html=1;verticalLabelPosition=bottom;align=center;labelBackgroundColor=#ffffff;verticalAlign=top;strokeWidth=1;shadow=0;dashed=0;shape=mxgraph.ios7.icons.looking_glass;" parent="50" vertex="1">
                    <mxGeometry x="128.99" y="180" width="20" height="20" as="geometry"/>
                </mxCell>
                <mxCell id="35" value="" style="edgeStyle=none;html=1;" parent="50" source="21" target="34" edge="1">
                    <mxGeometry relative="1" as="geometry"/>
                </mxCell>
                <mxCell id="21" value="" style="shape=note;whiteSpace=wrap;html=1;backgroundOutline=1;darkOpacity=0.05;size=8;" parent="50" vertex="1">
                    <mxGeometry x="128.99" y="217.51" width="17.99" height="22.49" as="geometry"/>
                </mxCell>
                <mxCell id="22" value="New Chat" style="whiteSpace=wrap;html=1;" parent="50" vertex="1">
                    <mxGeometry x="8.990000000000009" y="136.87" width="82.01" height="28.75" as="geometry"/>
                </mxCell>
                <mxCell id="26" value="some random logo" style="whiteSpace=wrap;html=1;verticalAlign=top;labelBackgroundColor=default;" parent="50" vertex="1">
                    <mxGeometry x="8.990000000000009" y="99.56" width="88.99" height="26.87" as="geometry"/>
                </mxCell>
                <mxCell id="29" value="Search" style="whiteSpace=wrap;html=1;verticalAlign=top;labelBackgroundColor=#ffffff;strokeWidth=1;shadow=0;dashed=0;" parent="50" vertex="1">
                    <mxGeometry y="175" width="91" height="30" as="geometry"/>
                </mxCell>
                <mxCell id="34" value="Notes" style="whiteSpace=wrap;html=1;" parent="50" vertex="1">
                    <mxGeometry x="8.990000000000009" y="210.01" width="96.51" height="30" as="geometry"/>
                </mxCell>
                <mxCell id="36" value="Upload a file" style="whiteSpace=wrap;html=1;shadow=0;" parent="50" vertex="1">
                    <mxGeometry x="278.99" y="419.25" width="120" height="60" as="geometry"/>
                </mxCell>
                <mxCell id="37" value="" style="edgeStyle=none;html=1;" parent="50" source="15" target="36" edge="1">
                    <mxGeometry relative="1" as="geometry"/>
                </mxCell>
                <mxCell id="38" value="Voice to text" style="whiteSpace=wrap;html=1;verticalAlign=top;labelBackgroundColor=#ffffff;strokeWidth=2;shadow=0;dashed=0;" parent="50" vertex="1">
                    <mxGeometry x="723.99" y="410" width="120" height="30.75" as="geometry"/>
                </mxCell>
                <mxCell id="39" value="" style="edgeStyle=none;html=1;" parent="50" source="11" target="38" edge="1">
                    <mxGeometry relative="1" as="geometry"/>
                </mxCell>
                <mxCell id="43" value="Send" style="whiteSpace=wrap;html=1;" parent="50" vertex="1">
                    <mxGeometry x="878.99" y="335" width="70" height="30" as="geometry"/>
                </mxCell>
                <mxCell id="44" value="" style="edgeStyle=none;html=1;" parent="50" source="5" target="43" edge="1">
                    <mxGeometry relative="1" as="geometry"/>
                </mxCell>
                <mxCell id="45" value="On hover of the side bar turn into open sidebar icon" style="whiteSpace=wrap;html=1;rounded=0;" parent="50" vertex="1">
                    <mxGeometry x="78.98000000000002" width="120" height="60" as="geometry"/>
                </mxCell>
                <mxCell id="52" value="" style="rounded=0;whiteSpace=wrap;html=1;" vertex="1" parent="1">
                    <mxGeometry x="-1030" y="190" width="920" height="490" as="geometry"/>
                </mxCell>
                <mxCell id="63" value="&lt;font style=&quot;font-size: 40px;&quot;&gt;Hallo {name}, wie geht es dir?&lt;/font&gt;" style="text;strokeColor=none;fillColor=none;align=center;verticalAlign=middle;spacingLeft=4;spacingRight=4;overflow=hidden;points=[[0,0.5],[1,0.5]];portConstraint=eastwest;rotatable=0;whiteSpace=wrap;html=1;" vertex="1" parent="1">
                    <mxGeometry x="-945" y="290" width="330" height="120" as="geometry"/>
                </mxCell>
                <mxCell id="65" value="" style="rounded=0;whiteSpace=wrap;html=1;" vertex="1" parent="1">
                    <mxGeometry x="-1030" y="190" width="40" height="490" as="geometry"/>
                </mxCell>
                <mxCell id="67" value="" style="image;html=1;image=img/lib/atlassian/Statuspage_Logo.svg;" vertex="1" parent="1">
                    <mxGeometry x="-1024.43" y="203" width="28.85" height="20" as="geometry"/>
                </mxCell>
                <mxCell id="69" value="" style="shape=note;whiteSpace=wrap;html=1;backgroundOutline=1;darkOpacity=0.05;size=8;" vertex="1" parent="1">
                    <mxGeometry x="-1019" y="240" width="17.99" height="22.49" as="geometry"/>
                </mxCell>
                <mxCell id="71" value="" style="html=1;verticalLabelPosition=bottom;align=center;labelBackgroundColor=#ffffff;verticalAlign=top;strokeWidth=1;shadow=0;dashed=0;shape=mxgraph.ios7.icons.looking_glass;" vertex="1" parent="1">
                    <mxGeometry x="-1020" y="280" width="20" height="20" as="geometry"/>
                </mxCell>
                <mxCell id="73" value="" style="shape=note;whiteSpace=wrap;html=1;backgroundOutline=1;darkOpacity=0.05;size=8;" vertex="1" parent="1">
                    <mxGeometry x="-1020" y="317.51" width="17.99" height="22.49" as="geometry"/>
                </mxCell>
                <mxCell id="85" style="edgeStyle=none;html=1;entryX=1.004;entryY=0.184;entryDx=0;entryDy=0;entryPerimeter=0;" edge="1" parent="1" source="21" target="52">
                    <mxGeometry relative="1" as="geometry"/>
                </mxCell>
                <mxCell id="86" value="" style="rounded=0;whiteSpace=wrap;html=1;" vertex="1" parent="1">
                    <mxGeometry x="-540" y="190" width="430" height="490" as="geometry"/>
                </mxCell>
                <mxCell id="89" value="" style="group" vertex="1" connectable="0" parent="1">
                    <mxGeometry x="-940" y="430" width="320" height="40" as="geometry"/>
                </mxCell>
                <mxCell id="53" value="&amp;nbsp; &amp;nbsp; &amp;nbsp; &amp;nbsp; &amp;nbsp; &amp;nbsp; Hallo das ist ein test" style="rounded=1;whiteSpace=wrap;html=1;align=left;" vertex="1" parent="89">
                    <mxGeometry width="320" height="40" as="geometry"/>
                </mxCell>
                <mxCell id="54" value="" style="group" vertex="1" connectable="0" parent="89">
                    <mxGeometry x="280" y="5" width="30" height="30" as="geometry"/>
                </mxCell>
                <mxCell id="55" value="" style="ellipse;whiteSpace=wrap;html=1;aspect=fixed;" vertex="1" parent="54">
                    <mxGeometry width="30" height="30" as="geometry"/>
                </mxCell>
                <mxCell id="56" value="" style="triangle;whiteSpace=wrap;html=1;rotation=-90;" vertex="1" parent="54">
                    <mxGeometry x="7.5" y="4.245000000000019" width="15" height="20.0025" as="geometry"/>
                </mxCell>
                <mxCell id="57" value="" style="group" vertex="1" connectable="0" parent="89">
                    <mxGeometry x="245" y="5" width="30" height="30" as="geometry"/>
                </mxCell>
                <mxCell id="58" value="" style="ellipse;whiteSpace=wrap;html=1;aspect=fixed;" vertex="1" parent="57">
                    <mxGeometry width="30" height="30" as="geometry"/>
                </mxCell>
                <mxCell id="59" value="" style="html=1;verticalLabelPosition=bottom;align=center;labelBackgroundColor=#ffffff;verticalAlign=top;strokeWidth=2;shadow=0;dashed=0;shape=mxgraph.ios7.icons.microphone;" vertex="1" parent="57">
                    <mxGeometry x="10" y="4.25" width="10" height="20" as="geometry"/>
                </mxCell>
                <mxCell id="60" value="" style="group" vertex="1" connectable="0" parent="89">
                    <mxGeometry x="5" y="5" width="30" height="30" as="geometry"/>
                </mxCell>
                <mxCell id="61" value="" style="ellipse;whiteSpace=wrap;html=1;aspect=fixed;" vertex="1" parent="60">
                    <mxGeometry width="30" height="30" as="geometry"/>
                </mxCell>
                <mxCell id="62" value="" style="shape=mxgraph.mockup.markup.redX;html=1;shadow=0;whiteSpace=wrap;rotation=-45;" vertex="1" parent="60">
                    <mxGeometry x="5" y="4.25" width="20" height="20" as="geometry"/>
                </mxCell>
                <mxCell id="90" value="&amp;nbsp;Search throught all notes" style="rounded=1;whiteSpace=wrap;html=1;align=left;" vertex="1" parent="1">
                    <mxGeometry x="-510" y="250" width="360" height="30" as="geometry"/>
                </mxCell>
                <mxCell id="91" value="&lt;font style=&quot;font-size: 26px;&quot;&gt;&lt;b style=&quot;&quot;&gt;Youre notes&lt;/b&gt;&lt;/font&gt;" style="text;html=1;align=left;verticalAlign=middle;whiteSpace=wrap;rounded=0;" vertex="1" parent="1">
                    <mxGeometry x="-510" y="203" width="170" height="30" as="geometry"/>
                </mxCell>
                <mxCell id="119" value="&lt;span style=&quot;font-size: 20px;&quot;&gt;&lt;b&gt;Favourit Color&lt;/b&gt;&lt;/span&gt;" style="text;html=1;align=left;verticalAlign=middle;whiteSpace=wrap;rounded=0;" vertex="1" parent="1">
                    <mxGeometry x="-510" y="440" width="170" height="30" as="geometry"/>
                </mxCell>
                <mxCell id="120" value="&lt;span style=&quot;font-size: 13px;&quot;&gt;{names} favourite color is b...&lt;/span&gt;" style="text;html=1;align=left;verticalAlign=middle;whiteSpace=wrap;rounded=0;" vertex="1" parent="1">
                    <mxGeometry x="-510" y="467.51" width="170" height="17.51" as="geometry"/>
                </mxCell>
                <mxCell id="121" value="" style="group" vertex="1" connectable="0" parent="1">
                    <mxGeometry x="-280" y="445" width="130" height="23.75" as="geometry"/>
                </mxCell>
                <mxCell id="122" value="&lt;font style=&quot;font-size: 10px;&quot;&gt;Last updated: 10 min. ago&lt;/font&gt;" style="text;html=1;align=left;verticalAlign=middle;whiteSpace=wrap;rounded=0;" vertex="1" parent="121">
                    <mxGeometry width="130" height="13.75" as="geometry"/>
                </mxCell>
                <mxCell id="123" value="&lt;font style=&quot;font-size: 10px;&quot;&gt;Created:&amp;nbsp; &amp;nbsp; &amp;nbsp; &amp;nbsp; &amp;nbsp;10 min. ago&lt;/font&gt;" style="text;html=1;align=left;verticalAlign=middle;whiteSpace=wrap;rounded=0;" vertex="1" parent="121">
                    <mxGeometry y="10" width="130" height="13.75" as="geometry"/>
                </mxCell>
                <mxCell id="113" value="&lt;span style=&quot;font-size: 20px;&quot;&gt;&lt;b&gt;Favourit Color&lt;/b&gt;&lt;/span&gt;" style="text;html=1;align=left;verticalAlign=middle;whiteSpace=wrap;rounded=0;" vertex="1" parent="1">
                    <mxGeometry x="-510" y="390" width="170" height="30" as="geometry"/>
                </mxCell>
                <mxCell id="114" value="&lt;span style=&quot;font-size: 13px;&quot;&gt;{names} favourite color is b...&lt;/span&gt;" style="text;html=1;align=left;verticalAlign=middle;whiteSpace=wrap;rounded=0;" vertex="1" parent="1">
                    <mxGeometry x="-510" y="417.51" width="170" height="17.51" as="geometry"/>
                </mxCell>
                <mxCell id="115" value="" style="group" vertex="1" connectable="0" parent="1">
                    <mxGeometry x="-280" y="394" width="130" height="23.75" as="geometry"/>
                </mxCell>
                <mxCell id="116" value="&lt;font style=&quot;font-size: 10px;&quot;&gt;Last updated: 10 min. ago&lt;/font&gt;" style="text;html=1;align=left;verticalAlign=middle;whiteSpace=wrap;rounded=0;" vertex="1" parent="115">
                    <mxGeometry width="130" height="13.75" as="geometry"/>
                </mxCell>
                <mxCell id="117" value="&lt;font style=&quot;font-size: 10px;&quot;&gt;Created:&amp;nbsp; &amp;nbsp; &amp;nbsp; &amp;nbsp; &amp;nbsp;10 min. ago&lt;/font&gt;" style="text;html=1;align=left;verticalAlign=middle;whiteSpace=wrap;rounded=0;" vertex="1" parent="115">
                    <mxGeometry y="10" width="130" height="13.75" as="geometry"/>
                </mxCell>
                <mxCell id="107" value="&lt;span style=&quot;font-size: 20px;&quot;&gt;&lt;b&gt;Favourit Color&lt;/b&gt;&lt;/span&gt;" style="text;html=1;align=left;verticalAlign=middle;whiteSpace=wrap;rounded=0;" vertex="1" parent="1">
                    <mxGeometry x="-510" y="340" width="170" height="30" as="geometry"/>
                </mxCell>
                <mxCell id="108" value="&lt;span style=&quot;font-size: 13px;&quot;&gt;{names} favourite color is b...&lt;/span&gt;" style="text;html=1;align=left;verticalAlign=middle;whiteSpace=wrap;rounded=0;" vertex="1" parent="1">
                    <mxGeometry x="-510" y="367.51" width="170" height="17.51" as="geometry"/>
                </mxCell>
                <mxCell id="109" value="" style="group" vertex="1" connectable="0" parent="1">
                    <mxGeometry x="-280" y="344" width="130" height="23.75" as="geometry"/>
                </mxCell>
                <mxCell id="110" value="&lt;font style=&quot;font-size: 10px;&quot;&gt;Last updated: 10 min. ago&lt;/font&gt;" style="text;html=1;align=left;verticalAlign=middle;whiteSpace=wrap;rounded=0;" vertex="1" parent="109">
                    <mxGeometry width="130" height="13.75" as="geometry"/>
                </mxCell>
                <mxCell id="111" value="&lt;font style=&quot;font-size: 10px;&quot;&gt;Created:&amp;nbsp; &amp;nbsp; &amp;nbsp; &amp;nbsp; &amp;nbsp;10 min. ago&lt;/font&gt;" style="text;html=1;align=left;verticalAlign=middle;whiteSpace=wrap;rounded=0;" vertex="1" parent="109">
                    <mxGeometry y="10" width="130" height="13.75" as="geometry"/>
                </mxCell>
                <mxCell id="93" value="&lt;span style=&quot;font-size: 20px;&quot;&gt;&lt;b&gt;Favourit Color&lt;/b&gt;&lt;/span&gt;" style="text;html=1;align=left;verticalAlign=middle;whiteSpace=wrap;rounded=0;" vertex="1" parent="1">
                    <mxGeometry x="-510" y="290" width="170" height="30" as="geometry"/>
                </mxCell>
                <mxCell id="94" value="&lt;span style=&quot;font-size: 13px;&quot;&gt;{names} favourite color is b...&lt;/span&gt;" style="text;html=1;align=left;verticalAlign=middle;whiteSpace=wrap;rounded=0;" vertex="1" parent="1">
                    <mxGeometry x="-510" y="317.51" width="170" height="17.51" as="geometry"/>
                </mxCell>
                <mxCell id="98" value="" style="group" vertex="1" connectable="0" parent="1">
                    <mxGeometry x="-280" y="294" width="130" height="23.75" as="geometry"/>
                </mxCell>
                <mxCell id="96" value="&lt;font style=&quot;font-size: 10px;&quot;&gt;Last updated: 10 min. ago&lt;/font&gt;" style="text;html=1;align=left;verticalAlign=middle;whiteSpace=wrap;rounded=0;" vertex="1" parent="98">
                    <mxGeometry width="130" height="13.75" as="geometry"/>
                </mxCell>
                <mxCell id="97" value="&lt;font style=&quot;font-size: 10px;&quot;&gt;Created:&amp;nbsp; &amp;nbsp; &amp;nbsp; &amp;nbsp; &amp;nbsp;10 min. ago&lt;/font&gt;" style="text;html=1;align=left;verticalAlign=middle;whiteSpace=wrap;rounded=0;" vertex="1" parent="98">
                    <mxGeometry y="10" width="130" height="13.75" as="geometry"/>
                </mxCell>
                <mxCell id="127" value="&lt;font size=&quot;1&quot;&gt;more&lt;/font&gt;" style="rounded=1;whiteSpace=wrap;html=1;" vertex="1" parent="1">
                    <mxGeometry x="-190" y="425.02" width="30" height="10" as="geometry"/>
                </mxCell>
                <mxCell id="128" value="&lt;font size=&quot;1&quot;&gt;more&lt;/font&gt;" style="rounded=1;whiteSpace=wrap;html=1;" vertex="1" parent="1">
                    <mxGeometry x="-190" y="371.27" width="30" height="10" as="geometry"/>
                </mxCell>
                <mxCell id="129" value="&lt;font size=&quot;1&quot;&gt;more&lt;/font&gt;" style="rounded=1;whiteSpace=wrap;html=1;" vertex="1" parent="1">
                    <mxGeometry x="-190" y="317.51" width="30" height="10" as="geometry"/>
                </mxCell>
                <mxCell id="130" value="&lt;font size=&quot;1&quot;&gt;more&lt;/font&gt;" style="rounded=1;whiteSpace=wrap;html=1;" vertex="1" parent="1">
                    <mxGeometry x="-190" y="475.02" width="30" height="10" as="geometry"/>
                </mxCell>
                <mxCell id="131" value="Create new note" style="rounded=1;whiteSpace=wrap;html=1;" vertex="1" parent="1">
                    <mxGeometry x="-250" y="206.5" width="100" height="23" as="geometry"/>
                </mxCell>
            </root>
        </mxGraphModel>
    </diagram>
</mxfile>